G04 #@! TF.FileFunction,Profile,NP*
%FSLAX46Y46*%
G04 Gerber Fmt 4.6, Leading zero omitted, Abs format (unit mm)*
G04 Created by KiCad (PCBNEW 4.0.7-e2-6376~58~ubuntu16.04.1) date Sun Feb 25 02:30:39 2018*
%MOMM*%
%LPD*%
G01*
G04 APERTURE LIST*
%ADD10C,0.100000*%
%ADD11C,0.150000*%
G04 APERTURE END LIST*
D10*
D11*
X71750000Y-101500000D02*
X71750000Y-131000000D01*
X71750000Y-69000000D02*
X71750000Y-98500000D01*
X106500000Y-69000000D02*
X100600000Y-69000000D01*
X115400000Y-69000000D02*
X109500000Y-69000000D01*
X173500000Y-69000000D02*
X179400000Y-69000000D01*
X164600000Y-69000000D02*
X170500000Y-69000000D01*
X208250000Y-101500000D02*
X208250000Y-131000000D01*
X208250000Y-69100000D02*
X208250000Y-98500000D01*
X160000000Y-131000000D02*
X179400000Y-131000000D01*
X117500000Y-131000000D02*
X157000000Y-131000000D01*
X100600000Y-131000000D02*
X114500000Y-131000000D01*
X210250000Y-98500000D02*
X210250000Y-64250000D01*
X210250000Y-135750000D02*
X210250000Y-101500000D01*
X160000000Y-135750000D02*
X210250000Y-135750000D01*
X117500000Y-135750000D02*
X157000000Y-135750000D01*
X69750000Y-135750000D02*
X114500000Y-135750000D01*
X69750000Y-101500000D02*
X69750000Y-135750000D01*
X69750000Y-64250000D02*
X69750000Y-98500000D01*
X173500000Y-64250000D02*
X210250000Y-64250000D01*
X109500000Y-64250000D02*
X170500000Y-64250000D01*
X69750000Y-64250000D02*
X106500000Y-64250000D01*
X71750000Y-101500000D02*
X69750000Y-101500000D01*
X71750000Y-98500000D02*
X69750000Y-98500000D01*
X208250000Y-101500000D02*
X210250000Y-101500000D01*
X208250000Y-98500000D02*
X210250000Y-98500000D01*
X160000000Y-131000000D02*
X160000000Y-135750000D01*
X157000000Y-131000000D02*
X157000000Y-135750000D01*
X117500000Y-131000000D02*
X117500000Y-135750000D01*
X114500000Y-131000000D02*
X114500000Y-135750000D01*
X109500000Y-69000000D02*
X109500000Y-64250000D01*
X106500000Y-69000000D02*
X106500000Y-64250000D01*
X173500000Y-69000000D02*
X173500000Y-64250000D01*
X170500000Y-69000000D02*
X170500000Y-64250000D01*
X64750000Y-59250000D02*
X64750000Y-140750000D01*
X215250000Y-59250000D02*
X215250000Y-140750000D01*
X64750000Y-140750000D02*
X215250000Y-140750000D01*
X64750000Y-59250000D02*
X215250000Y-59250000D01*
X140605299Y-78593054D02*
G75*
G03X140599160Y-77525880I29421J533774D01*
G01*
X139446812Y-77536466D02*
G75*
G03X139435840Y-78602840I-26212J-532974D01*
G01*
X139456160Y-77536040D02*
X140614400Y-77525880D01*
X140599160Y-78597760D02*
X139400280Y-78607920D01*
X140599160Y-90307160D02*
X139400280Y-90317320D01*
X139456160Y-89245440D02*
X140614400Y-89235280D01*
X139446812Y-89245866D02*
G75*
G03X139435840Y-90312240I-26212J-532974D01*
G01*
X140605299Y-90302454D02*
G75*
G03X140599160Y-89235280I29421J533774D01*
G01*
X140503699Y-122641734D02*
G75*
G03X140497560Y-121574560I29421J533774D01*
G01*
X139345212Y-121585146D02*
G75*
G03X139334240Y-122651520I-26212J-532974D01*
G01*
X139354560Y-121584720D02*
X140512800Y-121574560D01*
X140497560Y-122646440D02*
X139298680Y-122656600D01*
X140568680Y-110942120D02*
X139369800Y-110952280D01*
X139425680Y-109880400D02*
X140583920Y-109870240D01*
X139416332Y-109880826D02*
G75*
G03X139405360Y-110947200I-26212J-532974D01*
G01*
X140574819Y-110937414D02*
G75*
G03X140568680Y-109870240I29421J533774D01*
G01*
X157655260Y-107561380D02*
X159331660Y-107541060D01*
X157655260Y-108917740D02*
X159331660Y-108917740D01*
X159346900Y-108907580D02*
G75*
G03X159332676Y-107546395I-19304J680465D01*
G01*
X157640956Y-107561823D02*
G75*
G03X157665420Y-108912660I24464J-675197D01*
G01*
X124459557Y-99147296D02*
G75*
G03X123108720Y-99171760I-675197J-24464D01*
G01*
X123113800Y-100853240D02*
G75*
G03X124474985Y-100839016I680465J19304D01*
G01*
X123103640Y-99161600D02*
X123103640Y-100838000D01*
X124460000Y-99161600D02*
X124480320Y-100838000D01*
X166954200Y-83164680D02*
X166974520Y-84841080D01*
X165597840Y-83164680D02*
X165597840Y-84841080D01*
X165608000Y-84856320D02*
G75*
G03X166969185Y-84842096I680465J19304D01*
G01*
X166953757Y-83150376D02*
G75*
G03X165602920Y-83174840I-675197J-24464D01*
G01*
D10*
X98001095Y-133598190D02*
X100626091Y-130973180D01*
X74376094Y-133598190D02*
X98001095Y-133598190D01*
X71751095Y-130973180D02*
X74376094Y-133598190D01*
X74376094Y-66398184D02*
X71751095Y-69023183D01*
X98001095Y-66398184D02*
X74376094Y-66398184D01*
X100626094Y-69023183D02*
X98001095Y-66398184D01*
X118026094Y-66398184D02*
X115373910Y-69023183D01*
X162001090Y-66398184D02*
X118026094Y-66398184D01*
X164626090Y-69023183D02*
X162001090Y-66398184D01*
X182001090Y-66398184D02*
X179376100Y-69023183D01*
X205626090Y-66398184D02*
X182001090Y-66398184D01*
X208251090Y-69023183D02*
X205626090Y-66398184D01*
X205626100Y-133598190D02*
X208251100Y-130973180D01*
X182001100Y-133598190D02*
X205626100Y-133598190D01*
X179376100Y-130973180D02*
X182001100Y-133598190D01*
M02*
