G04 #@! TF.FileFunction,Legend,Bot*
%FSLAX46Y46*%
G04 Gerber Fmt 4.6, Leading zero omitted, Abs format (unit mm)*
G04 Created by KiCad (PCBNEW 4.0.7-e2-6376~58~ubuntu16.04.1) date Fri Apr 20 13:11:04 2018*
%MOMM*%
%LPD*%
G01*
G04 APERTURE LIST*
%ADD10C,0.100000*%
%ADD11C,0.400000*%
%ADD12C,0.010000*%
%ADD13C,0.150000*%
G04 APERTURE END LIST*
D10*
D11*
X143777143Y-126544286D02*
X143777143Y-124744286D01*
X142748571Y-126544286D01*
X142748571Y-124744286D01*
X141548571Y-124744286D02*
X141205714Y-124744286D01*
X141034286Y-124830000D01*
X140862857Y-125001429D01*
X140777143Y-125344286D01*
X140777143Y-125944286D01*
X140862857Y-126287143D01*
X141034286Y-126458571D01*
X141205714Y-126544286D01*
X141548571Y-126544286D01*
X141720000Y-126458571D01*
X141891429Y-126287143D01*
X141977143Y-125944286D01*
X141977143Y-125344286D01*
X141891429Y-125001429D01*
X141720000Y-124830000D01*
X141548571Y-124744286D01*
X140005715Y-126544286D02*
X140005715Y-124744286D01*
X139234286Y-126458571D02*
X138977143Y-126544286D01*
X138548572Y-126544286D01*
X138377143Y-126458571D01*
X138291429Y-126372857D01*
X138205714Y-126201429D01*
X138205714Y-126030000D01*
X138291429Y-125858571D01*
X138377143Y-125772857D01*
X138548572Y-125687143D01*
X138891429Y-125601429D01*
X139062857Y-125515714D01*
X139148572Y-125430000D01*
X139234286Y-125258571D01*
X139234286Y-125087143D01*
X139148572Y-124915714D01*
X139062857Y-124830000D01*
X138891429Y-124744286D01*
X138462857Y-124744286D01*
X138205714Y-124830000D01*
X137434286Y-125601429D02*
X136834286Y-125601429D01*
X136577143Y-126544286D02*
X137434286Y-126544286D01*
X137434286Y-124744286D01*
X136577143Y-124744286D01*
X118664285Y-116892857D02*
X118749999Y-116978571D01*
X119007142Y-117064286D01*
X119178571Y-117064286D01*
X119435714Y-116978571D01*
X119607142Y-116807143D01*
X119692857Y-116635714D01*
X119778571Y-116292857D01*
X119778571Y-116035714D01*
X119692857Y-115692857D01*
X119607142Y-115521429D01*
X119435714Y-115350000D01*
X119178571Y-115264286D01*
X119007142Y-115264286D01*
X118749999Y-115350000D01*
X118664285Y-115435714D01*
X117035714Y-117064286D02*
X117892857Y-117064286D01*
X117892857Y-115264286D01*
X116092856Y-115264286D02*
X115749999Y-115264286D01*
X115578571Y-115350000D01*
X115407142Y-115521429D01*
X115321428Y-115864286D01*
X115321428Y-116464286D01*
X115407142Y-116807143D01*
X115578571Y-116978571D01*
X115749999Y-117064286D01*
X116092856Y-117064286D01*
X116264285Y-116978571D01*
X116435714Y-116807143D01*
X116521428Y-116464286D01*
X116521428Y-115864286D01*
X116435714Y-115521429D01*
X116264285Y-115350000D01*
X116092856Y-115264286D01*
X113521428Y-116892857D02*
X113607142Y-116978571D01*
X113864285Y-117064286D01*
X114035714Y-117064286D01*
X114292857Y-116978571D01*
X114464285Y-116807143D01*
X114550000Y-116635714D01*
X114635714Y-116292857D01*
X114635714Y-116035714D01*
X114550000Y-115692857D01*
X114464285Y-115521429D01*
X114292857Y-115350000D01*
X114035714Y-115264286D01*
X113864285Y-115264286D01*
X113607142Y-115350000D01*
X113521428Y-115435714D01*
X112750000Y-117064286D02*
X112750000Y-115264286D01*
X111721428Y-117064286D02*
X112492857Y-116035714D01*
X111721428Y-115264286D02*
X112750000Y-116292857D01*
X162050000Y-125121429D02*
X162650000Y-125121429D01*
X162650000Y-126064286D02*
X162650000Y-124264286D01*
X161792857Y-124264286D01*
X161107143Y-126064286D02*
X161107143Y-124264286D01*
X159392857Y-126064286D02*
X160250000Y-126064286D01*
X160250000Y-124264286D01*
X159049999Y-124264286D02*
X158021428Y-124264286D01*
X158535714Y-126064286D02*
X158535714Y-124264286D01*
X157421428Y-125121429D02*
X156821428Y-125121429D01*
X156564285Y-126064286D02*
X157421428Y-126064286D01*
X157421428Y-124264286D01*
X156564285Y-124264286D01*
X154764285Y-126064286D02*
X155364285Y-125207143D01*
X155792857Y-126064286D02*
X155792857Y-124264286D01*
X155107142Y-124264286D01*
X154935714Y-124350000D01*
X154849999Y-124435714D01*
X154764285Y-124607143D01*
X154764285Y-124864286D01*
X154849999Y-125035714D01*
X154935714Y-125121429D01*
X155107142Y-125207143D01*
X155792857Y-125207143D01*
X163557142Y-92764286D02*
X162957142Y-94564286D01*
X162357142Y-92764286D01*
X161414285Y-92764286D02*
X161071428Y-92764286D01*
X160900000Y-92850000D01*
X160728571Y-93021429D01*
X160642857Y-93364286D01*
X160642857Y-93964286D01*
X160728571Y-94307143D01*
X160900000Y-94478571D01*
X161071428Y-94564286D01*
X161414285Y-94564286D01*
X161585714Y-94478571D01*
X161757143Y-94307143D01*
X161842857Y-93964286D01*
X161842857Y-93364286D01*
X161757143Y-93021429D01*
X161585714Y-92850000D01*
X161414285Y-92764286D01*
X159014286Y-94564286D02*
X159871429Y-94564286D01*
X159871429Y-92764286D01*
X158414286Y-92764286D02*
X158414286Y-94221429D01*
X158328571Y-94392857D01*
X158242857Y-94478571D01*
X158071428Y-94564286D01*
X157728571Y-94564286D01*
X157557143Y-94478571D01*
X157471428Y-94392857D01*
X157385714Y-94221429D01*
X157385714Y-92764286D01*
X156528572Y-94564286D02*
X156528572Y-92764286D01*
X155928572Y-94050000D01*
X155328572Y-92764286D01*
X155328572Y-94564286D01*
X154471429Y-93621429D02*
X153871429Y-93621429D01*
X153614286Y-94564286D02*
X154471429Y-94564286D01*
X154471429Y-92764286D01*
X153614286Y-92764286D01*
X105692857Y-73814286D02*
X105692857Y-72014286D01*
X104835714Y-73814286D02*
X104835714Y-72014286D01*
X103807142Y-73814286D01*
X103807142Y-72014286D01*
X178299999Y-72014286D02*
X177957142Y-72014286D01*
X177785714Y-72100000D01*
X177614285Y-72271429D01*
X177528571Y-72614286D01*
X177528571Y-73214286D01*
X177614285Y-73557143D01*
X177785714Y-73728571D01*
X177957142Y-73814286D01*
X178299999Y-73814286D01*
X178471428Y-73728571D01*
X178642857Y-73557143D01*
X178728571Y-73214286D01*
X178728571Y-72614286D01*
X178642857Y-72271429D01*
X178471428Y-72100000D01*
X178299999Y-72014286D01*
X176757143Y-72014286D02*
X176757143Y-73471429D01*
X176671428Y-73642857D01*
X176585714Y-73728571D01*
X176414285Y-73814286D01*
X176071428Y-73814286D01*
X175900000Y-73728571D01*
X175814285Y-73642857D01*
X175728571Y-73471429D01*
X175728571Y-72014286D01*
X175128571Y-72014286D02*
X174100000Y-72014286D01*
X174614286Y-73814286D02*
X174614286Y-72014286D01*
D12*
G36*
X116416667Y-80560334D02*
X120819333Y-80560334D01*
X120819333Y-80010000D01*
X116416667Y-80010000D01*
X116416667Y-80560334D01*
X116416667Y-80560334D01*
G37*
X116416667Y-80560334D02*
X120819333Y-80560334D01*
X120819333Y-80010000D01*
X116416667Y-80010000D01*
X116416667Y-80560334D01*
G36*
X110744000Y-80560334D02*
X115104333Y-80560334D01*
X115104333Y-80010000D01*
X110744000Y-80010000D01*
X110744000Y-80560334D01*
X110744000Y-80560334D01*
G37*
X110744000Y-80560334D02*
X115104333Y-80560334D01*
X115104333Y-80010000D01*
X110744000Y-80010000D01*
X110744000Y-80560334D01*
G36*
X116136478Y-75120588D02*
X115802889Y-75206160D01*
X115588335Y-75301450D01*
X115442613Y-75381998D01*
X115366817Y-75449963D01*
X115358910Y-75523021D01*
X115416859Y-75618845D01*
X115536376Y-75752721D01*
X115760500Y-75990751D01*
X115964498Y-75885866D01*
X116162312Y-75801582D01*
X116347698Y-75753970D01*
X116501906Y-75745829D01*
X116606188Y-75779953D01*
X116616138Y-75788662D01*
X116652406Y-75837588D01*
X116629624Y-75875618D01*
X116559513Y-75915245D01*
X116462957Y-75956975D01*
X116313335Y-76013766D01*
X116138335Y-76075244D01*
X116084578Y-76093198D01*
X115782103Y-76217117D01*
X115558467Y-76364367D01*
X115410490Y-76537270D01*
X115371979Y-76613637D01*
X115339111Y-76795084D01*
X115378711Y-76980913D01*
X115483860Y-77146082D01*
X115531714Y-77191743D01*
X115661163Y-77300667D01*
X115530915Y-77300667D01*
X115434416Y-77316573D01*
X115400667Y-77355351D01*
X115370529Y-77387724D01*
X115274023Y-77406616D01*
X115114917Y-77413748D01*
X114819069Y-77446247D01*
X114537031Y-77530195D01*
X114286852Y-77656838D01*
X114086580Y-77817419D01*
X113972413Y-77967999D01*
X113872630Y-78225946D01*
X113851097Y-78488966D01*
X113903608Y-78742927D01*
X114025954Y-78973693D01*
X114213926Y-79167133D01*
X114357012Y-79259695D01*
X114457432Y-79305678D01*
X114564887Y-79334077D01*
X114703580Y-79348760D01*
X114897711Y-79353592D01*
X114945583Y-79353717D01*
X115358333Y-79353834D01*
X115358333Y-80433334D01*
X116158830Y-80433334D01*
X116180238Y-80295750D01*
X116186048Y-80226847D01*
X116194186Y-80086278D01*
X116204135Y-79886999D01*
X116215377Y-79641962D01*
X116227395Y-79364121D01*
X116239673Y-79066431D01*
X116251693Y-78761845D01*
X116262083Y-78486000D01*
X115358333Y-78486000D01*
X115358333Y-78824667D01*
X115181145Y-78824667D01*
X115013317Y-78799392D01*
X114905979Y-78732621D01*
X114822558Y-78609143D01*
X114823024Y-78474542D01*
X114894592Y-78345001D01*
X114994064Y-78262870D01*
X115136864Y-78192049D01*
X115281981Y-78151279D01*
X115326583Y-78147570D01*
X115341327Y-78186440D01*
X115352430Y-78289945D01*
X115358014Y-78438073D01*
X115358333Y-78486000D01*
X116262083Y-78486000D01*
X116262938Y-78463318D01*
X116272890Y-78183801D01*
X116281034Y-77936251D01*
X116286850Y-77733620D01*
X116289823Y-77588863D01*
X116290090Y-77544084D01*
X116298379Y-77467539D01*
X116340454Y-77434650D01*
X116440985Y-77427198D01*
X116448417Y-77427164D01*
X116618943Y-77411980D01*
X116804423Y-77371724D01*
X116990850Y-77312834D01*
X117164218Y-77241751D01*
X117310521Y-77164912D01*
X117415750Y-77088757D01*
X117465901Y-77019726D01*
X117449923Y-76966744D01*
X117399983Y-76922057D01*
X117308307Y-76839645D01*
X117210133Y-76751218D01*
X117008765Y-76569693D01*
X116760339Y-76681180D01*
X116578022Y-76748120D01*
X116406809Y-76784848D01*
X116265293Y-76789810D01*
X116172067Y-76761455D01*
X116148546Y-76732262D01*
X116144255Y-76677996D01*
X116184349Y-76630181D01*
X116279709Y-76582602D01*
X116441214Y-76529045D01*
X116566320Y-76493658D01*
X116881988Y-76393465D01*
X117119638Y-76284230D01*
X117285836Y-76160616D01*
X117387152Y-76017285D01*
X117430151Y-75848901D01*
X117432667Y-75789605D01*
X117392562Y-75595659D01*
X117273357Y-75428766D01*
X117076713Y-75290565D01*
X116824042Y-75188687D01*
X116472268Y-75115183D01*
X116136478Y-75120588D01*
X116136478Y-75120588D01*
G37*
X116136478Y-75120588D02*
X115802889Y-75206160D01*
X115588335Y-75301450D01*
X115442613Y-75381998D01*
X115366817Y-75449963D01*
X115358910Y-75523021D01*
X115416859Y-75618845D01*
X115536376Y-75752721D01*
X115760500Y-75990751D01*
X115964498Y-75885866D01*
X116162312Y-75801582D01*
X116347698Y-75753970D01*
X116501906Y-75745829D01*
X116606188Y-75779953D01*
X116616138Y-75788662D01*
X116652406Y-75837588D01*
X116629624Y-75875618D01*
X116559513Y-75915245D01*
X116462957Y-75956975D01*
X116313335Y-76013766D01*
X116138335Y-76075244D01*
X116084578Y-76093198D01*
X115782103Y-76217117D01*
X115558467Y-76364367D01*
X115410490Y-76537270D01*
X115371979Y-76613637D01*
X115339111Y-76795084D01*
X115378711Y-76980913D01*
X115483860Y-77146082D01*
X115531714Y-77191743D01*
X115661163Y-77300667D01*
X115530915Y-77300667D01*
X115434416Y-77316573D01*
X115400667Y-77355351D01*
X115370529Y-77387724D01*
X115274023Y-77406616D01*
X115114917Y-77413748D01*
X114819069Y-77446247D01*
X114537031Y-77530195D01*
X114286852Y-77656838D01*
X114086580Y-77817419D01*
X113972413Y-77967999D01*
X113872630Y-78225946D01*
X113851097Y-78488966D01*
X113903608Y-78742927D01*
X114025954Y-78973693D01*
X114213926Y-79167133D01*
X114357012Y-79259695D01*
X114457432Y-79305678D01*
X114564887Y-79334077D01*
X114703580Y-79348760D01*
X114897711Y-79353592D01*
X114945583Y-79353717D01*
X115358333Y-79353834D01*
X115358333Y-80433334D01*
X116158830Y-80433334D01*
X116180238Y-80295750D01*
X116186048Y-80226847D01*
X116194186Y-80086278D01*
X116204135Y-79886999D01*
X116215377Y-79641962D01*
X116227395Y-79364121D01*
X116239673Y-79066431D01*
X116251693Y-78761845D01*
X116262083Y-78486000D01*
X115358333Y-78486000D01*
X115358333Y-78824667D01*
X115181145Y-78824667D01*
X115013317Y-78799392D01*
X114905979Y-78732621D01*
X114822558Y-78609143D01*
X114823024Y-78474542D01*
X114894592Y-78345001D01*
X114994064Y-78262870D01*
X115136864Y-78192049D01*
X115281981Y-78151279D01*
X115326583Y-78147570D01*
X115341327Y-78186440D01*
X115352430Y-78289945D01*
X115358014Y-78438073D01*
X115358333Y-78486000D01*
X116262083Y-78486000D01*
X116262938Y-78463318D01*
X116272890Y-78183801D01*
X116281034Y-77936251D01*
X116286850Y-77733620D01*
X116289823Y-77588863D01*
X116290090Y-77544084D01*
X116298379Y-77467539D01*
X116340454Y-77434650D01*
X116440985Y-77427198D01*
X116448417Y-77427164D01*
X116618943Y-77411980D01*
X116804423Y-77371724D01*
X116990850Y-77312834D01*
X117164218Y-77241751D01*
X117310521Y-77164912D01*
X117415750Y-77088757D01*
X117465901Y-77019726D01*
X117449923Y-76966744D01*
X117399983Y-76922057D01*
X117308307Y-76839645D01*
X117210133Y-76751218D01*
X117008765Y-76569693D01*
X116760339Y-76681180D01*
X116578022Y-76748120D01*
X116406809Y-76784848D01*
X116265293Y-76789810D01*
X116172067Y-76761455D01*
X116148546Y-76732262D01*
X116144255Y-76677996D01*
X116184349Y-76630181D01*
X116279709Y-76582602D01*
X116441214Y-76529045D01*
X116566320Y-76493658D01*
X116881988Y-76393465D01*
X117119638Y-76284230D01*
X117285836Y-76160616D01*
X117387152Y-76017285D01*
X117430151Y-75848901D01*
X117432667Y-75789605D01*
X117392562Y-75595659D01*
X117273357Y-75428766D01*
X117076713Y-75290565D01*
X116824042Y-75188687D01*
X116472268Y-75115183D01*
X116136478Y-75120588D01*
G36*
X120818679Y-75243260D02*
X120601876Y-75285866D01*
X120409733Y-75347642D01*
X120268493Y-75421415D01*
X120241235Y-75443625D01*
X120155749Y-75529713D01*
X120093916Y-75614152D01*
X120052750Y-75711692D01*
X120029265Y-75837080D01*
X120020476Y-76005065D01*
X120023395Y-76230395D01*
X120032668Y-76473785D01*
X120044027Y-76711230D01*
X120056233Y-76924003D01*
X120068173Y-77095388D01*
X120078732Y-77208670D01*
X120083830Y-77241350D01*
X120088382Y-77289243D01*
X120061555Y-77319066D01*
X119986369Y-77338302D01*
X119845845Y-77354436D01*
X119822196Y-77356668D01*
X119507546Y-77420062D01*
X119249379Y-77544361D01*
X119050851Y-77726501D01*
X118915119Y-77963418D01*
X118845337Y-78252049D01*
X118839956Y-78310199D01*
X118851998Y-78629249D01*
X118932303Y-78903810D01*
X119074238Y-79128876D01*
X119271169Y-79299441D01*
X119516462Y-79410500D01*
X119803484Y-79457046D01*
X120125602Y-79434076D01*
X120282872Y-79399019D01*
X120526247Y-79301681D01*
X120737141Y-79156305D01*
X120892744Y-78979627D01*
X120921397Y-78930500D01*
X120974722Y-78798226D01*
X121002358Y-78641616D01*
X121007728Y-78499389D01*
X120269672Y-78499389D01*
X120248781Y-78638094D01*
X120177092Y-78749137D01*
X120099667Y-78796859D01*
X119983013Y-78809951D01*
X119851103Y-78783663D01*
X119746783Y-78728257D01*
X119727412Y-78707680D01*
X119652252Y-78550064D01*
X119645478Y-78388635D01*
X119703830Y-78245700D01*
X119808666Y-78151684D01*
X119906609Y-78113127D01*
X120003252Y-78126332D01*
X120046033Y-78142652D01*
X120166450Y-78229133D01*
X120241612Y-78355557D01*
X120269672Y-78499389D01*
X121007728Y-78499389D01*
X121009833Y-78443667D01*
X120981736Y-78115163D01*
X120897096Y-77848663D01*
X120755390Y-77642685D01*
X120712311Y-77601634D01*
X120568450Y-77475323D01*
X120682721Y-77462078D01*
X120769119Y-77434189D01*
X120796941Y-77362622D01*
X120797579Y-77343000D01*
X120816433Y-77262873D01*
X120861667Y-77251908D01*
X121063579Y-77281955D01*
X121301793Y-77292503D01*
X121540807Y-77283907D01*
X121745122Y-77256522D01*
X121802026Y-77242518D01*
X122022361Y-77145946D01*
X122174693Y-77012382D01*
X122259974Y-76853956D01*
X122278483Y-76688832D01*
X121359048Y-76688832D01*
X121348684Y-76773413D01*
X121264483Y-76835710D01*
X121111364Y-76871034D01*
X120985643Y-76877334D01*
X120734667Y-76877334D01*
X120734667Y-76689332D01*
X120743461Y-76569668D01*
X120765607Y-76489282D01*
X120777125Y-76475090D01*
X120859223Y-76460851D01*
X120985823Y-76473793D01*
X121124033Y-76506769D01*
X121240959Y-76552634D01*
X121290655Y-76586655D01*
X121359048Y-76688832D01*
X122278483Y-76688832D01*
X122279159Y-76682803D01*
X122233200Y-76511055D01*
X122123051Y-76350845D01*
X121949664Y-76214307D01*
X121713993Y-76113573D01*
X121713313Y-76113372D01*
X121604779Y-76091475D01*
X121438680Y-76069672D01*
X121242062Y-76051189D01*
X121126250Y-76043350D01*
X120911740Y-76027587D01*
X120773046Y-76005414D01*
X120701317Y-75970644D01*
X120687704Y-75917090D01*
X120723356Y-75838566D01*
X120758234Y-75786086D01*
X120857851Y-75710724D01*
X120995155Y-75688302D01*
X121142093Y-75718404D01*
X121263231Y-75793567D01*
X121339406Y-75849371D01*
X121438043Y-75886491D01*
X121582615Y-75911806D01*
X121712346Y-75925189D01*
X121873434Y-75936363D01*
X121999872Y-75939360D01*
X122069865Y-75933845D01*
X122076299Y-75930812D01*
X122082652Y-75870089D01*
X122041659Y-75769958D01*
X121965300Y-75651415D01*
X121865558Y-75535454D01*
X121832909Y-75504346D01*
X121631729Y-75370060D01*
X121381239Y-75274892D01*
X121111835Y-75229391D01*
X121033900Y-75226995D01*
X120818679Y-75243260D01*
X120818679Y-75243260D01*
G37*
X120818679Y-75243260D02*
X120601876Y-75285866D01*
X120409733Y-75347642D01*
X120268493Y-75421415D01*
X120241235Y-75443625D01*
X120155749Y-75529713D01*
X120093916Y-75614152D01*
X120052750Y-75711692D01*
X120029265Y-75837080D01*
X120020476Y-76005065D01*
X120023395Y-76230395D01*
X120032668Y-76473785D01*
X120044027Y-76711230D01*
X120056233Y-76924003D01*
X120068173Y-77095388D01*
X120078732Y-77208670D01*
X120083830Y-77241350D01*
X120088382Y-77289243D01*
X120061555Y-77319066D01*
X119986369Y-77338302D01*
X119845845Y-77354436D01*
X119822196Y-77356668D01*
X119507546Y-77420062D01*
X119249379Y-77544361D01*
X119050851Y-77726501D01*
X118915119Y-77963418D01*
X118845337Y-78252049D01*
X118839956Y-78310199D01*
X118851998Y-78629249D01*
X118932303Y-78903810D01*
X119074238Y-79128876D01*
X119271169Y-79299441D01*
X119516462Y-79410500D01*
X119803484Y-79457046D01*
X120125602Y-79434076D01*
X120282872Y-79399019D01*
X120526247Y-79301681D01*
X120737141Y-79156305D01*
X120892744Y-78979627D01*
X120921397Y-78930500D01*
X120974722Y-78798226D01*
X121002358Y-78641616D01*
X121007728Y-78499389D01*
X120269672Y-78499389D01*
X120248781Y-78638094D01*
X120177092Y-78749137D01*
X120099667Y-78796859D01*
X119983013Y-78809951D01*
X119851103Y-78783663D01*
X119746783Y-78728257D01*
X119727412Y-78707680D01*
X119652252Y-78550064D01*
X119645478Y-78388635D01*
X119703830Y-78245700D01*
X119808666Y-78151684D01*
X119906609Y-78113127D01*
X120003252Y-78126332D01*
X120046033Y-78142652D01*
X120166450Y-78229133D01*
X120241612Y-78355557D01*
X120269672Y-78499389D01*
X121007728Y-78499389D01*
X121009833Y-78443667D01*
X120981736Y-78115163D01*
X120897096Y-77848663D01*
X120755390Y-77642685D01*
X120712311Y-77601634D01*
X120568450Y-77475323D01*
X120682721Y-77462078D01*
X120769119Y-77434189D01*
X120796941Y-77362622D01*
X120797579Y-77343000D01*
X120816433Y-77262873D01*
X120861667Y-77251908D01*
X121063579Y-77281955D01*
X121301793Y-77292503D01*
X121540807Y-77283907D01*
X121745122Y-77256522D01*
X121802026Y-77242518D01*
X122022361Y-77145946D01*
X122174693Y-77012382D01*
X122259974Y-76853956D01*
X122278483Y-76688832D01*
X121359048Y-76688832D01*
X121348684Y-76773413D01*
X121264483Y-76835710D01*
X121111364Y-76871034D01*
X120985643Y-76877334D01*
X120734667Y-76877334D01*
X120734667Y-76689332D01*
X120743461Y-76569668D01*
X120765607Y-76489282D01*
X120777125Y-76475090D01*
X120859223Y-76460851D01*
X120985823Y-76473793D01*
X121124033Y-76506769D01*
X121240959Y-76552634D01*
X121290655Y-76586655D01*
X121359048Y-76688832D01*
X122278483Y-76688832D01*
X122279159Y-76682803D01*
X122233200Y-76511055D01*
X122123051Y-76350845D01*
X121949664Y-76214307D01*
X121713993Y-76113573D01*
X121713313Y-76113372D01*
X121604779Y-76091475D01*
X121438680Y-76069672D01*
X121242062Y-76051189D01*
X121126250Y-76043350D01*
X120911740Y-76027587D01*
X120773046Y-76005414D01*
X120701317Y-75970644D01*
X120687704Y-75917090D01*
X120723356Y-75838566D01*
X120758234Y-75786086D01*
X120857851Y-75710724D01*
X120995155Y-75688302D01*
X121142093Y-75718404D01*
X121263231Y-75793567D01*
X121339406Y-75849371D01*
X121438043Y-75886491D01*
X121582615Y-75911806D01*
X121712346Y-75925189D01*
X121873434Y-75936363D01*
X121999872Y-75939360D01*
X122069865Y-75933845D01*
X122076299Y-75930812D01*
X122082652Y-75870089D01*
X122041659Y-75769958D01*
X121965300Y-75651415D01*
X121865558Y-75535454D01*
X121832909Y-75504346D01*
X121631729Y-75370060D01*
X121381239Y-75274892D01*
X121111835Y-75229391D01*
X121033900Y-75226995D01*
X120818679Y-75243260D01*
G36*
X117446518Y-77355941D02*
X117137398Y-77423450D01*
X116883628Y-77553886D01*
X116689025Y-77742999D01*
X116557406Y-77986539D01*
X116492588Y-78280257D01*
X116486218Y-78425218D01*
X116522871Y-78731367D01*
X116625217Y-78989773D01*
X116786201Y-79196004D01*
X116998767Y-79345631D01*
X117255862Y-79434225D01*
X117550430Y-79457355D01*
X117875415Y-79410593D01*
X117999595Y-79375445D01*
X118231216Y-79269753D01*
X118428818Y-79118763D01*
X118572862Y-78939605D01*
X118624921Y-78827304D01*
X118650998Y-78704399D01*
X118667864Y-78536729D01*
X118669473Y-78475852D01*
X117933754Y-78475852D01*
X117917658Y-78608167D01*
X117836758Y-78720758D01*
X117701960Y-78809248D01*
X117557003Y-78813820D01*
X117468633Y-78778926D01*
X117394988Y-78709864D01*
X117328599Y-78601920D01*
X117322682Y-78588426D01*
X117285903Y-78475095D01*
X117292966Y-78380203D01*
X117322340Y-78299726D01*
X117410798Y-78175443D01*
X117531235Y-78117639D01*
X117663929Y-78125740D01*
X117789163Y-78199176D01*
X117876729Y-78315820D01*
X117933754Y-78475852D01*
X118669473Y-78475852D01*
X118671784Y-78388505D01*
X118633127Y-78073841D01*
X118528963Y-77810522D01*
X118363892Y-77602427D01*
X118142518Y-77453432D01*
X117869440Y-77367417D01*
X117549260Y-77348259D01*
X117446518Y-77355941D01*
X117446518Y-77355941D01*
G37*
X117446518Y-77355941D02*
X117137398Y-77423450D01*
X116883628Y-77553886D01*
X116689025Y-77742999D01*
X116557406Y-77986539D01*
X116492588Y-78280257D01*
X116486218Y-78425218D01*
X116522871Y-78731367D01*
X116625217Y-78989773D01*
X116786201Y-79196004D01*
X116998767Y-79345631D01*
X117255862Y-79434225D01*
X117550430Y-79457355D01*
X117875415Y-79410593D01*
X117999595Y-79375445D01*
X118231216Y-79269753D01*
X118428818Y-79118763D01*
X118572862Y-78939605D01*
X118624921Y-78827304D01*
X118650998Y-78704399D01*
X118667864Y-78536729D01*
X118669473Y-78475852D01*
X117933754Y-78475852D01*
X117917658Y-78608167D01*
X117836758Y-78720758D01*
X117701960Y-78809248D01*
X117557003Y-78813820D01*
X117468633Y-78778926D01*
X117394988Y-78709864D01*
X117328599Y-78601920D01*
X117322682Y-78588426D01*
X117285903Y-78475095D01*
X117292966Y-78380203D01*
X117322340Y-78299726D01*
X117410798Y-78175443D01*
X117531235Y-78117639D01*
X117663929Y-78125740D01*
X117789163Y-78199176D01*
X117876729Y-78315820D01*
X117933754Y-78475852D01*
X118669473Y-78475852D01*
X118671784Y-78388505D01*
X118633127Y-78073841D01*
X118528963Y-77810522D01*
X118363892Y-77602427D01*
X118142518Y-77453432D01*
X117869440Y-77367417D01*
X117549260Y-77348259D01*
X117446518Y-77355941D01*
G36*
X112381075Y-77196254D02*
X112158485Y-77267190D01*
X111987899Y-77392900D01*
X111859085Y-77578878D01*
X111840012Y-77618167D01*
X111782443Y-77810351D01*
X111761588Y-78034588D01*
X111777700Y-78255395D01*
X111831031Y-78437287D01*
X111834149Y-78443667D01*
X111908167Y-78591834D01*
X112426750Y-78576344D01*
X112665578Y-78571751D01*
X112827650Y-78577523D01*
X112920654Y-78597921D01*
X112952279Y-78637205D01*
X112930216Y-78699635D01*
X112862153Y-78789471D01*
X112845886Y-78808560D01*
X112772328Y-78877586D01*
X112682519Y-78917032D01*
X112546828Y-78938108D01*
X112491563Y-78942610D01*
X112303797Y-78944429D01*
X112107027Y-78928651D01*
X112013332Y-78913145D01*
X111887766Y-78888533D01*
X111802057Y-78876115D01*
X111779381Y-78876706D01*
X111771057Y-78921664D01*
X111760790Y-79025413D01*
X111753809Y-79120539D01*
X111747478Y-79254144D01*
X111758555Y-79328628D01*
X111798964Y-79369359D01*
X111880630Y-79401706D01*
X111887000Y-79403900D01*
X112069338Y-79441657D01*
X112301633Y-79454249D01*
X112553287Y-79442581D01*
X112793705Y-79407558D01*
X112928277Y-79373074D01*
X113215622Y-79244863D01*
X113440473Y-79065682D01*
X113598217Y-78842128D01*
X113684244Y-78580802D01*
X113693941Y-78288300D01*
X113692982Y-78278897D01*
X113683280Y-78228106D01*
X112962299Y-78228106D01*
X112954238Y-78252245D01*
X112900058Y-78263670D01*
X112791088Y-78264019D01*
X112656150Y-78255528D01*
X112524068Y-78240431D01*
X112423665Y-78220963D01*
X112391399Y-78208608D01*
X112359571Y-78146350D01*
X112355923Y-78040803D01*
X112379873Y-77928310D01*
X112396490Y-77890550D01*
X112470683Y-77830978D01*
X112587640Y-77808065D01*
X112712621Y-77824383D01*
X112787696Y-77861584D01*
X112848011Y-77931742D01*
X112905606Y-78035895D01*
X112947897Y-78144523D01*
X112962299Y-78228106D01*
X113683280Y-78228106D01*
X113626226Y-77929452D01*
X113507780Y-77644071D01*
X113339302Y-77424537D01*
X113122451Y-77272633D01*
X112858884Y-77190142D01*
X112665901Y-77174597D01*
X112381075Y-77196254D01*
X112381075Y-77196254D01*
G37*
X112381075Y-77196254D02*
X112158485Y-77267190D01*
X111987899Y-77392900D01*
X111859085Y-77578878D01*
X111840012Y-77618167D01*
X111782443Y-77810351D01*
X111761588Y-78034588D01*
X111777700Y-78255395D01*
X111831031Y-78437287D01*
X111834149Y-78443667D01*
X111908167Y-78591834D01*
X112426750Y-78576344D01*
X112665578Y-78571751D01*
X112827650Y-78577523D01*
X112920654Y-78597921D01*
X112952279Y-78637205D01*
X112930216Y-78699635D01*
X112862153Y-78789471D01*
X112845886Y-78808560D01*
X112772328Y-78877586D01*
X112682519Y-78917032D01*
X112546828Y-78938108D01*
X112491563Y-78942610D01*
X112303797Y-78944429D01*
X112107027Y-78928651D01*
X112013332Y-78913145D01*
X111887766Y-78888533D01*
X111802057Y-78876115D01*
X111779381Y-78876706D01*
X111771057Y-78921664D01*
X111760790Y-79025413D01*
X111753809Y-79120539D01*
X111747478Y-79254144D01*
X111758555Y-79328628D01*
X111798964Y-79369359D01*
X111880630Y-79401706D01*
X111887000Y-79403900D01*
X112069338Y-79441657D01*
X112301633Y-79454249D01*
X112553287Y-79442581D01*
X112793705Y-79407558D01*
X112928277Y-79373074D01*
X113215622Y-79244863D01*
X113440473Y-79065682D01*
X113598217Y-78842128D01*
X113684244Y-78580802D01*
X113693941Y-78288300D01*
X113692982Y-78278897D01*
X113683280Y-78228106D01*
X112962299Y-78228106D01*
X112954238Y-78252245D01*
X112900058Y-78263670D01*
X112791088Y-78264019D01*
X112656150Y-78255528D01*
X112524068Y-78240431D01*
X112423665Y-78220963D01*
X112391399Y-78208608D01*
X112359571Y-78146350D01*
X112355923Y-78040803D01*
X112379873Y-77928310D01*
X112396490Y-77890550D01*
X112470683Y-77830978D01*
X112587640Y-77808065D01*
X112712621Y-77824383D01*
X112787696Y-77861584D01*
X112848011Y-77931742D01*
X112905606Y-78035895D01*
X112947897Y-78144523D01*
X112962299Y-78228106D01*
X113683280Y-78228106D01*
X113626226Y-77929452D01*
X113507780Y-77644071D01*
X113339302Y-77424537D01*
X113122451Y-77272633D01*
X112858884Y-77190142D01*
X112665901Y-77174597D01*
X112381075Y-77196254D01*
G36*
X110832032Y-77188985D02*
X110752957Y-77218083D01*
X110714752Y-77273157D01*
X110702899Y-77360748D01*
X110702315Y-77393575D01*
X110701667Y-77507649D01*
X110470405Y-77401774D01*
X110267760Y-77328070D01*
X110082407Y-77307072D01*
X110036489Y-77308866D01*
X109833833Y-77321834D01*
X109821521Y-77622539D01*
X109809208Y-77923244D01*
X110065459Y-77950027D01*
X110240253Y-77980608D01*
X110410992Y-78030015D01*
X110494944Y-78065189D01*
X110668180Y-78153567D01*
X110640854Y-78626700D01*
X110627485Y-78836431D01*
X110612844Y-79031131D01*
X110598961Y-79185417D01*
X110590377Y-79258584D01*
X110567225Y-79417334D01*
X110734069Y-79417334D01*
X110872290Y-79421970D01*
X111046594Y-79433863D01*
X111155276Y-79443920D01*
X111293479Y-79452321D01*
X111394755Y-79447210D01*
X111432473Y-79433336D01*
X111441092Y-79381968D01*
X111452628Y-79258578D01*
X111466187Y-79075725D01*
X111480874Y-78845967D01*
X111495796Y-78581863D01*
X111502925Y-78443667D01*
X111517248Y-78158964D01*
X111530716Y-77894628D01*
X111542576Y-77665190D01*
X111552073Y-77485176D01*
X111558455Y-77369115D01*
X111560021Y-77343000D01*
X111569500Y-77194834D01*
X111170871Y-77182568D01*
X110966498Y-77179327D01*
X110832032Y-77188985D01*
X110832032Y-77188985D01*
G37*
X110832032Y-77188985D02*
X110752957Y-77218083D01*
X110714752Y-77273157D01*
X110702899Y-77360748D01*
X110702315Y-77393575D01*
X110701667Y-77507649D01*
X110470405Y-77401774D01*
X110267760Y-77328070D01*
X110082407Y-77307072D01*
X110036489Y-77308866D01*
X109833833Y-77321834D01*
X109821521Y-77622539D01*
X109809208Y-77923244D01*
X110065459Y-77950027D01*
X110240253Y-77980608D01*
X110410992Y-78030015D01*
X110494944Y-78065189D01*
X110668180Y-78153567D01*
X110640854Y-78626700D01*
X110627485Y-78836431D01*
X110612844Y-79031131D01*
X110598961Y-79185417D01*
X110590377Y-79258584D01*
X110567225Y-79417334D01*
X110734069Y-79417334D01*
X110872290Y-79421970D01*
X111046594Y-79433863D01*
X111155276Y-79443920D01*
X111293479Y-79452321D01*
X111394755Y-79447210D01*
X111432473Y-79433336D01*
X111441092Y-79381968D01*
X111452628Y-79258578D01*
X111466187Y-79075725D01*
X111480874Y-78845967D01*
X111495796Y-78581863D01*
X111502925Y-78443667D01*
X111517248Y-78158964D01*
X111530716Y-77894628D01*
X111542576Y-77665190D01*
X111552073Y-77485176D01*
X111558455Y-77369115D01*
X111560021Y-77343000D01*
X111569500Y-77194834D01*
X111170871Y-77182568D01*
X110966498Y-77179327D01*
X110832032Y-77188985D01*
G36*
X123972492Y-74348242D02*
X123961690Y-74473968D01*
X123956403Y-74652290D01*
X123957367Y-74851273D01*
X123959315Y-74919839D01*
X123961949Y-75089982D01*
X123957557Y-75222726D01*
X123947088Y-75299478D01*
X123939315Y-75311097D01*
X123882294Y-75292991D01*
X123786501Y-75248680D01*
X123769981Y-75240170D01*
X123622773Y-75192440D01*
X123427735Y-75170291D01*
X123380500Y-75169475D01*
X123101225Y-75204174D01*
X122871387Y-75306747D01*
X122692326Y-75475387D01*
X122565384Y-75708290D01*
X122491899Y-76003651D01*
X122473212Y-76359663D01*
X122474117Y-76390500D01*
X122476756Y-76517524D01*
X122478549Y-76713102D01*
X122479456Y-76961127D01*
X122479438Y-77245492D01*
X122478456Y-77550087D01*
X122477396Y-77734584D01*
X122470333Y-78782334D01*
X121154291Y-78782334D01*
X121166729Y-79089250D01*
X121179167Y-79396167D01*
X122285697Y-79407444D01*
X123392228Y-79418721D01*
X123420956Y-78920610D01*
X123431222Y-78658920D01*
X123435131Y-78366436D01*
X123432361Y-78088247D01*
X123427835Y-77956834D01*
X123406728Y-77501217D01*
X123389982Y-77122503D01*
X123377550Y-76813041D01*
X123369388Y-76565182D01*
X123365451Y-76371276D01*
X123365694Y-76223674D01*
X123370071Y-76114725D01*
X123378538Y-76036780D01*
X123391050Y-75982189D01*
X123407561Y-75943303D01*
X123415899Y-75929476D01*
X123518685Y-75824640D01*
X123646235Y-75795726D01*
X123800726Y-75836140D01*
X123952000Y-75899347D01*
X123952000Y-77300667D01*
X124798667Y-77300667D01*
X124798771Y-76655084D01*
X124800238Y-76403330D01*
X124804255Y-76093591D01*
X124810348Y-75752496D01*
X124818041Y-75406673D01*
X124826679Y-75088750D01*
X124854483Y-74168000D01*
X123999521Y-74168000D01*
X123972492Y-74348242D01*
X123972492Y-74348242D01*
G37*
X123972492Y-74348242D02*
X123961690Y-74473968D01*
X123956403Y-74652290D01*
X123957367Y-74851273D01*
X123959315Y-74919839D01*
X123961949Y-75089982D01*
X123957557Y-75222726D01*
X123947088Y-75299478D01*
X123939315Y-75311097D01*
X123882294Y-75292991D01*
X123786501Y-75248680D01*
X123769981Y-75240170D01*
X123622773Y-75192440D01*
X123427735Y-75170291D01*
X123380500Y-75169475D01*
X123101225Y-75204174D01*
X122871387Y-75306747D01*
X122692326Y-75475387D01*
X122565384Y-75708290D01*
X122491899Y-76003651D01*
X122473212Y-76359663D01*
X122474117Y-76390500D01*
X122476756Y-76517524D01*
X122478549Y-76713102D01*
X122479456Y-76961127D01*
X122479438Y-77245492D01*
X122478456Y-77550087D01*
X122477396Y-77734584D01*
X122470333Y-78782334D01*
X121154291Y-78782334D01*
X121166729Y-79089250D01*
X121179167Y-79396167D01*
X122285697Y-79407444D01*
X123392228Y-79418721D01*
X123420956Y-78920610D01*
X123431222Y-78658920D01*
X123435131Y-78366436D01*
X123432361Y-78088247D01*
X123427835Y-77956834D01*
X123406728Y-77501217D01*
X123389982Y-77122503D01*
X123377550Y-76813041D01*
X123369388Y-76565182D01*
X123365451Y-76371276D01*
X123365694Y-76223674D01*
X123370071Y-76114725D01*
X123378538Y-76036780D01*
X123391050Y-75982189D01*
X123407561Y-75943303D01*
X123415899Y-75929476D01*
X123518685Y-75824640D01*
X123646235Y-75795726D01*
X123800726Y-75836140D01*
X123952000Y-75899347D01*
X123952000Y-77300667D01*
X124798667Y-77300667D01*
X124798771Y-76655084D01*
X124800238Y-76403330D01*
X124804255Y-76093591D01*
X124810348Y-75752496D01*
X124818041Y-75406673D01*
X124826679Y-75088750D01*
X124854483Y-74168000D01*
X123999521Y-74168000D01*
X123972492Y-74348242D01*
G36*
X125480202Y-74728917D02*
X125451844Y-74894574D01*
X125425388Y-75038010D01*
X125406402Y-75129087D01*
X125405909Y-75131084D01*
X125398361Y-75186344D01*
X125423938Y-75214685D01*
X125501336Y-75225025D01*
X125605527Y-75226334D01*
X125969933Y-75249499D01*
X126278505Y-75317444D01*
X126525891Y-75427846D01*
X126706745Y-75578379D01*
X126809464Y-75749514D01*
X126858179Y-75976101D01*
X126830017Y-76181884D01*
X126730600Y-76355237D01*
X126565548Y-76484531D01*
X126427879Y-76538841D01*
X126207535Y-76571906D01*
X125948859Y-76567154D01*
X125687686Y-76527615D01*
X125461907Y-76457204D01*
X125339952Y-76407453D01*
X125250128Y-76375603D01*
X125222740Y-76369334D01*
X125196898Y-76407290D01*
X125163899Y-76505462D01*
X125128942Y-76640309D01*
X125097228Y-76788285D01*
X125073958Y-76925848D01*
X125064331Y-77029455D01*
X125068281Y-77068629D01*
X125117868Y-77123416D01*
X125214626Y-77189335D01*
X125253031Y-77210234D01*
X125493978Y-77299653D01*
X125788202Y-77356718D01*
X126109975Y-77379505D01*
X126433564Y-77366091D01*
X126713823Y-77319385D01*
X127024823Y-77218437D01*
X127281371Y-77074450D01*
X127489042Y-76893967D01*
X127678781Y-76640626D01*
X127798415Y-76351251D01*
X127846299Y-76039622D01*
X127820786Y-75719522D01*
X127720231Y-75404733D01*
X127677295Y-75317336D01*
X127581145Y-75160152D01*
X127471858Y-75015604D01*
X127383994Y-74925027D01*
X127094112Y-74731932D01*
X126746954Y-74580144D01*
X126362391Y-74476093D01*
X125960295Y-74426208D01*
X125831454Y-74422735D01*
X125530741Y-74422000D01*
X125480202Y-74728917D01*
X125480202Y-74728917D01*
G37*
X125480202Y-74728917D02*
X125451844Y-74894574D01*
X125425388Y-75038010D01*
X125406402Y-75129087D01*
X125405909Y-75131084D01*
X125398361Y-75186344D01*
X125423938Y-75214685D01*
X125501336Y-75225025D01*
X125605527Y-75226334D01*
X125969933Y-75249499D01*
X126278505Y-75317444D01*
X126525891Y-75427846D01*
X126706745Y-75578379D01*
X126809464Y-75749514D01*
X126858179Y-75976101D01*
X126830017Y-76181884D01*
X126730600Y-76355237D01*
X126565548Y-76484531D01*
X126427879Y-76538841D01*
X126207535Y-76571906D01*
X125948859Y-76567154D01*
X125687686Y-76527615D01*
X125461907Y-76457204D01*
X125339952Y-76407453D01*
X125250128Y-76375603D01*
X125222740Y-76369334D01*
X125196898Y-76407290D01*
X125163899Y-76505462D01*
X125128942Y-76640309D01*
X125097228Y-76788285D01*
X125073958Y-76925848D01*
X125064331Y-77029455D01*
X125068281Y-77068629D01*
X125117868Y-77123416D01*
X125214626Y-77189335D01*
X125253031Y-77210234D01*
X125493978Y-77299653D01*
X125788202Y-77356718D01*
X126109975Y-77379505D01*
X126433564Y-77366091D01*
X126713823Y-77319385D01*
X127024823Y-77218437D01*
X127281371Y-77074450D01*
X127489042Y-76893967D01*
X127678781Y-76640626D01*
X127798415Y-76351251D01*
X127846299Y-76039622D01*
X127820786Y-75719522D01*
X127720231Y-75404733D01*
X127677295Y-75317336D01*
X127581145Y-75160152D01*
X127471858Y-75015604D01*
X127383994Y-74925027D01*
X127094112Y-74731932D01*
X126746954Y-74580144D01*
X126362391Y-74476093D01*
X125960295Y-74426208D01*
X125831454Y-74422735D01*
X125530741Y-74422000D01*
X125480202Y-74728917D01*
G36*
X118428844Y-75257447D02*
X118146434Y-75351081D01*
X117919014Y-75507671D01*
X117908297Y-75517904D01*
X117745265Y-75730751D01*
X117645269Y-75979639D01*
X117607146Y-76247632D01*
X117629733Y-76517797D01*
X117711866Y-76773200D01*
X117852383Y-76996904D01*
X118020575Y-77152113D01*
X118112086Y-77212014D01*
X118196055Y-77250206D01*
X118296272Y-77272204D01*
X118436532Y-77283528D01*
X118610928Y-77289019D01*
X118887751Y-77286209D01*
X119090570Y-77262544D01*
X119185659Y-77235984D01*
X119436362Y-77104276D01*
X119627904Y-76924779D01*
X119728653Y-76758784D01*
X119773510Y-76637035D01*
X119796069Y-76510454D01*
X119800072Y-76348754D01*
X119799238Y-76327498D01*
X119057476Y-76327498D01*
X119056409Y-76426294D01*
X119039647Y-76479604D01*
X118982614Y-76590884D01*
X118904070Y-76645583D01*
X118778180Y-76658092D01*
X118723833Y-76655545D01*
X118606425Y-76637198D01*
X118532338Y-76585597D01*
X118471156Y-76488845D01*
X118417792Y-76321260D01*
X118443539Y-76174367D01*
X118546167Y-76057174D01*
X118583927Y-76033374D01*
X118728156Y-75993821D01*
X118863665Y-76033533D01*
X118977349Y-76147222D01*
X119010545Y-76205518D01*
X119057476Y-76327498D01*
X119799238Y-76327498D01*
X119795062Y-76221126D01*
X119748655Y-75899954D01*
X119646022Y-75642022D01*
X119486464Y-75446651D01*
X119269280Y-75313162D01*
X118993769Y-75240879D01*
X118767533Y-75226333D01*
X118428844Y-75257447D01*
X118428844Y-75257447D01*
G37*
X118428844Y-75257447D02*
X118146434Y-75351081D01*
X117919014Y-75507671D01*
X117908297Y-75517904D01*
X117745265Y-75730751D01*
X117645269Y-75979639D01*
X117607146Y-76247632D01*
X117629733Y-76517797D01*
X117711866Y-76773200D01*
X117852383Y-76996904D01*
X118020575Y-77152113D01*
X118112086Y-77212014D01*
X118196055Y-77250206D01*
X118296272Y-77272204D01*
X118436532Y-77283528D01*
X118610928Y-77289019D01*
X118887751Y-77286209D01*
X119090570Y-77262544D01*
X119185659Y-77235984D01*
X119436362Y-77104276D01*
X119627904Y-76924779D01*
X119728653Y-76758784D01*
X119773510Y-76637035D01*
X119796069Y-76510454D01*
X119800072Y-76348754D01*
X119799238Y-76327498D01*
X119057476Y-76327498D01*
X119056409Y-76426294D01*
X119039647Y-76479604D01*
X118982614Y-76590884D01*
X118904070Y-76645583D01*
X118778180Y-76658092D01*
X118723833Y-76655545D01*
X118606425Y-76637198D01*
X118532338Y-76585597D01*
X118471156Y-76488845D01*
X118417792Y-76321260D01*
X118443539Y-76174367D01*
X118546167Y-76057174D01*
X118583927Y-76033374D01*
X118728156Y-75993821D01*
X118863665Y-76033533D01*
X118977349Y-76147222D01*
X119010545Y-76205518D01*
X119057476Y-76327498D01*
X119799238Y-76327498D01*
X119795062Y-76221126D01*
X119748655Y-75899954D01*
X119646022Y-75642022D01*
X119486464Y-75446651D01*
X119269280Y-75313162D01*
X118993769Y-75240879D01*
X118767533Y-75226333D01*
X118428844Y-75257447D01*
D13*
X137220000Y-90020000D02*
X137220000Y-77820000D01*
X142820000Y-90020000D02*
X137220000Y-90020000D01*
X142820000Y-77820000D02*
X142820000Y-90020000D01*
X137220000Y-77820000D02*
X142820000Y-77820000D01*
X138520000Y-86920000D02*
X138520000Y-80920000D01*
X141520000Y-86920000D02*
X138520000Y-86920000D01*
X141520000Y-80920000D02*
X141520000Y-86920000D01*
X138520000Y-80920000D02*
X141520000Y-80920000D01*
X138520000Y-83920000D02*
X141520000Y-83920000D01*
X137130000Y-122380000D02*
X137130000Y-110180000D01*
X142730000Y-122380000D02*
X137130000Y-122380000D01*
X142730000Y-110180000D02*
X142730000Y-122380000D01*
X137130000Y-110180000D02*
X142730000Y-110180000D01*
X138430000Y-119280000D02*
X138430000Y-113280000D01*
X141430000Y-119280000D02*
X138430000Y-119280000D01*
X141430000Y-113280000D02*
X141430000Y-119280000D01*
X138430000Y-113280000D02*
X141430000Y-113280000D01*
X138430000Y-116280000D02*
X141430000Y-116280000D01*
X141414333Y-88542762D02*
X141271476Y-88590381D01*
X141033380Y-88590381D01*
X140938142Y-88542762D01*
X140890523Y-88495143D01*
X140842904Y-88399905D01*
X140842904Y-88304667D01*
X140890523Y-88209429D01*
X140938142Y-88161810D01*
X141033380Y-88114190D01*
X141223857Y-88066571D01*
X141319095Y-88018952D01*
X141366714Y-87971333D01*
X141414333Y-87876095D01*
X141414333Y-87780857D01*
X141366714Y-87685619D01*
X141319095Y-87638000D01*
X141223857Y-87590381D01*
X140985761Y-87590381D01*
X140842904Y-87638000D01*
X140509571Y-87590381D02*
X140271476Y-88590381D01*
X140080999Y-87876095D01*
X139890523Y-88590381D01*
X139652428Y-87590381D01*
X139319095Y-87685619D02*
X139271476Y-87638000D01*
X139176238Y-87590381D01*
X138938142Y-87590381D01*
X138842904Y-87638000D01*
X138795285Y-87685619D01*
X138747666Y-87780857D01*
X138747666Y-87876095D01*
X138795285Y-88018952D01*
X139366714Y-88590381D01*
X138747666Y-88590381D01*
X141324333Y-120902762D02*
X141181476Y-120950381D01*
X140943380Y-120950381D01*
X140848142Y-120902762D01*
X140800523Y-120855143D01*
X140752904Y-120759905D01*
X140752904Y-120664667D01*
X140800523Y-120569429D01*
X140848142Y-120521810D01*
X140943380Y-120474190D01*
X141133857Y-120426571D01*
X141229095Y-120378952D01*
X141276714Y-120331333D01*
X141324333Y-120236095D01*
X141324333Y-120140857D01*
X141276714Y-120045619D01*
X141229095Y-119998000D01*
X141133857Y-119950381D01*
X140895761Y-119950381D01*
X140752904Y-119998000D01*
X140419571Y-119950381D02*
X140181476Y-120950381D01*
X139990999Y-120236095D01*
X139800523Y-120950381D01*
X139562428Y-119950381D01*
X138657666Y-120950381D02*
X139229095Y-120950381D01*
X138943381Y-120950381D02*
X138943381Y-119950381D01*
X139038619Y-120093238D01*
X139133857Y-120188476D01*
X139229095Y-120236095D01*
M02*
