G04 #@! TF.FileFunction,Soldermask,Top*
%FSLAX46Y46*%
G04 Gerber Fmt 4.6, Leading zero omitted, Abs format (unit mm)*
G04 Created by KiCad (PCBNEW 4.0.7-e2-6376~58~ubuntu16.04.1) date Fri Apr 20 13:11:04 2018*
%MOMM*%
%LPD*%
G01*
G04 APERTURE LIST*
%ADD10C,0.100000*%
%ADD11C,0.010000*%
%ADD12R,2.000000X2.400000*%
%ADD13R,2.400000X2.000000*%
%ADD14R,2.100000X2.400000*%
%ADD15R,2.400000X2.100000*%
%ADD16R,3.150000X3.300000*%
%ADD17R,2.950000X2.800000*%
%ADD18C,2.000000*%
%ADD19R,2.000000X3.600000*%
%ADD20R,2.400000X3.000000*%
%ADD21R,3.600000X2.400000*%
%ADD22C,2.200000*%
%ADD23C,3.600000*%
%ADD24C,7.400000*%
%ADD25R,7.400000X4.400000*%
%ADD26C,0.254000*%
G04 APERTURE END LIST*
D10*
D11*
G36*
X104363747Y-125128400D02*
X104909059Y-125128400D01*
X104710279Y-125329787D01*
X104380571Y-125692691D01*
X104166151Y-125966815D01*
X104087703Y-126070400D01*
X103993144Y-126190529D01*
X103893050Y-126314202D01*
X103797998Y-126428419D01*
X103718566Y-126520181D01*
X103693468Y-126547760D01*
X103612036Y-126635212D01*
X103681994Y-126726356D01*
X103817436Y-126915604D01*
X103904978Y-127055050D01*
X103959848Y-127137286D01*
X104021124Y-127216612D01*
X104026273Y-127222607D01*
X104095222Y-127305581D01*
X104175747Y-127408137D01*
X104258942Y-127518288D01*
X104335902Y-127624047D01*
X104397719Y-127713425D01*
X104433376Y-127770547D01*
X104468457Y-127823596D01*
X104526986Y-127902062D01*
X104598820Y-127993252D01*
X104673815Y-128084472D01*
X104741828Y-128163032D01*
X104778200Y-128202020D01*
X104802089Y-128228081D01*
X104844363Y-128275406D01*
X104852477Y-128284570D01*
X104914055Y-128354200D01*
X103787600Y-128354200D01*
X103787600Y-128275923D01*
X103770837Y-128199395D01*
X103723607Y-128094149D01*
X103650493Y-127968239D01*
X103556081Y-127829716D01*
X103468542Y-127715533D01*
X103397268Y-127623313D01*
X103331947Y-127532269D01*
X103284777Y-127459535D01*
X103278671Y-127448833D01*
X103238629Y-127382434D01*
X103203342Y-127334284D01*
X103194699Y-127325500D01*
X103160138Y-127286816D01*
X103119915Y-127230250D01*
X103082226Y-127182093D01*
X103051715Y-127160487D01*
X103050414Y-127160400D01*
X103041538Y-127185091D01*
X103034418Y-127256381D01*
X103029264Y-127370092D01*
X103026283Y-127522044D01*
X103025600Y-127656961D01*
X103026284Y-127836263D01*
X103028695Y-127972270D01*
X103033375Y-128072475D01*
X103040863Y-128144369D01*
X103051698Y-128195443D01*
X103066421Y-128233188D01*
X103067244Y-128234811D01*
X103102717Y-128294491D01*
X103134223Y-128332618D01*
X103137094Y-128334761D01*
X103121597Y-128340323D01*
X103062247Y-128345262D01*
X102965986Y-128349312D01*
X102839759Y-128352207D01*
X102690511Y-128353682D01*
X102638794Y-128353811D01*
X102112289Y-128354200D01*
X102141968Y-128284350D01*
X102170141Y-128225758D01*
X102192224Y-128190370D01*
X102196057Y-128161142D01*
X102199657Y-128085781D01*
X102202959Y-127968951D01*
X102205896Y-127815317D01*
X102208399Y-127629546D01*
X102210404Y-127416302D01*
X102211842Y-127180251D01*
X102212647Y-126926059D01*
X102212799Y-126754290D01*
X102212741Y-126450311D01*
X102212470Y-126192912D01*
X102211846Y-125977874D01*
X102210726Y-125800978D01*
X102208969Y-125658004D01*
X102206433Y-125544733D01*
X102202976Y-125456945D01*
X102198457Y-125390421D01*
X102192733Y-125340941D01*
X102185662Y-125304286D01*
X102177104Y-125276237D01*
X102166916Y-125252574D01*
X102161999Y-125242699D01*
X102131244Y-125180869D01*
X102113190Y-125141660D01*
X102111199Y-125135729D01*
X102135335Y-125133507D01*
X102202688Y-125131556D01*
X102305672Y-125129984D01*
X102436706Y-125128901D01*
X102588205Y-125128415D01*
X102621917Y-125128400D01*
X102795060Y-125128664D01*
X102923629Y-125129831D01*
X103013846Y-125132464D01*
X103071937Y-125137123D01*
X103104124Y-125144372D01*
X103116632Y-125154772D01*
X103115686Y-125168885D01*
X103114164Y-125172850D01*
X103080805Y-125261673D01*
X103056739Y-125350181D01*
X103040580Y-125449141D01*
X103030942Y-125569321D01*
X103026440Y-125721488D01*
X103025600Y-125861088D01*
X103025599Y-126280904D01*
X103101799Y-126207900D01*
X103149413Y-126157557D01*
X103175994Y-126120278D01*
X103178000Y-126113483D01*
X103193137Y-126087550D01*
X103232628Y-126034128D01*
X103287588Y-125964145D01*
X103349132Y-125888529D01*
X103408377Y-125818209D01*
X103456439Y-125764114D01*
X103483239Y-125738000D01*
X103505561Y-125710734D01*
X103543936Y-125654630D01*
X103571802Y-125611000D01*
X103630005Y-125523298D01*
X103692951Y-125436698D01*
X103715299Y-125408362D01*
X103760013Y-125341736D01*
X103785408Y-125280643D01*
X103787600Y-125264390D01*
X103788122Y-125220677D01*
X103793791Y-125187502D01*
X103810762Y-125163412D01*
X103845189Y-125146955D01*
X103903226Y-125136677D01*
X103991028Y-125131127D01*
X104114750Y-125128851D01*
X104280545Y-125128396D01*
X104363747Y-125128400D01*
X104363747Y-125128400D01*
G37*
X104363747Y-125128400D02*
X104909059Y-125128400D01*
X104710279Y-125329787D01*
X104380571Y-125692691D01*
X104166151Y-125966815D01*
X104087703Y-126070400D01*
X103993144Y-126190529D01*
X103893050Y-126314202D01*
X103797998Y-126428419D01*
X103718566Y-126520181D01*
X103693468Y-126547760D01*
X103612036Y-126635212D01*
X103681994Y-126726356D01*
X103817436Y-126915604D01*
X103904978Y-127055050D01*
X103959848Y-127137286D01*
X104021124Y-127216612D01*
X104026273Y-127222607D01*
X104095222Y-127305581D01*
X104175747Y-127408137D01*
X104258942Y-127518288D01*
X104335902Y-127624047D01*
X104397719Y-127713425D01*
X104433376Y-127770547D01*
X104468457Y-127823596D01*
X104526986Y-127902062D01*
X104598820Y-127993252D01*
X104673815Y-128084472D01*
X104741828Y-128163032D01*
X104778200Y-128202020D01*
X104802089Y-128228081D01*
X104844363Y-128275406D01*
X104852477Y-128284570D01*
X104914055Y-128354200D01*
X103787600Y-128354200D01*
X103787600Y-128275923D01*
X103770837Y-128199395D01*
X103723607Y-128094149D01*
X103650493Y-127968239D01*
X103556081Y-127829716D01*
X103468542Y-127715533D01*
X103397268Y-127623313D01*
X103331947Y-127532269D01*
X103284777Y-127459535D01*
X103278671Y-127448833D01*
X103238629Y-127382434D01*
X103203342Y-127334284D01*
X103194699Y-127325500D01*
X103160138Y-127286816D01*
X103119915Y-127230250D01*
X103082226Y-127182093D01*
X103051715Y-127160487D01*
X103050414Y-127160400D01*
X103041538Y-127185091D01*
X103034418Y-127256381D01*
X103029264Y-127370092D01*
X103026283Y-127522044D01*
X103025600Y-127656961D01*
X103026284Y-127836263D01*
X103028695Y-127972270D01*
X103033375Y-128072475D01*
X103040863Y-128144369D01*
X103051698Y-128195443D01*
X103066421Y-128233188D01*
X103067244Y-128234811D01*
X103102717Y-128294491D01*
X103134223Y-128332618D01*
X103137094Y-128334761D01*
X103121597Y-128340323D01*
X103062247Y-128345262D01*
X102965986Y-128349312D01*
X102839759Y-128352207D01*
X102690511Y-128353682D01*
X102638794Y-128353811D01*
X102112289Y-128354200D01*
X102141968Y-128284350D01*
X102170141Y-128225758D01*
X102192224Y-128190370D01*
X102196057Y-128161142D01*
X102199657Y-128085781D01*
X102202959Y-127968951D01*
X102205896Y-127815317D01*
X102208399Y-127629546D01*
X102210404Y-127416302D01*
X102211842Y-127180251D01*
X102212647Y-126926059D01*
X102212799Y-126754290D01*
X102212741Y-126450311D01*
X102212470Y-126192912D01*
X102211846Y-125977874D01*
X102210726Y-125800978D01*
X102208969Y-125658004D01*
X102206433Y-125544733D01*
X102202976Y-125456945D01*
X102198457Y-125390421D01*
X102192733Y-125340941D01*
X102185662Y-125304286D01*
X102177104Y-125276237D01*
X102166916Y-125252574D01*
X102161999Y-125242699D01*
X102131244Y-125180869D01*
X102113190Y-125141660D01*
X102111199Y-125135729D01*
X102135335Y-125133507D01*
X102202688Y-125131556D01*
X102305672Y-125129984D01*
X102436706Y-125128901D01*
X102588205Y-125128415D01*
X102621917Y-125128400D01*
X102795060Y-125128664D01*
X102923629Y-125129831D01*
X103013846Y-125132464D01*
X103071937Y-125137123D01*
X103104124Y-125144372D01*
X103116632Y-125154772D01*
X103115686Y-125168885D01*
X103114164Y-125172850D01*
X103080805Y-125261673D01*
X103056739Y-125350181D01*
X103040580Y-125449141D01*
X103030942Y-125569321D01*
X103026440Y-125721488D01*
X103025600Y-125861088D01*
X103025599Y-126280904D01*
X103101799Y-126207900D01*
X103149413Y-126157557D01*
X103175994Y-126120278D01*
X103178000Y-126113483D01*
X103193137Y-126087550D01*
X103232628Y-126034128D01*
X103287588Y-125964145D01*
X103349132Y-125888529D01*
X103408377Y-125818209D01*
X103456439Y-125764114D01*
X103483239Y-125738000D01*
X103505561Y-125710734D01*
X103543936Y-125654630D01*
X103571802Y-125611000D01*
X103630005Y-125523298D01*
X103692951Y-125436698D01*
X103715299Y-125408362D01*
X103760013Y-125341736D01*
X103785408Y-125280643D01*
X103787600Y-125264390D01*
X103788122Y-125220677D01*
X103793791Y-125187502D01*
X103810762Y-125163412D01*
X103845189Y-125146955D01*
X103903226Y-125136677D01*
X103991028Y-125131127D01*
X104114750Y-125128851D01*
X104280545Y-125128396D01*
X104363747Y-125128400D01*
G36*
X105946600Y-127092045D02*
X105946821Y-127363528D01*
X105947583Y-127588618D01*
X105949026Y-127771721D01*
X105951294Y-127917240D01*
X105954531Y-128029583D01*
X105958878Y-128113155D01*
X105964480Y-128172359D01*
X105971478Y-128211603D01*
X105980016Y-128235292D01*
X105983892Y-128241395D01*
X106010178Y-128278943D01*
X106020891Y-128307085D01*
X106010710Y-128327174D01*
X105974312Y-128340563D01*
X105906376Y-128348605D01*
X105801578Y-128352653D01*
X105654598Y-128354060D01*
X105540200Y-128354200D01*
X105389918Y-128353515D01*
X105258727Y-128351608D01*
X105154427Y-128348702D01*
X105084819Y-128345017D01*
X105057705Y-128340776D01*
X105057600Y-128340488D01*
X105068155Y-128311454D01*
X105094726Y-128254509D01*
X105108400Y-128227200D01*
X105121266Y-128199760D01*
X105131759Y-128169394D01*
X105140120Y-128130920D01*
X105146591Y-128079155D01*
X105151411Y-128008918D01*
X105154822Y-127915027D01*
X105157065Y-127792301D01*
X105158381Y-127635559D01*
X105159010Y-127439617D01*
X105159195Y-127199296D01*
X105159200Y-127134750D01*
X105158947Y-126877269D01*
X105158071Y-126665749D01*
X105156396Y-126495351D01*
X105153748Y-126361238D01*
X105149950Y-126258571D01*
X105144827Y-126182513D01*
X105138203Y-126128226D01*
X105129903Y-126090872D01*
X105120447Y-126066938D01*
X105081695Y-125992000D01*
X105946600Y-125992000D01*
X105946600Y-127092045D01*
X105946600Y-127092045D01*
G37*
X105946600Y-127092045D02*
X105946821Y-127363528D01*
X105947583Y-127588618D01*
X105949026Y-127771721D01*
X105951294Y-127917240D01*
X105954531Y-128029583D01*
X105958878Y-128113155D01*
X105964480Y-128172359D01*
X105971478Y-128211603D01*
X105980016Y-128235292D01*
X105983892Y-128241395D01*
X106010178Y-128278943D01*
X106020891Y-128307085D01*
X106010710Y-128327174D01*
X105974312Y-128340563D01*
X105906376Y-128348605D01*
X105801578Y-128352653D01*
X105654598Y-128354060D01*
X105540200Y-128354200D01*
X105389918Y-128353515D01*
X105258727Y-128351608D01*
X105154427Y-128348702D01*
X105084819Y-128345017D01*
X105057705Y-128340776D01*
X105057600Y-128340488D01*
X105068155Y-128311454D01*
X105094726Y-128254509D01*
X105108400Y-128227200D01*
X105121266Y-128199760D01*
X105131759Y-128169394D01*
X105140120Y-128130920D01*
X105146591Y-128079155D01*
X105151411Y-128008918D01*
X105154822Y-127915027D01*
X105157065Y-127792301D01*
X105158381Y-127635559D01*
X105159010Y-127439617D01*
X105159195Y-127199296D01*
X105159200Y-127134750D01*
X105158947Y-126877269D01*
X105158071Y-126665749D01*
X105156396Y-126495351D01*
X105153748Y-126361238D01*
X105149950Y-126258571D01*
X105144827Y-126182513D01*
X105138203Y-126128226D01*
X105129903Y-126090872D01*
X105120447Y-126066938D01*
X105081695Y-125992000D01*
X105946600Y-125992000D01*
X105946600Y-127092045D01*
G36*
X105705941Y-124225960D02*
X105823545Y-124292395D01*
X105917023Y-124395045D01*
X105960812Y-124481124D01*
X105991422Y-124619614D01*
X105982321Y-124757591D01*
X105934973Y-124879084D01*
X105922588Y-124897850D01*
X105832149Y-124985408D01*
X105713271Y-125045553D01*
X105580333Y-125075418D01*
X105447713Y-125072134D01*
X105329790Y-125032832D01*
X105309006Y-125020244D01*
X105226737Y-124941394D01*
X105158914Y-124832770D01*
X105116747Y-124715295D01*
X105108400Y-124645799D01*
X105127674Y-124536575D01*
X105178190Y-124422110D01*
X105248982Y-124323158D01*
X105304642Y-124274295D01*
X105436861Y-124213876D01*
X105573837Y-124198776D01*
X105705941Y-124225960D01*
X105705941Y-124225960D01*
G37*
X105705941Y-124225960D02*
X105823545Y-124292395D01*
X105917023Y-124395045D01*
X105960812Y-124481124D01*
X105991422Y-124619614D01*
X105982321Y-124757591D01*
X105934973Y-124879084D01*
X105922588Y-124897850D01*
X105832149Y-124985408D01*
X105713271Y-125045553D01*
X105580333Y-125075418D01*
X105447713Y-125072134D01*
X105329790Y-125032832D01*
X105309006Y-125020244D01*
X105226737Y-124941394D01*
X105158914Y-124832770D01*
X105116747Y-124715295D01*
X105108400Y-124645799D01*
X105127674Y-124536575D01*
X105178190Y-124422110D01*
X105248982Y-124323158D01*
X105304642Y-124274295D01*
X105436861Y-124213876D01*
X105573837Y-124198776D01*
X105705941Y-124225960D01*
D12*
X133604000Y-116046000D03*
X133604000Y-112046000D03*
X146558000Y-115792000D03*
X146558000Y-111792000D03*
X147828000Y-123666000D03*
X147828000Y-119666000D03*
X147828000Y-83852000D03*
X147828000Y-87852000D03*
D13*
X164370000Y-104902000D03*
X168370000Y-104902000D03*
D12*
X146050000Y-77946000D03*
X146050000Y-73946000D03*
D13*
X120110000Y-81788000D03*
X116110000Y-81788000D03*
D12*
X170500000Y-88250000D03*
X170500000Y-92250000D03*
D14*
X129286000Y-116046000D03*
X129286000Y-112046000D03*
X132334000Y-87884000D03*
X132334000Y-83884000D03*
X135382000Y-83820000D03*
X135382000Y-87820000D03*
X152908000Y-104870000D03*
X152908000Y-100870000D03*
X144780000Y-83852000D03*
X144780000Y-87852000D03*
D15*
X116110000Y-78740000D03*
X120110000Y-78740000D03*
D14*
X133604000Y-73946000D03*
X133604000Y-77946000D03*
D16*
X104425000Y-80700000D03*
D17*
X104325000Y-71400000D03*
X111675000Y-73300000D03*
D18*
X108000000Y-72500000D03*
X108000000Y-79500000D03*
D16*
X168425000Y-80700000D03*
D17*
X168325000Y-71400000D03*
X175675000Y-73300000D03*
D18*
X172000000Y-72500000D03*
X172000000Y-79500000D03*
D19*
X131110000Y-93650000D03*
X133650000Y-93650000D03*
X136190000Y-93650000D03*
X138730000Y-93650000D03*
X141270000Y-93650000D03*
X143810000Y-93650000D03*
X146350000Y-93650000D03*
X148890000Y-93650000D03*
X148890000Y-106350000D03*
X146350000Y-106350000D03*
X143810000Y-106350000D03*
X141270000Y-106350000D03*
X138730000Y-106350000D03*
X136190000Y-106350000D03*
X131110000Y-106350000D03*
X133650000Y-106350000D03*
D20*
X137190000Y-73600000D03*
X142790000Y-73600000D03*
D21*
X140020000Y-78070000D03*
X140020000Y-89770000D03*
D22*
X140020000Y-86920000D03*
X140020000Y-80920000D03*
X140020000Y-83920000D03*
D21*
X139930000Y-110430000D03*
X139930000Y-122130000D03*
D22*
X139930000Y-119280000D03*
X139930000Y-113280000D03*
X139930000Y-116280000D03*
D23*
X171500000Y-111000000D03*
X171500000Y-121000000D03*
X171500000Y-116000000D03*
D24*
X158400000Y-115900000D03*
D23*
X121000000Y-113000000D03*
X111000000Y-113000000D03*
X116000000Y-113000000D03*
D24*
X116100000Y-99900000D03*
D23*
X163500000Y-97000000D03*
X153500000Y-97000000D03*
X158500000Y-97000000D03*
D24*
X158600000Y-83900000D03*
D25*
X190050000Y-129500000D03*
X190050000Y-70500000D03*
X200950000Y-129500000D03*
X200950000Y-70500000D03*
D18*
X185025000Y-123250000D03*
D25*
X89950000Y-70500000D03*
X89950000Y-129500000D03*
X79050000Y-70500000D03*
X79050000Y-129500000D03*
D18*
X94975000Y-76750000D03*
D26*
G36*
X140348065Y-72574682D02*
X140358953Y-72579037D01*
X140386178Y-72586314D01*
X140585904Y-72760544D01*
X140776392Y-73025368D01*
X140916265Y-73379713D01*
X140948598Y-73740000D01*
X140870960Y-74146460D01*
X140610179Y-74501662D01*
X140344776Y-74645240D01*
X139885319Y-74715565D01*
X139429502Y-74664919D01*
X139188614Y-74505761D01*
X138908975Y-74137570D01*
X138754520Y-73697607D01*
X138740704Y-73200239D01*
X138890758Y-72895718D01*
X139133203Y-72644457D01*
X139463221Y-72546344D01*
X139928979Y-72517534D01*
X140348065Y-72574682D01*
X140348065Y-72574682D01*
G37*
X140348065Y-72574682D02*
X140358953Y-72579037D01*
X140386178Y-72586314D01*
X140585904Y-72760544D01*
X140776392Y-73025368D01*
X140916265Y-73379713D01*
X140948598Y-73740000D01*
X140870960Y-74146460D01*
X140610179Y-74501662D01*
X140344776Y-74645240D01*
X139885319Y-74715565D01*
X139429502Y-74664919D01*
X139188614Y-74505761D01*
X138908975Y-74137570D01*
X138754520Y-73697607D01*
X138740704Y-73200239D01*
X138890758Y-72895718D01*
X139133203Y-72644457D01*
X139463221Y-72546344D01*
X139928979Y-72517534D01*
X140348065Y-72574682D01*
M02*
