G04 #@! TF.FileFunction,Copper,L2,Bot,Signal*
%FSLAX46Y46*%
G04 Gerber Fmt 4.6, Leading zero omitted, Abs format (unit mm)*
G04 Created by KiCad (PCBNEW 4.0.7-e2-6376~58~ubuntu16.04.1) date Sun Feb 25 03:24:25 2018*
%MOMM*%
%LPD*%
G01*
G04 APERTURE LIST*
%ADD10C,0.100000*%
%ADD11C,0.010000*%
%ADD12R,3.200000X2.000000*%
%ADD13C,1.800000*%
%ADD14C,1.600000*%
%ADD15C,1.000000*%
%ADD16C,0.500000*%
%ADD17C,0.254000*%
G04 APERTURE END LIST*
D10*
D11*
G36*
X99444666Y-67615000D02*
X100754951Y-68927333D01*
X115406382Y-68927333D01*
X116716666Y-67615000D01*
X118026951Y-66302667D01*
X162057715Y-66302667D01*
X163368000Y-67615000D01*
X164678284Y-68927333D01*
X179329715Y-68927333D01*
X180640000Y-67615000D01*
X181950284Y-66302667D01*
X205745651Y-66302667D01*
X207078159Y-67637129D01*
X208410666Y-68971592D01*
X208410666Y-131116985D01*
X207076203Y-132449492D01*
X205741741Y-133782000D01*
X181950284Y-133782000D01*
X180639999Y-132469667D01*
X179329715Y-131157333D01*
X165061333Y-131157333D01*
X165061333Y-129294667D01*
X179414382Y-129294667D01*
X180724666Y-130607000D01*
X182034951Y-131919333D01*
X205664784Y-131919333D01*
X206106392Y-131472171D01*
X206548000Y-131025008D01*
X206548000Y-69048549D01*
X206100837Y-68606941D01*
X205653675Y-68165333D01*
X182034951Y-68165333D01*
X180724666Y-69477667D01*
X179414382Y-70790000D01*
X164593617Y-70790000D01*
X163283333Y-69477667D01*
X161973048Y-68165333D01*
X118196284Y-68165333D01*
X116886000Y-69477667D01*
X115575715Y-70790000D01*
X100670284Y-70790000D01*
X99359999Y-69477666D01*
X98049715Y-68165333D01*
X86280024Y-68166531D01*
X74510333Y-68167728D01*
X74023500Y-68596878D01*
X73536666Y-69026027D01*
X73536666Y-131036118D01*
X73983829Y-131477725D01*
X74430991Y-131919333D01*
X98049715Y-131919333D01*
X99360000Y-130607000D01*
X100670284Y-129294667D01*
X109435333Y-129294667D01*
X109435333Y-131157333D01*
X100754951Y-131157333D01*
X99444666Y-132469667D01*
X98134382Y-133782000D01*
X74339015Y-133782000D01*
X73006507Y-132447537D01*
X71674000Y-131113074D01*
X71674000Y-68967682D01*
X73008462Y-67635174D01*
X74342925Y-66302667D01*
X98134382Y-66302667D01*
X99444666Y-67615000D01*
X99444666Y-67615000D01*
G37*
X99444666Y-67615000D02*
X100754951Y-68927333D01*
X115406382Y-68927333D01*
X116716666Y-67615000D01*
X118026951Y-66302667D01*
X162057715Y-66302667D01*
X163368000Y-67615000D01*
X164678284Y-68927333D01*
X179329715Y-68927333D01*
X180640000Y-67615000D01*
X181950284Y-66302667D01*
X205745651Y-66302667D01*
X207078159Y-67637129D01*
X208410666Y-68971592D01*
X208410666Y-131116985D01*
X207076203Y-132449492D01*
X205741741Y-133782000D01*
X181950284Y-133782000D01*
X180639999Y-132469667D01*
X179329715Y-131157333D01*
X165061333Y-131157333D01*
X165061333Y-129294667D01*
X179414382Y-129294667D01*
X180724666Y-130607000D01*
X182034951Y-131919333D01*
X205664784Y-131919333D01*
X206106392Y-131472171D01*
X206548000Y-131025008D01*
X206548000Y-69048549D01*
X206100837Y-68606941D01*
X205653675Y-68165333D01*
X182034951Y-68165333D01*
X180724666Y-69477667D01*
X179414382Y-70790000D01*
X164593617Y-70790000D01*
X163283333Y-69477667D01*
X161973048Y-68165333D01*
X118196284Y-68165333D01*
X116886000Y-69477667D01*
X115575715Y-70790000D01*
X100670284Y-70790000D01*
X99359999Y-69477666D01*
X98049715Y-68165333D01*
X86280024Y-68166531D01*
X74510333Y-68167728D01*
X74023500Y-68596878D01*
X73536666Y-69026027D01*
X73536666Y-131036118D01*
X73983829Y-131477725D01*
X74430991Y-131919333D01*
X98049715Y-131919333D01*
X99360000Y-130607000D01*
X100670284Y-129294667D01*
X109435333Y-129294667D01*
X109435333Y-131157333D01*
X100754951Y-131157333D01*
X99444666Y-132469667D01*
X98134382Y-133782000D01*
X74339015Y-133782000D01*
X73006507Y-132447537D01*
X71674000Y-131113074D01*
X71674000Y-68967682D01*
X73008462Y-67635174D01*
X74342925Y-66302667D01*
X98134382Y-66302667D01*
X99444666Y-67615000D01*
G36*
X115446666Y-131157333D02*
X110620666Y-131157333D01*
X110620666Y-121082000D01*
X115446666Y-121082000D01*
X115446666Y-131157333D01*
X115446666Y-131157333D01*
G37*
X115446666Y-131157333D02*
X110620666Y-131157333D01*
X110620666Y-121082000D01*
X115446666Y-121082000D01*
X115446666Y-131157333D01*
G36*
X121458000Y-131157333D02*
X116632000Y-131157333D01*
X116632000Y-121082000D01*
X121458000Y-121082000D01*
X121458000Y-131157333D01*
X121458000Y-131157333D01*
G37*
X121458000Y-131157333D02*
X116632000Y-131157333D01*
X116632000Y-121082000D01*
X121458000Y-121082000D01*
X121458000Y-131157333D01*
G36*
X137269500Y-129315593D02*
X151895666Y-129337000D01*
X151919697Y-130247167D01*
X151943728Y-131157333D01*
X122643333Y-131157333D01*
X122643333Y-129294187D01*
X137269500Y-129315593D01*
X137269500Y-129315593D01*
G37*
X137269500Y-129315593D02*
X151895666Y-129337000D01*
X151919697Y-130247167D01*
X151943728Y-131157333D01*
X122643333Y-131157333D01*
X122643333Y-129294187D01*
X137269500Y-129315593D01*
G36*
X157949333Y-127757144D02*
X157952793Y-128045477D01*
X157962333Y-128457829D01*
X157976690Y-128949043D01*
X157994602Y-129473964D01*
X158004962Y-129746811D01*
X158060592Y-131157333D01*
X153038666Y-131157333D01*
X153038666Y-127178000D01*
X157949333Y-127178000D01*
X157949333Y-127757144D01*
X157949333Y-127757144D01*
G37*
X157949333Y-127757144D02*
X157952793Y-128045477D01*
X157962333Y-128457829D01*
X157976690Y-128949043D01*
X157994602Y-129473964D01*
X158004962Y-129746811D01*
X158060592Y-131157333D01*
X153038666Y-131157333D01*
X153038666Y-127178000D01*
X157949333Y-127178000D01*
X157949333Y-127757144D01*
G36*
X163960666Y-131157333D02*
X159134666Y-131157333D01*
X159134666Y-127178000D01*
X163960666Y-127178000D01*
X163960666Y-131157333D01*
X163960666Y-131157333D01*
G37*
X163960666Y-131157333D02*
X159134666Y-131157333D01*
X159134666Y-127178000D01*
X163960666Y-127178000D01*
X163960666Y-131157333D01*
D12*
X139930000Y-110430000D03*
X139930000Y-122130000D03*
D13*
X139930000Y-118820000D03*
X139930000Y-113740000D03*
X139930000Y-116280000D03*
D12*
X140020000Y-78070000D03*
X140020000Y-89770000D03*
D13*
X140020000Y-86460000D03*
X140020000Y-81380000D03*
X140020000Y-83920000D03*
D14*
X108000000Y-72500000D03*
X108000000Y-79500000D03*
X172000000Y-72500000D03*
X172000000Y-79500000D03*
D15*
X112903000Y-122428000D03*
X116000000Y-109440000D03*
X144780000Y-78486000D03*
X144780000Y-82042000D03*
X127000000Y-83820000D03*
X130048000Y-83820000D03*
X141224000Y-95504000D03*
X141224000Y-100076000D03*
X119126000Y-122555000D03*
X148844000Y-95758000D03*
X146304000Y-95758000D03*
X144526000Y-90932000D03*
X164338000Y-100330000D03*
X116713000Y-118110000D03*
X121666000Y-118110000D03*
D16*
X144780000Y-82042000D02*
X144780000Y-78486000D01*
X130048000Y-83820000D02*
X127000000Y-83820000D01*
X141224000Y-100076000D02*
X141224000Y-95504000D01*
X139930000Y-116280000D02*
X140768000Y-116280000D01*
X140768000Y-116280000D02*
X144272000Y-112776000D01*
X144272000Y-112776000D02*
X144272000Y-100330000D01*
X144272000Y-100330000D02*
X148844000Y-95758000D01*
X139930000Y-113740000D02*
X141022000Y-113740000D01*
X142748000Y-99314000D02*
X146304000Y-95758000D01*
X142748000Y-112014000D02*
X142748000Y-99314000D01*
X141022000Y-113740000D02*
X142748000Y-112014000D01*
X154940000Y-90932000D02*
X144526000Y-90932000D01*
X164338000Y-100330000D02*
X154940000Y-90932000D01*
X121666000Y-118110000D02*
X116713000Y-118110000D01*
D17*
G36*
X162765326Y-69994864D02*
X162765327Y-69994865D01*
X164075611Y-71307198D01*
X164075854Y-71307360D01*
X164076015Y-71307602D01*
X164194106Y-71386508D01*
X164312964Y-71466061D01*
X164313251Y-71466118D01*
X164313493Y-71466280D01*
X164453003Y-71494030D01*
X164593045Y-71522000D01*
X164593332Y-71521943D01*
X164593617Y-71522000D01*
X170818317Y-71522000D01*
X170706227Y-71633894D01*
X170473265Y-72194928D01*
X170472735Y-72802407D01*
X170704717Y-73363846D01*
X171133894Y-73793773D01*
X171694928Y-74026735D01*
X172302407Y-74027265D01*
X172863846Y-73795283D01*
X173293773Y-73366106D01*
X173526735Y-72805072D01*
X173527265Y-72197593D01*
X173295283Y-71636154D01*
X173181328Y-71522000D01*
X179414382Y-71522000D01*
X179414667Y-71521943D01*
X179414954Y-71522000D01*
X179554996Y-71494030D01*
X179694506Y-71466280D01*
X179694748Y-71466118D01*
X179695035Y-71466061D01*
X179813893Y-71386508D01*
X179931984Y-71307602D01*
X179932145Y-71307360D01*
X179932388Y-71307198D01*
X181242673Y-69994864D01*
X181873000Y-69363551D01*
X181873000Y-130721115D01*
X181242672Y-130089802D01*
X179932388Y-128777469D01*
X179932145Y-128777307D01*
X179931984Y-128777065D01*
X179813893Y-128698159D01*
X179695035Y-128618606D01*
X179694748Y-128618549D01*
X179694506Y-128618387D01*
X179554996Y-128590637D01*
X179414954Y-128562667D01*
X179414667Y-128562724D01*
X179414382Y-128562667D01*
X165061333Y-128562667D01*
X164781209Y-128618387D01*
X164692666Y-128677550D01*
X164692666Y-127178000D01*
X164636946Y-126897876D01*
X164478268Y-126660398D01*
X164240790Y-126501720D01*
X163960666Y-126446000D01*
X159134666Y-126446000D01*
X158854542Y-126501720D01*
X158617064Y-126660398D01*
X158542000Y-126772740D01*
X158466935Y-126660398D01*
X158229457Y-126501720D01*
X157949333Y-126446000D01*
X153038666Y-126446000D01*
X152758542Y-126501720D01*
X152521064Y-126660398D01*
X152362386Y-126897876D01*
X152306666Y-127178000D01*
X152306666Y-128747418D01*
X152287099Y-128735077D01*
X152176780Y-128661131D01*
X152166614Y-128659093D01*
X152157843Y-128653562D01*
X152026944Y-128631099D01*
X151896738Y-128605001D01*
X137270572Y-128583594D01*
X122644404Y-128562188D01*
X122643869Y-128562294D01*
X122643333Y-128562187D01*
X122503658Y-128589970D01*
X122364199Y-128617498D01*
X122363745Y-128617800D01*
X122363209Y-128617907D01*
X122244877Y-128696974D01*
X122190000Y-128733526D01*
X122190000Y-121082000D01*
X122134280Y-120801876D01*
X121975602Y-120564398D01*
X121738124Y-120405720D01*
X121458000Y-120350000D01*
X116632000Y-120350000D01*
X116351876Y-120405720D01*
X116114398Y-120564398D01*
X116039333Y-120676741D01*
X115964268Y-120564398D01*
X115726790Y-120405720D01*
X115446666Y-120350000D01*
X110620666Y-120350000D01*
X110340542Y-120405720D01*
X110103064Y-120564398D01*
X109944386Y-120801876D01*
X109888666Y-121082000D01*
X109888666Y-128734122D01*
X109715457Y-128618387D01*
X109435333Y-128562667D01*
X100670284Y-128562667D01*
X100669999Y-128562724D01*
X100669712Y-128562667D01*
X100529670Y-128590637D01*
X100390160Y-128618387D01*
X100389918Y-128618549D01*
X100389631Y-128618606D01*
X100270773Y-128698159D01*
X100152682Y-128777065D01*
X100152521Y-128777307D01*
X100152278Y-128777469D01*
X98841994Y-130089802D01*
X98127000Y-130805914D01*
X98127000Y-118352995D01*
X115485788Y-118352995D01*
X115672194Y-118804131D01*
X116017053Y-119149593D01*
X116467864Y-119336786D01*
X116955995Y-119337212D01*
X117407131Y-119150806D01*
X117471049Y-119087000D01*
X120907569Y-119087000D01*
X120970053Y-119149593D01*
X121420864Y-119336786D01*
X121908995Y-119337212D01*
X122360131Y-119150806D01*
X122705593Y-118805947D01*
X122892786Y-118355136D01*
X122893212Y-117867005D01*
X122706806Y-117415869D01*
X122361947Y-117070407D01*
X121911136Y-116883214D01*
X121423005Y-116882788D01*
X120971869Y-117069194D01*
X120907951Y-117133000D01*
X117471431Y-117133000D01*
X117408947Y-117070407D01*
X116958136Y-116883214D01*
X116470005Y-116882788D01*
X116018869Y-117069194D01*
X115673407Y-117414053D01*
X115486214Y-117864864D01*
X115485788Y-118352995D01*
X98127000Y-118352995D01*
X98127000Y-109430000D01*
X137588758Y-109430000D01*
X137588758Y-111430000D01*
X137639451Y-111699410D01*
X137798672Y-111946846D01*
X138041615Y-112112843D01*
X138330000Y-112171242D01*
X139466150Y-112171242D01*
X139009582Y-112359892D01*
X138551501Y-112817175D01*
X138303283Y-113414950D01*
X138302718Y-114062211D01*
X138549892Y-114660418D01*
X138899073Y-115010208D01*
X138551501Y-115357175D01*
X138303283Y-115954950D01*
X138302718Y-116602211D01*
X138549892Y-117200418D01*
X138899073Y-117550208D01*
X138551501Y-117897175D01*
X138303283Y-118494950D01*
X138302718Y-119142211D01*
X138549892Y-119740418D01*
X139007175Y-120198499D01*
X139465369Y-120388758D01*
X138330000Y-120388758D01*
X138060590Y-120439451D01*
X137813154Y-120598672D01*
X137647157Y-120841615D01*
X137588758Y-121130000D01*
X137588758Y-123130000D01*
X137639451Y-123399410D01*
X137798672Y-123646846D01*
X138041615Y-123812843D01*
X138330000Y-123871242D01*
X141530000Y-123871242D01*
X141799410Y-123820549D01*
X142046846Y-123661328D01*
X142212843Y-123418385D01*
X142271242Y-123130000D01*
X142271242Y-121130000D01*
X142220549Y-120860590D01*
X142061328Y-120613154D01*
X141818385Y-120447157D01*
X141530000Y-120388758D01*
X140393850Y-120388758D01*
X140850418Y-120200108D01*
X141308499Y-119742825D01*
X141556717Y-119145050D01*
X141557282Y-118497789D01*
X141310108Y-117899582D01*
X140960927Y-117549792D01*
X141308499Y-117202825D01*
X141384084Y-117020795D01*
X141458843Y-116970843D01*
X141692572Y-116737114D01*
X154172268Y-116737114D01*
X154814434Y-118291275D01*
X156002470Y-119481387D01*
X157555509Y-120126265D01*
X159237114Y-120127732D01*
X160791275Y-119485566D01*
X161981387Y-118297530D01*
X162626265Y-116744491D01*
X162627732Y-115062886D01*
X161985566Y-113508725D01*
X160797530Y-112318613D01*
X159244491Y-111673735D01*
X157562886Y-111672268D01*
X156008725Y-112314434D01*
X154818613Y-113502470D01*
X154173735Y-115055509D01*
X154172268Y-116737114D01*
X141692572Y-116737114D01*
X144962843Y-113466844D01*
X145174630Y-113149882D01*
X145249000Y-112776000D01*
X145249000Y-108080558D01*
X156203190Y-108080558D01*
X156203191Y-108237020D01*
X156203190Y-108393482D01*
X156254620Y-108652038D01*
X156276461Y-108704766D01*
X156374370Y-108941142D01*
X156520830Y-109160336D01*
X156742104Y-109381610D01*
X156961298Y-109528070D01*
X157151198Y-109606728D01*
X157250402Y-109647820D01*
X157508957Y-109699250D01*
X157552250Y-109699250D01*
X157655260Y-109719740D01*
X159331660Y-109719740D01*
X159466264Y-109692965D01*
X159511573Y-109692492D01*
X159748077Y-109642874D01*
X159885542Y-109584243D01*
X160023980Y-109528108D01*
X160245923Y-109382195D01*
X160468840Y-109162581D01*
X160468842Y-109162579D01*
X160618051Y-108942839D01*
X160718751Y-108704766D01*
X160739955Y-108654637D01*
X160793716Y-108394523D01*
X160796051Y-108081607D01*
X160796051Y-108081606D01*
X160746178Y-107820719D01*
X160686711Y-107674069D01*
X160628589Y-107530731D01*
X160482676Y-107308788D01*
X160482675Y-107308786D01*
X160263061Y-107085870D01*
X160043320Y-106936660D01*
X159877023Y-106866320D01*
X159755119Y-106814756D01*
X159495004Y-106760995D01*
X159437013Y-106760562D01*
X159321939Y-106739119D01*
X157645540Y-106759439D01*
X157564985Y-106776480D01*
X157470276Y-106778195D01*
X157236184Y-106829182D01*
X157099268Y-106888822D01*
X156961298Y-106945970D01*
X156742104Y-107092430D01*
X156520830Y-107313704D01*
X156374370Y-107532898D01*
X156306405Y-107696983D01*
X156254620Y-107822002D01*
X156203190Y-108080558D01*
X145249000Y-108080558D01*
X145249000Y-100734686D01*
X148998552Y-96985135D01*
X149086995Y-96985212D01*
X149538131Y-96798806D01*
X149883593Y-96453947D01*
X150070786Y-96003136D01*
X150071212Y-95515005D01*
X149884806Y-95063869D01*
X149539947Y-94718407D01*
X149089136Y-94531214D01*
X148601005Y-94530788D01*
X148149869Y-94717194D01*
X147804407Y-95062053D01*
X147617214Y-95512864D01*
X147617135Y-95603178D01*
X147531060Y-95689253D01*
X147531212Y-95515005D01*
X147344806Y-95063869D01*
X146999947Y-94718407D01*
X146549136Y-94531214D01*
X146061005Y-94530788D01*
X145609869Y-94717194D01*
X145264407Y-95062053D01*
X145077214Y-95512864D01*
X145077135Y-95603178D01*
X142201000Y-98479314D01*
X142201000Y-96262431D01*
X142263593Y-96199947D01*
X142450786Y-95749136D01*
X142451212Y-95261005D01*
X142264806Y-94809869D01*
X141919947Y-94464407D01*
X141469136Y-94277214D01*
X140981005Y-94276788D01*
X140529869Y-94463194D01*
X140184407Y-94808053D01*
X139997214Y-95258864D01*
X139996788Y-95746995D01*
X140183194Y-96198131D01*
X140247000Y-96262049D01*
X140247000Y-99317569D01*
X140184407Y-99380053D01*
X139997214Y-99830864D01*
X139996788Y-100318995D01*
X140183194Y-100770131D01*
X140528053Y-101115593D01*
X140978864Y-101302786D01*
X141466995Y-101303212D01*
X141771000Y-101177599D01*
X141771000Y-108737561D01*
X141530000Y-108688758D01*
X138330000Y-108688758D01*
X138060590Y-108739451D01*
X137813154Y-108898672D01*
X137647157Y-109141615D01*
X137588758Y-109430000D01*
X98127000Y-109430000D01*
X98127000Y-100737114D01*
X111872268Y-100737114D01*
X112514434Y-102291275D01*
X113702470Y-103481387D01*
X115255509Y-104126265D01*
X116937114Y-104127732D01*
X118491275Y-103485566D01*
X119681387Y-102297530D01*
X120326265Y-100744491D01*
X120327645Y-99161600D01*
X122301640Y-99161600D01*
X122301640Y-100838000D01*
X122328415Y-100972604D01*
X122328888Y-101017913D01*
X122378506Y-101254417D01*
X122437137Y-101391882D01*
X122493272Y-101530320D01*
X122639185Y-101752263D01*
X122762985Y-101877925D01*
X122858801Y-101975182D01*
X123078541Y-102124391D01*
X123266120Y-102203733D01*
X123366743Y-102246295D01*
X123626857Y-102300056D01*
X123939773Y-102302391D01*
X123939774Y-102302391D01*
X124200661Y-102252518D01*
X124367655Y-102184802D01*
X124490649Y-102134929D01*
X124712592Y-101989016D01*
X124935509Y-101769402D01*
X124935511Y-101769400D01*
X125084720Y-101549660D01*
X125187360Y-101307000D01*
X125206624Y-101261458D01*
X125260385Y-101001344D01*
X125260818Y-100943353D01*
X125282261Y-100828279D01*
X125261941Y-99151880D01*
X125244900Y-99071325D01*
X125243185Y-98976616D01*
X125192198Y-98742524D01*
X125132558Y-98605608D01*
X125075410Y-98467638D01*
X124928950Y-98248444D01*
X124707676Y-98027170D01*
X124488482Y-97880710D01*
X124298582Y-97802052D01*
X124199378Y-97760960D01*
X123940822Y-97709530D01*
X123784360Y-97709531D01*
X123627897Y-97709530D01*
X123369342Y-97760960D01*
X123270138Y-97802052D01*
X123080238Y-97880710D01*
X122861044Y-98027170D01*
X122639770Y-98248444D01*
X122493310Y-98467638D01*
X122443593Y-98587668D01*
X122373560Y-98756742D01*
X122322130Y-99015298D01*
X122322130Y-99058590D01*
X122301640Y-99161600D01*
X120327645Y-99161600D01*
X120327732Y-99062886D01*
X119685566Y-97508725D01*
X118497530Y-96318613D01*
X116944491Y-95673735D01*
X115262886Y-95672268D01*
X113708725Y-96314434D01*
X112518613Y-97502470D01*
X111873735Y-99055509D01*
X111872268Y-100737114D01*
X98127000Y-100737114D01*
X98127000Y-84062995D01*
X125772788Y-84062995D01*
X125959194Y-84514131D01*
X126304053Y-84859593D01*
X126754864Y-85046786D01*
X127242995Y-85047212D01*
X127694131Y-84860806D01*
X127758049Y-84797000D01*
X129289569Y-84797000D01*
X129352053Y-84859593D01*
X129802864Y-85046786D01*
X130290995Y-85047212D01*
X130742131Y-84860806D01*
X131087593Y-84515947D01*
X131274786Y-84065136D01*
X131275212Y-83577005D01*
X131088806Y-83125869D01*
X130743947Y-82780407D01*
X130293136Y-82593214D01*
X129805005Y-82592788D01*
X129353869Y-82779194D01*
X129289951Y-82843000D01*
X127758431Y-82843000D01*
X127695947Y-82780407D01*
X127245136Y-82593214D01*
X126757005Y-82592788D01*
X126305869Y-82779194D01*
X125960407Y-83124053D01*
X125773214Y-83574864D01*
X125772788Y-84062995D01*
X98127000Y-84062995D01*
X98127000Y-79802407D01*
X106472735Y-79802407D01*
X106704717Y-80363846D01*
X107133894Y-80793773D01*
X107694928Y-81026735D01*
X108302407Y-81027265D01*
X108863846Y-80795283D01*
X109293773Y-80366106D01*
X109526735Y-79805072D01*
X109527265Y-79197593D01*
X109295283Y-78636154D01*
X108866106Y-78206227D01*
X108305072Y-77973265D01*
X107697593Y-77972735D01*
X107136154Y-78204717D01*
X106706227Y-78633894D01*
X106473265Y-79194928D01*
X106472735Y-79802407D01*
X98127000Y-79802407D01*
X98127000Y-77070000D01*
X137678758Y-77070000D01*
X137678758Y-79070000D01*
X137729451Y-79339410D01*
X137888672Y-79586846D01*
X138131615Y-79752843D01*
X138420000Y-79811242D01*
X139556150Y-79811242D01*
X139099582Y-79999892D01*
X138641501Y-80457175D01*
X138393283Y-81054950D01*
X138392718Y-81702211D01*
X138639892Y-82300418D01*
X138989073Y-82650208D01*
X138641501Y-82997175D01*
X138393283Y-83594950D01*
X138392718Y-84242211D01*
X138639892Y-84840418D01*
X138989073Y-85190208D01*
X138641501Y-85537175D01*
X138393283Y-86134950D01*
X138392718Y-86782211D01*
X138639892Y-87380418D01*
X139097175Y-87838499D01*
X139555369Y-88028758D01*
X138420000Y-88028758D01*
X138150590Y-88079451D01*
X137903154Y-88238672D01*
X137737157Y-88481615D01*
X137678758Y-88770000D01*
X137678758Y-90770000D01*
X137729451Y-91039410D01*
X137888672Y-91286846D01*
X138131615Y-91452843D01*
X138420000Y-91511242D01*
X141620000Y-91511242D01*
X141889410Y-91460549D01*
X142136846Y-91301328D01*
X142223166Y-91174995D01*
X143298788Y-91174995D01*
X143485194Y-91626131D01*
X143830053Y-91971593D01*
X144280864Y-92158786D01*
X144768995Y-92159212D01*
X145220131Y-91972806D01*
X145284049Y-91909000D01*
X154535314Y-91909000D01*
X163110865Y-100484551D01*
X163110788Y-100572995D01*
X163297194Y-101024131D01*
X163642053Y-101369593D01*
X164092864Y-101556786D01*
X164580995Y-101557212D01*
X165032131Y-101370806D01*
X165377593Y-101025947D01*
X165564786Y-100575136D01*
X165565212Y-100087005D01*
X165378806Y-99635869D01*
X165033947Y-99290407D01*
X164583136Y-99103214D01*
X164492821Y-99103135D01*
X155630843Y-90241157D01*
X155599811Y-90220422D01*
X155313882Y-90029370D01*
X154940000Y-89955000D01*
X145284431Y-89955000D01*
X145221947Y-89892407D01*
X144771136Y-89705214D01*
X144283005Y-89704788D01*
X143831869Y-89891194D01*
X143486407Y-90236053D01*
X143299214Y-90686864D01*
X143298788Y-91174995D01*
X142223166Y-91174995D01*
X142302843Y-91058385D01*
X142361242Y-90770000D01*
X142361242Y-88770000D01*
X142310549Y-88500590D01*
X142151328Y-88253154D01*
X141908385Y-88087157D01*
X141620000Y-88028758D01*
X140483850Y-88028758D01*
X140940418Y-87840108D01*
X141398499Y-87382825D01*
X141646717Y-86785050D01*
X141647282Y-86137789D01*
X141400108Y-85539582D01*
X141050927Y-85189792D01*
X141398499Y-84842825D01*
X141442394Y-84737114D01*
X154372268Y-84737114D01*
X155014434Y-86291275D01*
X156202470Y-87481387D01*
X157755509Y-88126265D01*
X159437114Y-88127732D01*
X160991275Y-87485566D01*
X162181387Y-86297530D01*
X162826265Y-84744491D01*
X162827643Y-83164680D01*
X164795840Y-83164680D01*
X164795840Y-84841080D01*
X164822615Y-84975684D01*
X164823088Y-85020993D01*
X164872706Y-85257497D01*
X164931337Y-85394962D01*
X164987472Y-85533400D01*
X165133385Y-85755343D01*
X165257185Y-85881005D01*
X165353001Y-85978262D01*
X165572741Y-86127471D01*
X165760320Y-86206813D01*
X165860943Y-86249375D01*
X166121057Y-86303136D01*
X166433973Y-86305471D01*
X166433974Y-86305471D01*
X166694861Y-86255598D01*
X166861855Y-86187882D01*
X166984849Y-86138009D01*
X167206792Y-85992096D01*
X167429709Y-85772482D01*
X167429711Y-85772480D01*
X167578920Y-85552740D01*
X167680162Y-85313386D01*
X167700824Y-85264538D01*
X167754585Y-85004424D01*
X167755018Y-84946433D01*
X167776461Y-84831359D01*
X167756141Y-83154960D01*
X167739100Y-83074405D01*
X167737385Y-82979696D01*
X167686398Y-82745604D01*
X167626758Y-82608688D01*
X167569610Y-82470718D01*
X167423150Y-82251524D01*
X167201876Y-82030250D01*
X166982682Y-81883790D01*
X166777990Y-81799005D01*
X166693578Y-81764040D01*
X166435022Y-81712610D01*
X166278560Y-81712611D01*
X166122097Y-81712610D01*
X165863542Y-81764040D01*
X165779130Y-81799005D01*
X165574438Y-81883790D01*
X165355244Y-82030250D01*
X165133970Y-82251524D01*
X164987510Y-82470718D01*
X164934963Y-82597580D01*
X164867760Y-82759822D01*
X164816330Y-83018378D01*
X164816330Y-83061670D01*
X164795840Y-83164680D01*
X162827643Y-83164680D01*
X162827732Y-83062886D01*
X162185566Y-81508725D01*
X160997530Y-80318613D01*
X159754368Y-79802407D01*
X170472735Y-79802407D01*
X170704717Y-80363846D01*
X171133894Y-80793773D01*
X171694928Y-81026735D01*
X172302407Y-81027265D01*
X172863846Y-80795283D01*
X173293773Y-80366106D01*
X173526735Y-79805072D01*
X173527265Y-79197593D01*
X173295283Y-78636154D01*
X172866106Y-78206227D01*
X172305072Y-77973265D01*
X171697593Y-77972735D01*
X171136154Y-78204717D01*
X170706227Y-78633894D01*
X170473265Y-79194928D01*
X170472735Y-79802407D01*
X159754368Y-79802407D01*
X159444491Y-79673735D01*
X157762886Y-79672268D01*
X156208725Y-80314434D01*
X155018613Y-81502470D01*
X154373735Y-83055509D01*
X154372268Y-84737114D01*
X141442394Y-84737114D01*
X141646717Y-84245050D01*
X141647282Y-83597789D01*
X141400108Y-82999582D01*
X141050927Y-82649792D01*
X141398499Y-82302825D01*
X141646717Y-81705050D01*
X141647282Y-81057789D01*
X141400108Y-80459582D01*
X140942825Y-80001501D01*
X140484631Y-79811242D01*
X141620000Y-79811242D01*
X141889410Y-79760549D01*
X142136846Y-79601328D01*
X142302843Y-79358385D01*
X142361242Y-79070000D01*
X142361242Y-78728995D01*
X143552788Y-78728995D01*
X143739194Y-79180131D01*
X143803000Y-79244049D01*
X143803000Y-81283569D01*
X143740407Y-81346053D01*
X143553214Y-81796864D01*
X143552788Y-82284995D01*
X143739194Y-82736131D01*
X144084053Y-83081593D01*
X144534864Y-83268786D01*
X145022995Y-83269212D01*
X145474131Y-83082806D01*
X145819593Y-82737947D01*
X146006786Y-82287136D01*
X146007212Y-81799005D01*
X145820806Y-81347869D01*
X145757000Y-81283951D01*
X145757000Y-79244431D01*
X145819593Y-79181947D01*
X146006786Y-78731136D01*
X146007212Y-78243005D01*
X145820806Y-77791869D01*
X145475947Y-77446407D01*
X145025136Y-77259214D01*
X144537005Y-77258788D01*
X144085869Y-77445194D01*
X143740407Y-77790053D01*
X143553214Y-78240864D01*
X143552788Y-78728995D01*
X142361242Y-78728995D01*
X142361242Y-77070000D01*
X142310549Y-76800590D01*
X142151328Y-76553154D01*
X141908385Y-76387157D01*
X141620000Y-76328758D01*
X138420000Y-76328758D01*
X138150590Y-76379451D01*
X137903154Y-76538672D01*
X137737157Y-76781615D01*
X137678758Y-77070000D01*
X98127000Y-77070000D01*
X98127000Y-69278753D01*
X98841993Y-69994864D01*
X100152277Y-71307197D01*
X100152520Y-71307360D01*
X100152682Y-71307602D01*
X100270919Y-71386605D01*
X100389631Y-71466061D01*
X100389918Y-71466118D01*
X100390160Y-71466280D01*
X100530288Y-71494153D01*
X100669712Y-71521999D01*
X100669996Y-71521943D01*
X100670284Y-71522000D01*
X106818317Y-71522000D01*
X106706227Y-71633894D01*
X106473265Y-72194928D01*
X106472735Y-72802407D01*
X106704717Y-73363846D01*
X107133894Y-73793773D01*
X107694928Y-74026735D01*
X108302407Y-74027265D01*
X108863846Y-73795283D01*
X109293773Y-73366106D01*
X109526735Y-72805072D01*
X109527265Y-72197593D01*
X109295283Y-71636154D01*
X109181328Y-71522000D01*
X115575715Y-71522000D01*
X115576000Y-71521943D01*
X115576287Y-71522000D01*
X115716329Y-71494030D01*
X115855839Y-71466280D01*
X115856081Y-71466118D01*
X115856368Y-71466061D01*
X115975226Y-71386508D01*
X116093317Y-71307602D01*
X116093478Y-71307360D01*
X116093721Y-71307198D01*
X117404007Y-69994864D01*
X118499824Y-68897333D01*
X161669509Y-68897333D01*
X162765326Y-69994864D01*
X162765326Y-69994864D01*
G37*
X162765326Y-69994864D02*
X162765327Y-69994865D01*
X164075611Y-71307198D01*
X164075854Y-71307360D01*
X164076015Y-71307602D01*
X164194106Y-71386508D01*
X164312964Y-71466061D01*
X164313251Y-71466118D01*
X164313493Y-71466280D01*
X164453003Y-71494030D01*
X164593045Y-71522000D01*
X164593332Y-71521943D01*
X164593617Y-71522000D01*
X170818317Y-71522000D01*
X170706227Y-71633894D01*
X170473265Y-72194928D01*
X170472735Y-72802407D01*
X170704717Y-73363846D01*
X171133894Y-73793773D01*
X171694928Y-74026735D01*
X172302407Y-74027265D01*
X172863846Y-73795283D01*
X173293773Y-73366106D01*
X173526735Y-72805072D01*
X173527265Y-72197593D01*
X173295283Y-71636154D01*
X173181328Y-71522000D01*
X179414382Y-71522000D01*
X179414667Y-71521943D01*
X179414954Y-71522000D01*
X179554996Y-71494030D01*
X179694506Y-71466280D01*
X179694748Y-71466118D01*
X179695035Y-71466061D01*
X179813893Y-71386508D01*
X179931984Y-71307602D01*
X179932145Y-71307360D01*
X179932388Y-71307198D01*
X181242673Y-69994864D01*
X181873000Y-69363551D01*
X181873000Y-130721115D01*
X181242672Y-130089802D01*
X179932388Y-128777469D01*
X179932145Y-128777307D01*
X179931984Y-128777065D01*
X179813893Y-128698159D01*
X179695035Y-128618606D01*
X179694748Y-128618549D01*
X179694506Y-128618387D01*
X179554996Y-128590637D01*
X179414954Y-128562667D01*
X179414667Y-128562724D01*
X179414382Y-128562667D01*
X165061333Y-128562667D01*
X164781209Y-128618387D01*
X164692666Y-128677550D01*
X164692666Y-127178000D01*
X164636946Y-126897876D01*
X164478268Y-126660398D01*
X164240790Y-126501720D01*
X163960666Y-126446000D01*
X159134666Y-126446000D01*
X158854542Y-126501720D01*
X158617064Y-126660398D01*
X158542000Y-126772740D01*
X158466935Y-126660398D01*
X158229457Y-126501720D01*
X157949333Y-126446000D01*
X153038666Y-126446000D01*
X152758542Y-126501720D01*
X152521064Y-126660398D01*
X152362386Y-126897876D01*
X152306666Y-127178000D01*
X152306666Y-128747418D01*
X152287099Y-128735077D01*
X152176780Y-128661131D01*
X152166614Y-128659093D01*
X152157843Y-128653562D01*
X152026944Y-128631099D01*
X151896738Y-128605001D01*
X137270572Y-128583594D01*
X122644404Y-128562188D01*
X122643869Y-128562294D01*
X122643333Y-128562187D01*
X122503658Y-128589970D01*
X122364199Y-128617498D01*
X122363745Y-128617800D01*
X122363209Y-128617907D01*
X122244877Y-128696974D01*
X122190000Y-128733526D01*
X122190000Y-121082000D01*
X122134280Y-120801876D01*
X121975602Y-120564398D01*
X121738124Y-120405720D01*
X121458000Y-120350000D01*
X116632000Y-120350000D01*
X116351876Y-120405720D01*
X116114398Y-120564398D01*
X116039333Y-120676741D01*
X115964268Y-120564398D01*
X115726790Y-120405720D01*
X115446666Y-120350000D01*
X110620666Y-120350000D01*
X110340542Y-120405720D01*
X110103064Y-120564398D01*
X109944386Y-120801876D01*
X109888666Y-121082000D01*
X109888666Y-128734122D01*
X109715457Y-128618387D01*
X109435333Y-128562667D01*
X100670284Y-128562667D01*
X100669999Y-128562724D01*
X100669712Y-128562667D01*
X100529670Y-128590637D01*
X100390160Y-128618387D01*
X100389918Y-128618549D01*
X100389631Y-128618606D01*
X100270773Y-128698159D01*
X100152682Y-128777065D01*
X100152521Y-128777307D01*
X100152278Y-128777469D01*
X98841994Y-130089802D01*
X98127000Y-130805914D01*
X98127000Y-118352995D01*
X115485788Y-118352995D01*
X115672194Y-118804131D01*
X116017053Y-119149593D01*
X116467864Y-119336786D01*
X116955995Y-119337212D01*
X117407131Y-119150806D01*
X117471049Y-119087000D01*
X120907569Y-119087000D01*
X120970053Y-119149593D01*
X121420864Y-119336786D01*
X121908995Y-119337212D01*
X122360131Y-119150806D01*
X122705593Y-118805947D01*
X122892786Y-118355136D01*
X122893212Y-117867005D01*
X122706806Y-117415869D01*
X122361947Y-117070407D01*
X121911136Y-116883214D01*
X121423005Y-116882788D01*
X120971869Y-117069194D01*
X120907951Y-117133000D01*
X117471431Y-117133000D01*
X117408947Y-117070407D01*
X116958136Y-116883214D01*
X116470005Y-116882788D01*
X116018869Y-117069194D01*
X115673407Y-117414053D01*
X115486214Y-117864864D01*
X115485788Y-118352995D01*
X98127000Y-118352995D01*
X98127000Y-109430000D01*
X137588758Y-109430000D01*
X137588758Y-111430000D01*
X137639451Y-111699410D01*
X137798672Y-111946846D01*
X138041615Y-112112843D01*
X138330000Y-112171242D01*
X139466150Y-112171242D01*
X139009582Y-112359892D01*
X138551501Y-112817175D01*
X138303283Y-113414950D01*
X138302718Y-114062211D01*
X138549892Y-114660418D01*
X138899073Y-115010208D01*
X138551501Y-115357175D01*
X138303283Y-115954950D01*
X138302718Y-116602211D01*
X138549892Y-117200418D01*
X138899073Y-117550208D01*
X138551501Y-117897175D01*
X138303283Y-118494950D01*
X138302718Y-119142211D01*
X138549892Y-119740418D01*
X139007175Y-120198499D01*
X139465369Y-120388758D01*
X138330000Y-120388758D01*
X138060590Y-120439451D01*
X137813154Y-120598672D01*
X137647157Y-120841615D01*
X137588758Y-121130000D01*
X137588758Y-123130000D01*
X137639451Y-123399410D01*
X137798672Y-123646846D01*
X138041615Y-123812843D01*
X138330000Y-123871242D01*
X141530000Y-123871242D01*
X141799410Y-123820549D01*
X142046846Y-123661328D01*
X142212843Y-123418385D01*
X142271242Y-123130000D01*
X142271242Y-121130000D01*
X142220549Y-120860590D01*
X142061328Y-120613154D01*
X141818385Y-120447157D01*
X141530000Y-120388758D01*
X140393850Y-120388758D01*
X140850418Y-120200108D01*
X141308499Y-119742825D01*
X141556717Y-119145050D01*
X141557282Y-118497789D01*
X141310108Y-117899582D01*
X140960927Y-117549792D01*
X141308499Y-117202825D01*
X141384084Y-117020795D01*
X141458843Y-116970843D01*
X141692572Y-116737114D01*
X154172268Y-116737114D01*
X154814434Y-118291275D01*
X156002470Y-119481387D01*
X157555509Y-120126265D01*
X159237114Y-120127732D01*
X160791275Y-119485566D01*
X161981387Y-118297530D01*
X162626265Y-116744491D01*
X162627732Y-115062886D01*
X161985566Y-113508725D01*
X160797530Y-112318613D01*
X159244491Y-111673735D01*
X157562886Y-111672268D01*
X156008725Y-112314434D01*
X154818613Y-113502470D01*
X154173735Y-115055509D01*
X154172268Y-116737114D01*
X141692572Y-116737114D01*
X144962843Y-113466844D01*
X145174630Y-113149882D01*
X145249000Y-112776000D01*
X145249000Y-108080558D01*
X156203190Y-108080558D01*
X156203191Y-108237020D01*
X156203190Y-108393482D01*
X156254620Y-108652038D01*
X156276461Y-108704766D01*
X156374370Y-108941142D01*
X156520830Y-109160336D01*
X156742104Y-109381610D01*
X156961298Y-109528070D01*
X157151198Y-109606728D01*
X157250402Y-109647820D01*
X157508957Y-109699250D01*
X157552250Y-109699250D01*
X157655260Y-109719740D01*
X159331660Y-109719740D01*
X159466264Y-109692965D01*
X159511573Y-109692492D01*
X159748077Y-109642874D01*
X159885542Y-109584243D01*
X160023980Y-109528108D01*
X160245923Y-109382195D01*
X160468840Y-109162581D01*
X160468842Y-109162579D01*
X160618051Y-108942839D01*
X160718751Y-108704766D01*
X160739955Y-108654637D01*
X160793716Y-108394523D01*
X160796051Y-108081607D01*
X160796051Y-108081606D01*
X160746178Y-107820719D01*
X160686711Y-107674069D01*
X160628589Y-107530731D01*
X160482676Y-107308788D01*
X160482675Y-107308786D01*
X160263061Y-107085870D01*
X160043320Y-106936660D01*
X159877023Y-106866320D01*
X159755119Y-106814756D01*
X159495004Y-106760995D01*
X159437013Y-106760562D01*
X159321939Y-106739119D01*
X157645540Y-106759439D01*
X157564985Y-106776480D01*
X157470276Y-106778195D01*
X157236184Y-106829182D01*
X157099268Y-106888822D01*
X156961298Y-106945970D01*
X156742104Y-107092430D01*
X156520830Y-107313704D01*
X156374370Y-107532898D01*
X156306405Y-107696983D01*
X156254620Y-107822002D01*
X156203190Y-108080558D01*
X145249000Y-108080558D01*
X145249000Y-100734686D01*
X148998552Y-96985135D01*
X149086995Y-96985212D01*
X149538131Y-96798806D01*
X149883593Y-96453947D01*
X150070786Y-96003136D01*
X150071212Y-95515005D01*
X149884806Y-95063869D01*
X149539947Y-94718407D01*
X149089136Y-94531214D01*
X148601005Y-94530788D01*
X148149869Y-94717194D01*
X147804407Y-95062053D01*
X147617214Y-95512864D01*
X147617135Y-95603178D01*
X147531060Y-95689253D01*
X147531212Y-95515005D01*
X147344806Y-95063869D01*
X146999947Y-94718407D01*
X146549136Y-94531214D01*
X146061005Y-94530788D01*
X145609869Y-94717194D01*
X145264407Y-95062053D01*
X145077214Y-95512864D01*
X145077135Y-95603178D01*
X142201000Y-98479314D01*
X142201000Y-96262431D01*
X142263593Y-96199947D01*
X142450786Y-95749136D01*
X142451212Y-95261005D01*
X142264806Y-94809869D01*
X141919947Y-94464407D01*
X141469136Y-94277214D01*
X140981005Y-94276788D01*
X140529869Y-94463194D01*
X140184407Y-94808053D01*
X139997214Y-95258864D01*
X139996788Y-95746995D01*
X140183194Y-96198131D01*
X140247000Y-96262049D01*
X140247000Y-99317569D01*
X140184407Y-99380053D01*
X139997214Y-99830864D01*
X139996788Y-100318995D01*
X140183194Y-100770131D01*
X140528053Y-101115593D01*
X140978864Y-101302786D01*
X141466995Y-101303212D01*
X141771000Y-101177599D01*
X141771000Y-108737561D01*
X141530000Y-108688758D01*
X138330000Y-108688758D01*
X138060590Y-108739451D01*
X137813154Y-108898672D01*
X137647157Y-109141615D01*
X137588758Y-109430000D01*
X98127000Y-109430000D01*
X98127000Y-100737114D01*
X111872268Y-100737114D01*
X112514434Y-102291275D01*
X113702470Y-103481387D01*
X115255509Y-104126265D01*
X116937114Y-104127732D01*
X118491275Y-103485566D01*
X119681387Y-102297530D01*
X120326265Y-100744491D01*
X120327645Y-99161600D01*
X122301640Y-99161600D01*
X122301640Y-100838000D01*
X122328415Y-100972604D01*
X122328888Y-101017913D01*
X122378506Y-101254417D01*
X122437137Y-101391882D01*
X122493272Y-101530320D01*
X122639185Y-101752263D01*
X122762985Y-101877925D01*
X122858801Y-101975182D01*
X123078541Y-102124391D01*
X123266120Y-102203733D01*
X123366743Y-102246295D01*
X123626857Y-102300056D01*
X123939773Y-102302391D01*
X123939774Y-102302391D01*
X124200661Y-102252518D01*
X124367655Y-102184802D01*
X124490649Y-102134929D01*
X124712592Y-101989016D01*
X124935509Y-101769402D01*
X124935511Y-101769400D01*
X125084720Y-101549660D01*
X125187360Y-101307000D01*
X125206624Y-101261458D01*
X125260385Y-101001344D01*
X125260818Y-100943353D01*
X125282261Y-100828279D01*
X125261941Y-99151880D01*
X125244900Y-99071325D01*
X125243185Y-98976616D01*
X125192198Y-98742524D01*
X125132558Y-98605608D01*
X125075410Y-98467638D01*
X124928950Y-98248444D01*
X124707676Y-98027170D01*
X124488482Y-97880710D01*
X124298582Y-97802052D01*
X124199378Y-97760960D01*
X123940822Y-97709530D01*
X123784360Y-97709531D01*
X123627897Y-97709530D01*
X123369342Y-97760960D01*
X123270138Y-97802052D01*
X123080238Y-97880710D01*
X122861044Y-98027170D01*
X122639770Y-98248444D01*
X122493310Y-98467638D01*
X122443593Y-98587668D01*
X122373560Y-98756742D01*
X122322130Y-99015298D01*
X122322130Y-99058590D01*
X122301640Y-99161600D01*
X120327645Y-99161600D01*
X120327732Y-99062886D01*
X119685566Y-97508725D01*
X118497530Y-96318613D01*
X116944491Y-95673735D01*
X115262886Y-95672268D01*
X113708725Y-96314434D01*
X112518613Y-97502470D01*
X111873735Y-99055509D01*
X111872268Y-100737114D01*
X98127000Y-100737114D01*
X98127000Y-84062995D01*
X125772788Y-84062995D01*
X125959194Y-84514131D01*
X126304053Y-84859593D01*
X126754864Y-85046786D01*
X127242995Y-85047212D01*
X127694131Y-84860806D01*
X127758049Y-84797000D01*
X129289569Y-84797000D01*
X129352053Y-84859593D01*
X129802864Y-85046786D01*
X130290995Y-85047212D01*
X130742131Y-84860806D01*
X131087593Y-84515947D01*
X131274786Y-84065136D01*
X131275212Y-83577005D01*
X131088806Y-83125869D01*
X130743947Y-82780407D01*
X130293136Y-82593214D01*
X129805005Y-82592788D01*
X129353869Y-82779194D01*
X129289951Y-82843000D01*
X127758431Y-82843000D01*
X127695947Y-82780407D01*
X127245136Y-82593214D01*
X126757005Y-82592788D01*
X126305869Y-82779194D01*
X125960407Y-83124053D01*
X125773214Y-83574864D01*
X125772788Y-84062995D01*
X98127000Y-84062995D01*
X98127000Y-79802407D01*
X106472735Y-79802407D01*
X106704717Y-80363846D01*
X107133894Y-80793773D01*
X107694928Y-81026735D01*
X108302407Y-81027265D01*
X108863846Y-80795283D01*
X109293773Y-80366106D01*
X109526735Y-79805072D01*
X109527265Y-79197593D01*
X109295283Y-78636154D01*
X108866106Y-78206227D01*
X108305072Y-77973265D01*
X107697593Y-77972735D01*
X107136154Y-78204717D01*
X106706227Y-78633894D01*
X106473265Y-79194928D01*
X106472735Y-79802407D01*
X98127000Y-79802407D01*
X98127000Y-77070000D01*
X137678758Y-77070000D01*
X137678758Y-79070000D01*
X137729451Y-79339410D01*
X137888672Y-79586846D01*
X138131615Y-79752843D01*
X138420000Y-79811242D01*
X139556150Y-79811242D01*
X139099582Y-79999892D01*
X138641501Y-80457175D01*
X138393283Y-81054950D01*
X138392718Y-81702211D01*
X138639892Y-82300418D01*
X138989073Y-82650208D01*
X138641501Y-82997175D01*
X138393283Y-83594950D01*
X138392718Y-84242211D01*
X138639892Y-84840418D01*
X138989073Y-85190208D01*
X138641501Y-85537175D01*
X138393283Y-86134950D01*
X138392718Y-86782211D01*
X138639892Y-87380418D01*
X139097175Y-87838499D01*
X139555369Y-88028758D01*
X138420000Y-88028758D01*
X138150590Y-88079451D01*
X137903154Y-88238672D01*
X137737157Y-88481615D01*
X137678758Y-88770000D01*
X137678758Y-90770000D01*
X137729451Y-91039410D01*
X137888672Y-91286846D01*
X138131615Y-91452843D01*
X138420000Y-91511242D01*
X141620000Y-91511242D01*
X141889410Y-91460549D01*
X142136846Y-91301328D01*
X142223166Y-91174995D01*
X143298788Y-91174995D01*
X143485194Y-91626131D01*
X143830053Y-91971593D01*
X144280864Y-92158786D01*
X144768995Y-92159212D01*
X145220131Y-91972806D01*
X145284049Y-91909000D01*
X154535314Y-91909000D01*
X163110865Y-100484551D01*
X163110788Y-100572995D01*
X163297194Y-101024131D01*
X163642053Y-101369593D01*
X164092864Y-101556786D01*
X164580995Y-101557212D01*
X165032131Y-101370806D01*
X165377593Y-101025947D01*
X165564786Y-100575136D01*
X165565212Y-100087005D01*
X165378806Y-99635869D01*
X165033947Y-99290407D01*
X164583136Y-99103214D01*
X164492821Y-99103135D01*
X155630843Y-90241157D01*
X155599811Y-90220422D01*
X155313882Y-90029370D01*
X154940000Y-89955000D01*
X145284431Y-89955000D01*
X145221947Y-89892407D01*
X144771136Y-89705214D01*
X144283005Y-89704788D01*
X143831869Y-89891194D01*
X143486407Y-90236053D01*
X143299214Y-90686864D01*
X143298788Y-91174995D01*
X142223166Y-91174995D01*
X142302843Y-91058385D01*
X142361242Y-90770000D01*
X142361242Y-88770000D01*
X142310549Y-88500590D01*
X142151328Y-88253154D01*
X141908385Y-88087157D01*
X141620000Y-88028758D01*
X140483850Y-88028758D01*
X140940418Y-87840108D01*
X141398499Y-87382825D01*
X141646717Y-86785050D01*
X141647282Y-86137789D01*
X141400108Y-85539582D01*
X141050927Y-85189792D01*
X141398499Y-84842825D01*
X141442394Y-84737114D01*
X154372268Y-84737114D01*
X155014434Y-86291275D01*
X156202470Y-87481387D01*
X157755509Y-88126265D01*
X159437114Y-88127732D01*
X160991275Y-87485566D01*
X162181387Y-86297530D01*
X162826265Y-84744491D01*
X162827643Y-83164680D01*
X164795840Y-83164680D01*
X164795840Y-84841080D01*
X164822615Y-84975684D01*
X164823088Y-85020993D01*
X164872706Y-85257497D01*
X164931337Y-85394962D01*
X164987472Y-85533400D01*
X165133385Y-85755343D01*
X165257185Y-85881005D01*
X165353001Y-85978262D01*
X165572741Y-86127471D01*
X165760320Y-86206813D01*
X165860943Y-86249375D01*
X166121057Y-86303136D01*
X166433973Y-86305471D01*
X166433974Y-86305471D01*
X166694861Y-86255598D01*
X166861855Y-86187882D01*
X166984849Y-86138009D01*
X167206792Y-85992096D01*
X167429709Y-85772482D01*
X167429711Y-85772480D01*
X167578920Y-85552740D01*
X167680162Y-85313386D01*
X167700824Y-85264538D01*
X167754585Y-85004424D01*
X167755018Y-84946433D01*
X167776461Y-84831359D01*
X167756141Y-83154960D01*
X167739100Y-83074405D01*
X167737385Y-82979696D01*
X167686398Y-82745604D01*
X167626758Y-82608688D01*
X167569610Y-82470718D01*
X167423150Y-82251524D01*
X167201876Y-82030250D01*
X166982682Y-81883790D01*
X166777990Y-81799005D01*
X166693578Y-81764040D01*
X166435022Y-81712610D01*
X166278560Y-81712611D01*
X166122097Y-81712610D01*
X165863542Y-81764040D01*
X165779130Y-81799005D01*
X165574438Y-81883790D01*
X165355244Y-82030250D01*
X165133970Y-82251524D01*
X164987510Y-82470718D01*
X164934963Y-82597580D01*
X164867760Y-82759822D01*
X164816330Y-83018378D01*
X164816330Y-83061670D01*
X164795840Y-83164680D01*
X162827643Y-83164680D01*
X162827732Y-83062886D01*
X162185566Y-81508725D01*
X160997530Y-80318613D01*
X159754368Y-79802407D01*
X170472735Y-79802407D01*
X170704717Y-80363846D01*
X171133894Y-80793773D01*
X171694928Y-81026735D01*
X172302407Y-81027265D01*
X172863846Y-80795283D01*
X173293773Y-80366106D01*
X173526735Y-79805072D01*
X173527265Y-79197593D01*
X173295283Y-78636154D01*
X172866106Y-78206227D01*
X172305072Y-77973265D01*
X171697593Y-77972735D01*
X171136154Y-78204717D01*
X170706227Y-78633894D01*
X170473265Y-79194928D01*
X170472735Y-79802407D01*
X159754368Y-79802407D01*
X159444491Y-79673735D01*
X157762886Y-79672268D01*
X156208725Y-80314434D01*
X155018613Y-81502470D01*
X154373735Y-83055509D01*
X154372268Y-84737114D01*
X141442394Y-84737114D01*
X141646717Y-84245050D01*
X141647282Y-83597789D01*
X141400108Y-82999582D01*
X141050927Y-82649792D01*
X141398499Y-82302825D01*
X141646717Y-81705050D01*
X141647282Y-81057789D01*
X141400108Y-80459582D01*
X140942825Y-80001501D01*
X140484631Y-79811242D01*
X141620000Y-79811242D01*
X141889410Y-79760549D01*
X142136846Y-79601328D01*
X142302843Y-79358385D01*
X142361242Y-79070000D01*
X142361242Y-78728995D01*
X143552788Y-78728995D01*
X143739194Y-79180131D01*
X143803000Y-79244049D01*
X143803000Y-81283569D01*
X143740407Y-81346053D01*
X143553214Y-81796864D01*
X143552788Y-82284995D01*
X143739194Y-82736131D01*
X144084053Y-83081593D01*
X144534864Y-83268786D01*
X145022995Y-83269212D01*
X145474131Y-83082806D01*
X145819593Y-82737947D01*
X146006786Y-82287136D01*
X146007212Y-81799005D01*
X145820806Y-81347869D01*
X145757000Y-81283951D01*
X145757000Y-79244431D01*
X145819593Y-79181947D01*
X146006786Y-78731136D01*
X146007212Y-78243005D01*
X145820806Y-77791869D01*
X145475947Y-77446407D01*
X145025136Y-77259214D01*
X144537005Y-77258788D01*
X144085869Y-77445194D01*
X143740407Y-77790053D01*
X143553214Y-78240864D01*
X143552788Y-78728995D01*
X142361242Y-78728995D01*
X142361242Y-77070000D01*
X142310549Y-76800590D01*
X142151328Y-76553154D01*
X141908385Y-76387157D01*
X141620000Y-76328758D01*
X138420000Y-76328758D01*
X138150590Y-76379451D01*
X137903154Y-76538672D01*
X137737157Y-76781615D01*
X137678758Y-77070000D01*
X98127000Y-77070000D01*
X98127000Y-69278753D01*
X98841993Y-69994864D01*
X100152277Y-71307197D01*
X100152520Y-71307360D01*
X100152682Y-71307602D01*
X100270919Y-71386605D01*
X100389631Y-71466061D01*
X100389918Y-71466118D01*
X100390160Y-71466280D01*
X100530288Y-71494153D01*
X100669712Y-71521999D01*
X100669996Y-71521943D01*
X100670284Y-71522000D01*
X106818317Y-71522000D01*
X106706227Y-71633894D01*
X106473265Y-72194928D01*
X106472735Y-72802407D01*
X106704717Y-73363846D01*
X107133894Y-73793773D01*
X107694928Y-74026735D01*
X108302407Y-74027265D01*
X108863846Y-73795283D01*
X109293773Y-73366106D01*
X109526735Y-72805072D01*
X109527265Y-72197593D01*
X109295283Y-71636154D01*
X109181328Y-71522000D01*
X115575715Y-71522000D01*
X115576000Y-71521943D01*
X115576287Y-71522000D01*
X115716329Y-71494030D01*
X115855839Y-71466280D01*
X115856081Y-71466118D01*
X115856368Y-71466061D01*
X115975226Y-71386508D01*
X116093317Y-71307602D01*
X116093478Y-71307360D01*
X116093721Y-71307198D01*
X117404007Y-69994864D01*
X118499824Y-68897333D01*
X161669509Y-68897333D01*
X162765326Y-69994864D01*
G36*
X215073000Y-140573000D02*
X64927000Y-140573000D01*
X64927000Y-64250000D01*
X69573000Y-64250000D01*
X69573000Y-98500000D01*
X69586473Y-98567735D01*
X69623000Y-98622401D01*
X69623000Y-101377599D01*
X69586473Y-101432265D01*
X69573000Y-101500000D01*
X69573000Y-135750000D01*
X69586473Y-135817735D01*
X69624842Y-135875158D01*
X69682265Y-135913527D01*
X69750000Y-135927000D01*
X114500000Y-135927000D01*
X114567735Y-135913527D01*
X114622401Y-135877000D01*
X117346583Y-135877000D01*
X117357164Y-135892836D01*
X117422698Y-135936624D01*
X117500000Y-135952000D01*
X117577302Y-135936624D01*
X117591705Y-135927000D01*
X157000000Y-135927000D01*
X157067735Y-135913527D01*
X157122401Y-135877000D01*
X159877599Y-135877000D01*
X159932265Y-135913527D01*
X160000000Y-135927000D01*
X210250000Y-135927000D01*
X210317735Y-135913527D01*
X210375158Y-135875158D01*
X210413527Y-135817735D01*
X210427000Y-135750000D01*
X210427000Y-101500000D01*
X210413527Y-101432265D01*
X210377000Y-101377599D01*
X210377000Y-98622401D01*
X210413527Y-98567735D01*
X210427000Y-98500000D01*
X210427000Y-64250000D01*
X210413527Y-64182265D01*
X210375158Y-64124842D01*
X210317735Y-64086473D01*
X210250000Y-64073000D01*
X173500000Y-64073000D01*
X173432265Y-64086473D01*
X173377599Y-64123000D01*
X170622401Y-64123000D01*
X170567735Y-64086473D01*
X170500000Y-64073000D01*
X109500000Y-64073000D01*
X109432265Y-64086473D01*
X109377599Y-64123000D01*
X106622401Y-64123000D01*
X106567735Y-64086473D01*
X106500000Y-64073000D01*
X69750000Y-64073000D01*
X69682265Y-64086473D01*
X69624842Y-64124842D01*
X69586473Y-64182265D01*
X69573000Y-64250000D01*
X64927000Y-64250000D01*
X64927000Y-59427000D01*
X215073000Y-59427000D01*
X215073000Y-140573000D01*
X215073000Y-140573000D01*
G37*
X215073000Y-140573000D02*
X64927000Y-140573000D01*
X64927000Y-64250000D01*
X69573000Y-64250000D01*
X69573000Y-98500000D01*
X69586473Y-98567735D01*
X69623000Y-98622401D01*
X69623000Y-101377599D01*
X69586473Y-101432265D01*
X69573000Y-101500000D01*
X69573000Y-135750000D01*
X69586473Y-135817735D01*
X69624842Y-135875158D01*
X69682265Y-135913527D01*
X69750000Y-135927000D01*
X114500000Y-135927000D01*
X114567735Y-135913527D01*
X114622401Y-135877000D01*
X117346583Y-135877000D01*
X117357164Y-135892836D01*
X117422698Y-135936624D01*
X117500000Y-135952000D01*
X117577302Y-135936624D01*
X117591705Y-135927000D01*
X157000000Y-135927000D01*
X157067735Y-135913527D01*
X157122401Y-135877000D01*
X159877599Y-135877000D01*
X159932265Y-135913527D01*
X160000000Y-135927000D01*
X210250000Y-135927000D01*
X210317735Y-135913527D01*
X210375158Y-135875158D01*
X210413527Y-135817735D01*
X210427000Y-135750000D01*
X210427000Y-101500000D01*
X210413527Y-101432265D01*
X210377000Y-101377599D01*
X210377000Y-98622401D01*
X210413527Y-98567735D01*
X210427000Y-98500000D01*
X210427000Y-64250000D01*
X210413527Y-64182265D01*
X210375158Y-64124842D01*
X210317735Y-64086473D01*
X210250000Y-64073000D01*
X173500000Y-64073000D01*
X173432265Y-64086473D01*
X173377599Y-64123000D01*
X170622401Y-64123000D01*
X170567735Y-64086473D01*
X170500000Y-64073000D01*
X109500000Y-64073000D01*
X109432265Y-64086473D01*
X109377599Y-64123000D01*
X106622401Y-64123000D01*
X106567735Y-64086473D01*
X106500000Y-64073000D01*
X69750000Y-64073000D01*
X69682265Y-64086473D01*
X69624842Y-64124842D01*
X69586473Y-64182265D01*
X69573000Y-64250000D01*
X64927000Y-64250000D01*
X64927000Y-59427000D01*
X215073000Y-59427000D01*
X215073000Y-140573000D01*
M02*
