G04 #@! TF.FileFunction,Legend,Top*
%FSLAX46Y46*%
G04 Gerber Fmt 4.6, Leading zero omitted, Abs format (unit mm)*
G04 Created by KiCad (PCBNEW 4.0.7-e2-6376~58~ubuntu16.04.1) date Sun Feb 25 03:24:25 2018*
%MOMM*%
%LPD*%
G01*
G04 APERTURE LIST*
%ADD10C,0.100000*%
%ADD11C,0.200000*%
%ADD12C,0.150000*%
%ADD13C,0.050000*%
%ADD14C,0.152400*%
G04 APERTURE END LIST*
D10*
D11*
X128311142Y-128373143D02*
X128263523Y-128420762D01*
X128120666Y-128468381D01*
X128025428Y-128468381D01*
X127882570Y-128420762D01*
X127787332Y-128325524D01*
X127739713Y-128230286D01*
X127692094Y-128039810D01*
X127692094Y-127896952D01*
X127739713Y-127706476D01*
X127787332Y-127611238D01*
X127882570Y-127516000D01*
X128025428Y-127468381D01*
X128120666Y-127468381D01*
X128263523Y-127516000D01*
X128311142Y-127563619D01*
X128739713Y-128468381D02*
X128739713Y-127468381D01*
X129168285Y-128468381D02*
X129168285Y-127944571D01*
X129120666Y-127849333D01*
X129025428Y-127801714D01*
X128882570Y-127801714D01*
X128787332Y-127849333D01*
X128739713Y-127896952D01*
X130073047Y-128468381D02*
X130073047Y-127944571D01*
X130025428Y-127849333D01*
X129930190Y-127801714D01*
X129739713Y-127801714D01*
X129644475Y-127849333D01*
X130073047Y-128420762D02*
X129977809Y-128468381D01*
X129739713Y-128468381D01*
X129644475Y-128420762D01*
X129596856Y-128325524D01*
X129596856Y-128230286D01*
X129644475Y-128135048D01*
X129739713Y-128087429D01*
X129977809Y-128087429D01*
X130073047Y-128039810D01*
X130692094Y-128468381D02*
X130596856Y-128420762D01*
X130549237Y-128373143D01*
X130501618Y-128277905D01*
X130501618Y-127992190D01*
X130549237Y-127896952D01*
X130596856Y-127849333D01*
X130692094Y-127801714D01*
X130834952Y-127801714D01*
X130930190Y-127849333D01*
X130977809Y-127896952D01*
X131025428Y-127992190D01*
X131025428Y-128277905D01*
X130977809Y-128373143D01*
X130930190Y-128420762D01*
X130834952Y-128468381D01*
X130692094Y-128468381D01*
X131406380Y-128420762D02*
X131501618Y-128468381D01*
X131692094Y-128468381D01*
X131787333Y-128420762D01*
X131834952Y-128325524D01*
X131834952Y-128277905D01*
X131787333Y-128182667D01*
X131692094Y-128135048D01*
X131549237Y-128135048D01*
X131453999Y-128087429D01*
X131406380Y-127992190D01*
X131406380Y-127944571D01*
X131453999Y-127849333D01*
X131549237Y-127801714D01*
X131692094Y-127801714D01*
X131787333Y-127849333D01*
X132739714Y-128468381D02*
X132263523Y-128468381D01*
X132263523Y-127468381D01*
X133215904Y-128468381D02*
X133120666Y-128420762D01*
X133073047Y-128373143D01*
X133025428Y-128277905D01*
X133025428Y-127992190D01*
X133073047Y-127896952D01*
X133120666Y-127849333D01*
X133215904Y-127801714D01*
X133358762Y-127801714D01*
X133454000Y-127849333D01*
X133501619Y-127896952D01*
X133549238Y-127992190D01*
X133549238Y-128277905D01*
X133501619Y-128373143D01*
X133454000Y-128420762D01*
X133358762Y-128468381D01*
X133215904Y-128468381D01*
X134120666Y-128468381D02*
X134025428Y-128420762D01*
X133977809Y-128373143D01*
X133930190Y-128277905D01*
X133930190Y-127992190D01*
X133977809Y-127896952D01*
X134025428Y-127849333D01*
X134120666Y-127801714D01*
X134263524Y-127801714D01*
X134358762Y-127849333D01*
X134406381Y-127896952D01*
X134454000Y-127992190D01*
X134454000Y-128277905D01*
X134406381Y-128373143D01*
X134358762Y-128420762D01*
X134263524Y-128468381D01*
X134120666Y-128468381D01*
X134882571Y-127801714D02*
X134882571Y-128801714D01*
X134882571Y-127849333D02*
X134977809Y-127801714D01*
X135168286Y-127801714D01*
X135263524Y-127849333D01*
X135311143Y-127896952D01*
X135358762Y-127992190D01*
X135358762Y-128277905D01*
X135311143Y-128373143D01*
X135263524Y-128420762D01*
X135168286Y-128468381D01*
X134977809Y-128468381D01*
X134882571Y-128420762D01*
X136168286Y-128420762D02*
X136073048Y-128468381D01*
X135882571Y-128468381D01*
X135787333Y-128420762D01*
X135739714Y-128325524D01*
X135739714Y-127944571D01*
X135787333Y-127849333D01*
X135882571Y-127801714D01*
X136073048Y-127801714D01*
X136168286Y-127849333D01*
X136215905Y-127944571D01*
X136215905Y-128039810D01*
X135739714Y-128135048D01*
X136644476Y-128468381D02*
X136644476Y-127801714D01*
X136644476Y-127992190D02*
X136692095Y-127896952D01*
X136739714Y-127849333D01*
X136834952Y-127801714D01*
X136930191Y-127801714D01*
X138025429Y-128468381D02*
X138025429Y-127468381D01*
X138025429Y-127849333D02*
X138120667Y-127801714D01*
X138311144Y-127801714D01*
X138406382Y-127849333D01*
X138454001Y-127896952D01*
X138501620Y-127992190D01*
X138501620Y-128277905D01*
X138454001Y-128373143D01*
X138406382Y-128420762D01*
X138311144Y-128468381D01*
X138120667Y-128468381D01*
X138025429Y-128420762D01*
X138834953Y-127801714D02*
X139073048Y-128468381D01*
X139311144Y-127801714D02*
X139073048Y-128468381D01*
X138977810Y-128706476D01*
X138930191Y-128754095D01*
X138834953Y-128801714D01*
X140977811Y-127516000D02*
X140882573Y-127468381D01*
X140739716Y-127468381D01*
X140596858Y-127516000D01*
X140501620Y-127611238D01*
X140454001Y-127706476D01*
X140406382Y-127896952D01*
X140406382Y-128039810D01*
X140454001Y-128230286D01*
X140501620Y-128325524D01*
X140596858Y-128420762D01*
X140739716Y-128468381D01*
X140834954Y-128468381D01*
X140977811Y-128420762D01*
X141025430Y-128373143D01*
X141025430Y-128039810D01*
X140834954Y-128039810D01*
X141882573Y-128468381D02*
X141882573Y-127944571D01*
X141834954Y-127849333D01*
X141739716Y-127801714D01*
X141549239Y-127801714D01*
X141454001Y-127849333D01*
X141882573Y-128420762D02*
X141787335Y-128468381D01*
X141549239Y-128468381D01*
X141454001Y-128420762D01*
X141406382Y-128325524D01*
X141406382Y-128230286D01*
X141454001Y-128135048D01*
X141549239Y-128087429D01*
X141787335Y-128087429D01*
X141882573Y-128039810D01*
X142787335Y-127801714D02*
X142787335Y-128468381D01*
X142358763Y-127801714D02*
X142358763Y-128325524D01*
X142406382Y-128420762D01*
X142501620Y-128468381D01*
X142644478Y-128468381D01*
X142739716Y-128420762D01*
X142787335Y-128373143D01*
X143692097Y-128468381D02*
X143692097Y-127468381D01*
X143692097Y-128420762D02*
X143596859Y-128468381D01*
X143406382Y-128468381D01*
X143311144Y-128420762D01*
X143263525Y-128373143D01*
X143215906Y-128277905D01*
X143215906Y-127992190D01*
X143263525Y-127896952D01*
X143311144Y-127849333D01*
X143406382Y-127801714D01*
X143596859Y-127801714D01*
X143692097Y-127849333D01*
X144168287Y-128468381D02*
X144168287Y-127801714D01*
X144168287Y-127468381D02*
X144120668Y-127516000D01*
X144168287Y-127563619D01*
X144215906Y-127516000D01*
X144168287Y-127468381D01*
X144168287Y-127563619D01*
X145120668Y-128468381D02*
X144644477Y-128468381D01*
X144644477Y-127468381D01*
X145882573Y-128468381D02*
X145882573Y-127944571D01*
X145834954Y-127849333D01*
X145739716Y-127801714D01*
X145549239Y-127801714D01*
X145454001Y-127849333D01*
X145882573Y-128420762D02*
X145787335Y-128468381D01*
X145549239Y-128468381D01*
X145454001Y-128420762D01*
X145406382Y-128325524D01*
X145406382Y-128230286D01*
X145454001Y-128135048D01*
X145549239Y-128087429D01*
X145787335Y-128087429D01*
X145882573Y-128039810D01*
X146358763Y-128468381D02*
X146358763Y-127468381D01*
X146358763Y-127849333D02*
X146454001Y-127801714D01*
X146644478Y-127801714D01*
X146739716Y-127849333D01*
X146787335Y-127896952D01*
X146834954Y-127992190D01*
X146834954Y-128277905D01*
X146787335Y-128373143D01*
X146739716Y-128420762D01*
X146644478Y-128468381D01*
X146454001Y-128468381D01*
X146358763Y-128420762D01*
X147215906Y-128420762D02*
X147311144Y-128468381D01*
X147501620Y-128468381D01*
X147596859Y-128420762D01*
X147644478Y-128325524D01*
X147644478Y-128277905D01*
X147596859Y-128182667D01*
X147501620Y-128135048D01*
X147358763Y-128135048D01*
X147263525Y-128087429D01*
X147215906Y-127992190D01*
X147215906Y-127944571D01*
X147263525Y-127849333D01*
X147358763Y-127801714D01*
X147501620Y-127801714D01*
X147596859Y-127849333D01*
X148787335Y-127563619D02*
X148834954Y-127516000D01*
X148930192Y-127468381D01*
X149168288Y-127468381D01*
X149263526Y-127516000D01*
X149311145Y-127563619D01*
X149358764Y-127658857D01*
X149358764Y-127754095D01*
X149311145Y-127896952D01*
X148739716Y-128468381D01*
X149358764Y-128468381D01*
X149977811Y-127468381D02*
X150073050Y-127468381D01*
X150168288Y-127516000D01*
X150215907Y-127563619D01*
X150263526Y-127658857D01*
X150311145Y-127849333D01*
X150311145Y-128087429D01*
X150263526Y-128277905D01*
X150215907Y-128373143D01*
X150168288Y-128420762D01*
X150073050Y-128468381D01*
X149977811Y-128468381D01*
X149882573Y-128420762D01*
X149834954Y-128373143D01*
X149787335Y-128277905D01*
X149739716Y-128087429D01*
X149739716Y-127849333D01*
X149787335Y-127658857D01*
X149834954Y-127563619D01*
X149882573Y-127516000D01*
X149977811Y-127468381D01*
X151263526Y-128468381D02*
X150692097Y-128468381D01*
X150977811Y-128468381D02*
X150977811Y-127468381D01*
X150882573Y-127611238D01*
X150787335Y-127706476D01*
X150692097Y-127754095D01*
X151834954Y-127896952D02*
X151739716Y-127849333D01*
X151692097Y-127801714D01*
X151644478Y-127706476D01*
X151644478Y-127658857D01*
X151692097Y-127563619D01*
X151739716Y-127516000D01*
X151834954Y-127468381D01*
X152025431Y-127468381D01*
X152120669Y-127516000D01*
X152168288Y-127563619D01*
X152215907Y-127658857D01*
X152215907Y-127706476D01*
X152168288Y-127801714D01*
X152120669Y-127849333D01*
X152025431Y-127896952D01*
X151834954Y-127896952D01*
X151739716Y-127944571D01*
X151692097Y-127992190D01*
X151644478Y-128087429D01*
X151644478Y-128277905D01*
X151692097Y-128373143D01*
X151739716Y-128420762D01*
X151834954Y-128468381D01*
X152025431Y-128468381D01*
X152120669Y-128420762D01*
X152168288Y-128373143D01*
X152215907Y-128277905D01*
X152215907Y-128087429D01*
X152168288Y-127992190D01*
X152120669Y-127944571D01*
X152025431Y-127896952D01*
D12*
X132579000Y-113046000D02*
X132579000Y-115046000D01*
X134629000Y-115046000D02*
X134629000Y-113046000D01*
X145533000Y-112792000D02*
X145533000Y-114792000D01*
X147583000Y-114792000D02*
X147583000Y-112792000D01*
X146803000Y-120666000D02*
X146803000Y-122666000D01*
X148853000Y-122666000D02*
X148853000Y-120666000D01*
X148853000Y-86852000D02*
X148853000Y-84852000D01*
X146803000Y-84852000D02*
X146803000Y-86852000D01*
X167370000Y-103877000D02*
X165370000Y-103877000D01*
X165370000Y-105927000D02*
X167370000Y-105927000D01*
X145025000Y-74946000D02*
X145025000Y-76946000D01*
X147075000Y-76946000D02*
X147075000Y-74946000D01*
X117110000Y-82813000D02*
X119110000Y-82813000D01*
X119110000Y-80763000D02*
X117110000Y-80763000D01*
X173999000Y-90662000D02*
X173999000Y-88662000D01*
X171949000Y-88662000D02*
X171949000Y-90662000D01*
X130361000Y-113046000D02*
X130361000Y-115046000D01*
X128211000Y-115046000D02*
X128211000Y-113046000D01*
X133409000Y-84884000D02*
X133409000Y-86884000D01*
X131259000Y-86884000D02*
X131259000Y-84884000D01*
X134307000Y-86820000D02*
X134307000Y-84820000D01*
X136457000Y-84820000D02*
X136457000Y-86820000D01*
X153983000Y-101870000D02*
X153983000Y-103870000D01*
X151833000Y-103870000D02*
X151833000Y-101870000D01*
X143705000Y-86852000D02*
X143705000Y-84852000D01*
X145855000Y-84852000D02*
X145855000Y-86852000D01*
X119110000Y-79815000D02*
X117110000Y-79815000D01*
X117110000Y-77665000D02*
X119110000Y-77665000D01*
X170747000Y-88662000D02*
X170747000Y-90662000D01*
X168597000Y-90662000D02*
X168597000Y-88662000D01*
X132529000Y-76946000D02*
X132529000Y-74946000D01*
X134679000Y-74946000D02*
X134679000Y-76946000D01*
D13*
X105000000Y-83500000D02*
X111000000Y-83500000D01*
X105500000Y-69000000D02*
X105500000Y-66500000D01*
X110500000Y-66500000D02*
X105500000Y-66500000D01*
X110500000Y-66500000D02*
X110500000Y-69000000D01*
X105000000Y-69000000D02*
X111000000Y-69000000D01*
X111000000Y-69000000D02*
X111000000Y-83500000D01*
X105000000Y-83500000D02*
X105000000Y-69000000D01*
X169000000Y-83500000D02*
X175000000Y-83500000D01*
X169500000Y-69000000D02*
X169500000Y-66500000D01*
X174500000Y-66500000D02*
X169500000Y-66500000D01*
X174500000Y-66500000D02*
X174500000Y-69000000D01*
X169000000Y-69000000D02*
X175000000Y-69000000D01*
X175000000Y-69000000D02*
X175000000Y-83500000D01*
X169000000Y-83500000D02*
X169000000Y-69000000D01*
D14*
X79700000Y-89200000D02*
X79300000Y-89200000D01*
X79700000Y-88800000D02*
X79700000Y-89200000D01*
X79300000Y-88800000D02*
X79700000Y-88800000D01*
X78800000Y-88300000D02*
X79300000Y-88300000D01*
X78400000Y-88800000D02*
X78800000Y-88800000D01*
X78400000Y-89200000D02*
X78400000Y-88800000D01*
X78800000Y-89200000D02*
X78400000Y-89200000D01*
X78800000Y-89700000D02*
X78800000Y-89200000D01*
X79300000Y-89700000D02*
X78800000Y-89700000D01*
X79300000Y-89200000D02*
X79300000Y-89700000D01*
X79300000Y-88800000D02*
X79300000Y-88300000D01*
X78800000Y-88300000D02*
X78800000Y-88800000D01*
X89700000Y-110200000D02*
X89700000Y-110700000D01*
X90200000Y-110700000D02*
X90200000Y-110200000D01*
X90200000Y-111100000D02*
X90200000Y-111600000D01*
X90200000Y-111600000D02*
X89700000Y-111600000D01*
X89700000Y-111600000D02*
X89700000Y-111100000D01*
X89700000Y-111100000D02*
X89300000Y-111100000D01*
X89300000Y-111100000D02*
X89300000Y-110700000D01*
X89300000Y-110700000D02*
X89700000Y-110700000D01*
X89700000Y-110200000D02*
X90200000Y-110200000D01*
X90200000Y-110700000D02*
X90600000Y-110700000D01*
X90600000Y-110700000D02*
X90600000Y-111100000D01*
X90600000Y-111100000D02*
X90200000Y-111100000D01*
X87900000Y-112900000D02*
X87900000Y-85900000D01*
X91900000Y-112900000D02*
X87900000Y-112900000D01*
X88900000Y-113900000D02*
X88900000Y-112900000D01*
X88900000Y-113900000D02*
X90900000Y-113900000D01*
X90900000Y-112900000D02*
X90900000Y-113900000D01*
X91900000Y-85900000D02*
X91900000Y-112900000D01*
X91900000Y-85900000D02*
X87900000Y-85900000D01*
X77050000Y-113850000D02*
X81050000Y-113850000D01*
X77050000Y-113850000D02*
X77050000Y-86850000D01*
X78050000Y-86850000D02*
X78050000Y-85850000D01*
X80050000Y-85850000D02*
X78050000Y-85850000D01*
X80050000Y-85850000D02*
X80050000Y-86850000D01*
X77050000Y-86850000D02*
X81050000Y-86850000D01*
X81050000Y-86850000D02*
X81050000Y-113850000D01*
D12*
X95620000Y-72820000D02*
X73380000Y-72820000D01*
X73380000Y-72820000D02*
X73380000Y-127180000D01*
X73380000Y-127180000D02*
X95620000Y-127180000D01*
X95620000Y-72820000D02*
X95620000Y-127180000D01*
D14*
X190700000Y-89200000D02*
X190300000Y-89200000D01*
X190700000Y-88800000D02*
X190700000Y-89200000D01*
X190300000Y-88800000D02*
X190700000Y-88800000D01*
X189800000Y-88300000D02*
X190300000Y-88300000D01*
X189400000Y-88800000D02*
X189800000Y-88800000D01*
X189400000Y-89200000D02*
X189400000Y-88800000D01*
X189800000Y-89200000D02*
X189400000Y-89200000D01*
X189800000Y-89700000D02*
X189800000Y-89200000D01*
X190300000Y-89700000D02*
X189800000Y-89700000D01*
X190300000Y-89200000D02*
X190300000Y-89700000D01*
X190300000Y-88800000D02*
X190300000Y-88300000D01*
X189800000Y-88300000D02*
X189800000Y-88800000D01*
X200700000Y-110200000D02*
X200700000Y-110700000D01*
X201200000Y-110700000D02*
X201200000Y-110200000D01*
X201200000Y-111100000D02*
X201200000Y-111600000D01*
X201200000Y-111600000D02*
X200700000Y-111600000D01*
X200700000Y-111600000D02*
X200700000Y-111100000D01*
X200700000Y-111100000D02*
X200300000Y-111100000D01*
X200300000Y-111100000D02*
X200300000Y-110700000D01*
X200300000Y-110700000D02*
X200700000Y-110700000D01*
X200700000Y-110200000D02*
X201200000Y-110200000D01*
X201200000Y-110700000D02*
X201600000Y-110700000D01*
X201600000Y-110700000D02*
X201600000Y-111100000D01*
X201600000Y-111100000D02*
X201200000Y-111100000D01*
X198900000Y-112900000D02*
X198900000Y-85900000D01*
X202900000Y-112900000D02*
X198900000Y-112900000D01*
X199900000Y-113900000D02*
X199900000Y-112900000D01*
X199900000Y-113900000D02*
X201900000Y-113900000D01*
X201900000Y-112900000D02*
X201900000Y-113900000D01*
X202900000Y-85900000D02*
X202900000Y-112900000D01*
X202900000Y-85900000D02*
X198900000Y-85900000D01*
X188050000Y-113850000D02*
X192050000Y-113850000D01*
X188050000Y-113850000D02*
X188050000Y-86850000D01*
X189050000Y-86850000D02*
X189050000Y-85850000D01*
X191050000Y-85850000D02*
X189050000Y-85850000D01*
X191050000Y-85850000D02*
X191050000Y-86850000D01*
X188050000Y-86850000D02*
X192050000Y-86850000D01*
X192050000Y-86850000D02*
X192050000Y-113850000D01*
D12*
X206620000Y-72820000D02*
X184380000Y-72820000D01*
X184380000Y-72820000D02*
X184380000Y-127180000D01*
X184380000Y-127180000D02*
X206620000Y-127180000D01*
X206620000Y-72820000D02*
X206620000Y-127180000D01*
D14*
X129900000Y-100900000D02*
G75*
G03X130800000Y-100000000I0J900000D01*
G01*
X130800000Y-100000000D02*
G75*
G03X129900000Y-99100000I-900000J0D01*
G01*
D12*
X129840000Y-96000000D02*
X129840000Y-104000000D01*
X150160000Y-96000000D02*
X150160000Y-104000000D01*
X124500000Y-100000000D02*
G75*
G03X124500000Y-100000000I-8500000J0D01*
G01*
X109400000Y-110500000D02*
X109400000Y-105330000D01*
X122600000Y-110500000D02*
X109400000Y-110500000D01*
X122600000Y-105330000D02*
X122600000Y-110500000D01*
X167000000Y-84000000D02*
G75*
G03X167000000Y-84000000I-8500000J0D01*
G01*
X151900000Y-94500000D02*
X151900000Y-89330000D01*
X165100000Y-94500000D02*
X151900000Y-94500000D01*
X165100000Y-89330000D02*
X165100000Y-94500000D01*
X167000000Y-116000000D02*
G75*
G03X167000000Y-116000000I-8500000J0D01*
G01*
X169000000Y-122600000D02*
X163830000Y-122600000D01*
X169000000Y-109400000D02*
X169000000Y-122600000D01*
X163830000Y-109400000D02*
X169000000Y-109400000D01*
X138150000Y-71600000D02*
X138150000Y-70600000D01*
X137650000Y-71100000D02*
X138650000Y-71100000D01*
X140900000Y-73600000D02*
G75*
G03X140900000Y-73600000I-1000000J0D01*
G01*
X138500000Y-74870000D02*
X141300000Y-74870000D01*
X138500000Y-72330000D02*
X141300000Y-72330000D01*
X133564334Y-119102143D02*
X133516715Y-119149762D01*
X133373858Y-119197381D01*
X133278620Y-119197381D01*
X133135762Y-119149762D01*
X133040524Y-119054524D01*
X132992905Y-118959286D01*
X132945286Y-118768810D01*
X132945286Y-118625952D01*
X132992905Y-118435476D01*
X133040524Y-118340238D01*
X133135762Y-118245000D01*
X133278620Y-118197381D01*
X133373858Y-118197381D01*
X133516715Y-118245000D01*
X133564334Y-118292619D01*
X134516715Y-119197381D02*
X133945286Y-119197381D01*
X134231000Y-119197381D02*
X134231000Y-118197381D01*
X134135762Y-118340238D01*
X134040524Y-118435476D01*
X133945286Y-118483095D01*
X132786572Y-120975381D02*
X132215143Y-120975381D01*
X132500857Y-120975381D02*
X132500857Y-119975381D01*
X132405619Y-120118238D01*
X132310381Y-120213476D01*
X132215143Y-120261095D01*
X133405619Y-119975381D02*
X133500858Y-119975381D01*
X133596096Y-120023000D01*
X133643715Y-120070619D01*
X133691334Y-120165857D01*
X133738953Y-120356333D01*
X133738953Y-120594429D01*
X133691334Y-120784905D01*
X133643715Y-120880143D01*
X133596096Y-120927762D01*
X133500858Y-120975381D01*
X133405619Y-120975381D01*
X133310381Y-120927762D01*
X133262762Y-120880143D01*
X133215143Y-120784905D01*
X133167524Y-120594429D01*
X133167524Y-120356333D01*
X133215143Y-120165857D01*
X133262762Y-120070619D01*
X133310381Y-120023000D01*
X133405619Y-119975381D01*
X134596096Y-120308714D02*
X134596096Y-120975381D01*
X134167524Y-120308714D02*
X134167524Y-120832524D01*
X134215143Y-120927762D01*
X134310381Y-120975381D01*
X134453239Y-120975381D01*
X134548477Y-120927762D01*
X134596096Y-120880143D01*
X135405620Y-120451571D02*
X135072286Y-120451571D01*
X135072286Y-120975381D02*
X135072286Y-119975381D01*
X135548477Y-119975381D01*
X146264334Y-118721143D02*
X146216715Y-118768762D01*
X146073858Y-118816381D01*
X145978620Y-118816381D01*
X145835762Y-118768762D01*
X145740524Y-118673524D01*
X145692905Y-118578286D01*
X145645286Y-118387810D01*
X145645286Y-118244952D01*
X145692905Y-118054476D01*
X145740524Y-117959238D01*
X145835762Y-117864000D01*
X145978620Y-117816381D01*
X146073858Y-117816381D01*
X146216715Y-117864000D01*
X146264334Y-117911619D01*
X146645286Y-117911619D02*
X146692905Y-117864000D01*
X146788143Y-117816381D01*
X147026239Y-117816381D01*
X147121477Y-117864000D01*
X147169096Y-117911619D01*
X147216715Y-118006857D01*
X147216715Y-118102095D01*
X147169096Y-118244952D01*
X146597667Y-118816381D01*
X147216715Y-118816381D01*
X144502381Y-120467381D02*
X143930952Y-120467381D01*
X144216666Y-120467381D02*
X144216666Y-119467381D01*
X144121428Y-119610238D01*
X144026190Y-119705476D01*
X143930952Y-119753095D01*
X145121428Y-119467381D02*
X145216667Y-119467381D01*
X145311905Y-119515000D01*
X145359524Y-119562619D01*
X145407143Y-119657857D01*
X145454762Y-119848333D01*
X145454762Y-120086429D01*
X145407143Y-120276905D01*
X145359524Y-120372143D01*
X145311905Y-120419762D01*
X145216667Y-120467381D01*
X145121428Y-120467381D01*
X145026190Y-120419762D01*
X144978571Y-120372143D01*
X144930952Y-120276905D01*
X144883333Y-120086429D01*
X144883333Y-119848333D01*
X144930952Y-119657857D01*
X144978571Y-119562619D01*
X145026190Y-119515000D01*
X145121428Y-119467381D01*
X146073809Y-119467381D02*
X146169048Y-119467381D01*
X146264286Y-119515000D01*
X146311905Y-119562619D01*
X146359524Y-119657857D01*
X146407143Y-119848333D01*
X146407143Y-120086429D01*
X146359524Y-120276905D01*
X146311905Y-120372143D01*
X146264286Y-120419762D01*
X146169048Y-120467381D01*
X146073809Y-120467381D01*
X145978571Y-120419762D01*
X145930952Y-120372143D01*
X145883333Y-120276905D01*
X145835714Y-120086429D01*
X145835714Y-119848333D01*
X145883333Y-119657857D01*
X145930952Y-119562619D01*
X145978571Y-119515000D01*
X146073809Y-119467381D01*
X146835714Y-119800714D02*
X146835714Y-120467381D01*
X146835714Y-119895952D02*
X146883333Y-119848333D01*
X146978571Y-119800714D01*
X147121429Y-119800714D01*
X147216667Y-119848333D01*
X147264286Y-119943571D01*
X147264286Y-120467381D01*
X148073810Y-119943571D02*
X147740476Y-119943571D01*
X147740476Y-120467381D02*
X147740476Y-119467381D01*
X148216667Y-119467381D01*
X147661334Y-126722143D02*
X147613715Y-126769762D01*
X147470858Y-126817381D01*
X147375620Y-126817381D01*
X147232762Y-126769762D01*
X147137524Y-126674524D01*
X147089905Y-126579286D01*
X147042286Y-126388810D01*
X147042286Y-126245952D01*
X147089905Y-126055476D01*
X147137524Y-125960238D01*
X147232762Y-125865000D01*
X147375620Y-125817381D01*
X147470858Y-125817381D01*
X147613715Y-125865000D01*
X147661334Y-125912619D01*
X147994667Y-125817381D02*
X148613715Y-125817381D01*
X148280381Y-126198333D01*
X148423239Y-126198333D01*
X148518477Y-126245952D01*
X148566096Y-126293571D01*
X148613715Y-126388810D01*
X148613715Y-126626905D01*
X148566096Y-126722143D01*
X148518477Y-126769762D01*
X148423239Y-126817381D01*
X148137524Y-126817381D01*
X148042286Y-126769762D01*
X147994667Y-126722143D01*
X149952381Y-124652381D02*
X149380952Y-124652381D01*
X149666666Y-124652381D02*
X149666666Y-123652381D01*
X149571428Y-123795238D01*
X149476190Y-123890476D01*
X149380952Y-123938095D01*
X150571428Y-123652381D02*
X150666667Y-123652381D01*
X150761905Y-123700000D01*
X150809524Y-123747619D01*
X150857143Y-123842857D01*
X150904762Y-124033333D01*
X150904762Y-124271429D01*
X150857143Y-124461905D01*
X150809524Y-124557143D01*
X150761905Y-124604762D01*
X150666667Y-124652381D01*
X150571428Y-124652381D01*
X150476190Y-124604762D01*
X150428571Y-124557143D01*
X150380952Y-124461905D01*
X150333333Y-124271429D01*
X150333333Y-124033333D01*
X150380952Y-123842857D01*
X150428571Y-123747619D01*
X150476190Y-123700000D01*
X150571428Y-123652381D01*
X151523809Y-123652381D02*
X151619048Y-123652381D01*
X151714286Y-123700000D01*
X151761905Y-123747619D01*
X151809524Y-123842857D01*
X151857143Y-124033333D01*
X151857143Y-124271429D01*
X151809524Y-124461905D01*
X151761905Y-124557143D01*
X151714286Y-124604762D01*
X151619048Y-124652381D01*
X151523809Y-124652381D01*
X151428571Y-124604762D01*
X151380952Y-124557143D01*
X151333333Y-124461905D01*
X151285714Y-124271429D01*
X151285714Y-124033333D01*
X151333333Y-123842857D01*
X151380952Y-123747619D01*
X151428571Y-123700000D01*
X151523809Y-123652381D01*
X152285714Y-123985714D02*
X152285714Y-124652381D01*
X152285714Y-124080952D02*
X152333333Y-124033333D01*
X152428571Y-123985714D01*
X152571429Y-123985714D01*
X152666667Y-124033333D01*
X152714286Y-124128571D01*
X152714286Y-124652381D01*
X153523810Y-124128571D02*
X153190476Y-124128571D01*
X153190476Y-124652381D02*
X153190476Y-123652381D01*
X153666667Y-123652381D01*
X147661334Y-90527143D02*
X147613715Y-90574762D01*
X147470858Y-90622381D01*
X147375620Y-90622381D01*
X147232762Y-90574762D01*
X147137524Y-90479524D01*
X147089905Y-90384286D01*
X147042286Y-90193810D01*
X147042286Y-90050952D01*
X147089905Y-89860476D01*
X147137524Y-89765238D01*
X147232762Y-89670000D01*
X147375620Y-89622381D01*
X147470858Y-89622381D01*
X147613715Y-89670000D01*
X147661334Y-89717619D01*
X148518477Y-89955714D02*
X148518477Y-90622381D01*
X148280381Y-89574762D02*
X148042286Y-90289048D01*
X148661334Y-90289048D01*
X146652381Y-81352381D02*
X146080952Y-81352381D01*
X146366666Y-81352381D02*
X146366666Y-80352381D01*
X146271428Y-80495238D01*
X146176190Y-80590476D01*
X146080952Y-80638095D01*
X147271428Y-80352381D02*
X147366667Y-80352381D01*
X147461905Y-80400000D01*
X147509524Y-80447619D01*
X147557143Y-80542857D01*
X147604762Y-80733333D01*
X147604762Y-80971429D01*
X147557143Y-81161905D01*
X147509524Y-81257143D01*
X147461905Y-81304762D01*
X147366667Y-81352381D01*
X147271428Y-81352381D01*
X147176190Y-81304762D01*
X147128571Y-81257143D01*
X147080952Y-81161905D01*
X147033333Y-80971429D01*
X147033333Y-80733333D01*
X147080952Y-80542857D01*
X147128571Y-80447619D01*
X147176190Y-80400000D01*
X147271428Y-80352381D01*
X148223809Y-80352381D02*
X148319048Y-80352381D01*
X148414286Y-80400000D01*
X148461905Y-80447619D01*
X148509524Y-80542857D01*
X148557143Y-80733333D01*
X148557143Y-80971429D01*
X148509524Y-81161905D01*
X148461905Y-81257143D01*
X148414286Y-81304762D01*
X148319048Y-81352381D01*
X148223809Y-81352381D01*
X148128571Y-81304762D01*
X148080952Y-81257143D01*
X148033333Y-81161905D01*
X147985714Y-80971429D01*
X147985714Y-80733333D01*
X148033333Y-80542857D01*
X148080952Y-80447619D01*
X148128571Y-80400000D01*
X148223809Y-80352381D01*
X148985714Y-80685714D02*
X148985714Y-81352381D01*
X148985714Y-80780952D02*
X149033333Y-80733333D01*
X149128571Y-80685714D01*
X149271429Y-80685714D01*
X149366667Y-80733333D01*
X149414286Y-80828571D01*
X149414286Y-81352381D01*
X150223810Y-80828571D02*
X149890476Y-80828571D01*
X149890476Y-81352381D02*
X149890476Y-80352381D01*
X150366667Y-80352381D01*
X166203334Y-107559143D02*
X166155715Y-107606762D01*
X166012858Y-107654381D01*
X165917620Y-107654381D01*
X165774762Y-107606762D01*
X165679524Y-107511524D01*
X165631905Y-107416286D01*
X165584286Y-107225810D01*
X165584286Y-107082952D01*
X165631905Y-106892476D01*
X165679524Y-106797238D01*
X165774762Y-106702000D01*
X165917620Y-106654381D01*
X166012858Y-106654381D01*
X166155715Y-106702000D01*
X166203334Y-106749619D01*
X167108096Y-106654381D02*
X166631905Y-106654381D01*
X166584286Y-107130571D01*
X166631905Y-107082952D01*
X166727143Y-107035333D01*
X166965239Y-107035333D01*
X167060477Y-107082952D01*
X167108096Y-107130571D01*
X167155715Y-107225810D01*
X167155715Y-107463905D01*
X167108096Y-107559143D01*
X167060477Y-107606762D01*
X166965239Y-107654381D01*
X166727143Y-107654381D01*
X166631905Y-107606762D01*
X166584286Y-107559143D01*
X164822381Y-103054381D02*
X164250952Y-103054381D01*
X164536666Y-103054381D02*
X164536666Y-102054381D01*
X164441428Y-102197238D01*
X164346190Y-102292476D01*
X164250952Y-102340095D01*
X165441428Y-102054381D02*
X165536667Y-102054381D01*
X165631905Y-102102000D01*
X165679524Y-102149619D01*
X165727143Y-102244857D01*
X165774762Y-102435333D01*
X165774762Y-102673429D01*
X165727143Y-102863905D01*
X165679524Y-102959143D01*
X165631905Y-103006762D01*
X165536667Y-103054381D01*
X165441428Y-103054381D01*
X165346190Y-103006762D01*
X165298571Y-102959143D01*
X165250952Y-102863905D01*
X165203333Y-102673429D01*
X165203333Y-102435333D01*
X165250952Y-102244857D01*
X165298571Y-102149619D01*
X165346190Y-102102000D01*
X165441428Y-102054381D01*
X166393809Y-102054381D02*
X166489048Y-102054381D01*
X166584286Y-102102000D01*
X166631905Y-102149619D01*
X166679524Y-102244857D01*
X166727143Y-102435333D01*
X166727143Y-102673429D01*
X166679524Y-102863905D01*
X166631905Y-102959143D01*
X166584286Y-103006762D01*
X166489048Y-103054381D01*
X166393809Y-103054381D01*
X166298571Y-103006762D01*
X166250952Y-102959143D01*
X166203333Y-102863905D01*
X166155714Y-102673429D01*
X166155714Y-102435333D01*
X166203333Y-102244857D01*
X166250952Y-102149619D01*
X166298571Y-102102000D01*
X166393809Y-102054381D01*
X167155714Y-102387714D02*
X167155714Y-103054381D01*
X167155714Y-102482952D02*
X167203333Y-102435333D01*
X167298571Y-102387714D01*
X167441429Y-102387714D01*
X167536667Y-102435333D01*
X167584286Y-102530571D01*
X167584286Y-103054381D01*
X168393810Y-102530571D02*
X168060476Y-102530571D01*
X168060476Y-103054381D02*
X168060476Y-102054381D01*
X168536667Y-102054381D01*
X148550334Y-76303143D02*
X148502715Y-76350762D01*
X148359858Y-76398381D01*
X148264620Y-76398381D01*
X148121762Y-76350762D01*
X148026524Y-76255524D01*
X147978905Y-76160286D01*
X147931286Y-75969810D01*
X147931286Y-75826952D01*
X147978905Y-75636476D01*
X148026524Y-75541238D01*
X148121762Y-75446000D01*
X148264620Y-75398381D01*
X148359858Y-75398381D01*
X148502715Y-75446000D01*
X148550334Y-75493619D01*
X149407477Y-75398381D02*
X149217000Y-75398381D01*
X149121762Y-75446000D01*
X149074143Y-75493619D01*
X148978905Y-75636476D01*
X148931286Y-75826952D01*
X148931286Y-76207905D01*
X148978905Y-76303143D01*
X149026524Y-76350762D01*
X149121762Y-76398381D01*
X149312239Y-76398381D01*
X149407477Y-76350762D01*
X149455096Y-76303143D01*
X149502715Y-76207905D01*
X149502715Y-75969810D01*
X149455096Y-75874571D01*
X149407477Y-75826952D01*
X149312239Y-75779333D01*
X149121762Y-75779333D01*
X149026524Y-75826952D01*
X148978905Y-75874571D01*
X148931286Y-75969810D01*
X148534572Y-78049381D02*
X147963143Y-78049381D01*
X148248857Y-78049381D02*
X148248857Y-77049381D01*
X148153619Y-77192238D01*
X148058381Y-77287476D01*
X147963143Y-77335095D01*
X149153619Y-77049381D02*
X149248858Y-77049381D01*
X149344096Y-77097000D01*
X149391715Y-77144619D01*
X149439334Y-77239857D01*
X149486953Y-77430333D01*
X149486953Y-77668429D01*
X149439334Y-77858905D01*
X149391715Y-77954143D01*
X149344096Y-78001762D01*
X149248858Y-78049381D01*
X149153619Y-78049381D01*
X149058381Y-78001762D01*
X149010762Y-77954143D01*
X148963143Y-77858905D01*
X148915524Y-77668429D01*
X148915524Y-77430333D01*
X148963143Y-77239857D01*
X149010762Y-77144619D01*
X149058381Y-77097000D01*
X149153619Y-77049381D01*
X150344096Y-77382714D02*
X150344096Y-78049381D01*
X149915524Y-77382714D02*
X149915524Y-77906524D01*
X149963143Y-78001762D01*
X150058381Y-78049381D01*
X150201239Y-78049381D01*
X150296477Y-78001762D01*
X150344096Y-77954143D01*
X151153620Y-77525571D02*
X150820286Y-77525571D01*
X150820286Y-78049381D02*
X150820286Y-77049381D01*
X151296477Y-77049381D01*
X117943334Y-84939143D02*
X117895715Y-84986762D01*
X117752858Y-85034381D01*
X117657620Y-85034381D01*
X117514762Y-84986762D01*
X117419524Y-84891524D01*
X117371905Y-84796286D01*
X117324286Y-84605810D01*
X117324286Y-84462952D01*
X117371905Y-84272476D01*
X117419524Y-84177238D01*
X117514762Y-84082000D01*
X117657620Y-84034381D01*
X117752858Y-84034381D01*
X117895715Y-84082000D01*
X117943334Y-84129619D01*
X118276667Y-84034381D02*
X118943334Y-84034381D01*
X118514762Y-85034381D01*
X117038572Y-86685381D02*
X116467143Y-86685381D01*
X116752857Y-86685381D02*
X116752857Y-85685381D01*
X116657619Y-85828238D01*
X116562381Y-85923476D01*
X116467143Y-85971095D01*
X117657619Y-85685381D02*
X117752858Y-85685381D01*
X117848096Y-85733000D01*
X117895715Y-85780619D01*
X117943334Y-85875857D01*
X117990953Y-86066333D01*
X117990953Y-86304429D01*
X117943334Y-86494905D01*
X117895715Y-86590143D01*
X117848096Y-86637762D01*
X117752858Y-86685381D01*
X117657619Y-86685381D01*
X117562381Y-86637762D01*
X117514762Y-86590143D01*
X117467143Y-86494905D01*
X117419524Y-86304429D01*
X117419524Y-86066333D01*
X117467143Y-85875857D01*
X117514762Y-85780619D01*
X117562381Y-85733000D01*
X117657619Y-85685381D01*
X118848096Y-86018714D02*
X118848096Y-86685381D01*
X118419524Y-86018714D02*
X118419524Y-86542524D01*
X118467143Y-86637762D01*
X118562381Y-86685381D01*
X118705239Y-86685381D01*
X118800477Y-86637762D01*
X118848096Y-86590143D01*
X119657620Y-86161571D02*
X119324286Y-86161571D01*
X119324286Y-86685381D02*
X119324286Y-85685381D01*
X119800477Y-85685381D01*
X173061334Y-94845143D02*
X173013715Y-94892762D01*
X172870858Y-94940381D01*
X172775620Y-94940381D01*
X172632762Y-94892762D01*
X172537524Y-94797524D01*
X172489905Y-94702286D01*
X172442286Y-94511810D01*
X172442286Y-94368952D01*
X172489905Y-94178476D01*
X172537524Y-94083238D01*
X172632762Y-93988000D01*
X172775620Y-93940381D01*
X172870858Y-93940381D01*
X173013715Y-93988000D01*
X173061334Y-94035619D01*
X173632762Y-94368952D02*
X173537524Y-94321333D01*
X173489905Y-94273714D01*
X173442286Y-94178476D01*
X173442286Y-94130857D01*
X173489905Y-94035619D01*
X173537524Y-93988000D01*
X173632762Y-93940381D01*
X173823239Y-93940381D01*
X173918477Y-93988000D01*
X173966096Y-94035619D01*
X174013715Y-94130857D01*
X174013715Y-94178476D01*
X173966096Y-94273714D01*
X173918477Y-94321333D01*
X173823239Y-94368952D01*
X173632762Y-94368952D01*
X173537524Y-94416571D01*
X173489905Y-94464190D01*
X173442286Y-94559429D01*
X173442286Y-94749905D01*
X173489905Y-94845143D01*
X173537524Y-94892762D01*
X173632762Y-94940381D01*
X173823239Y-94940381D01*
X173918477Y-94892762D01*
X173966096Y-94845143D01*
X174013715Y-94749905D01*
X174013715Y-94559429D01*
X173966096Y-94464190D01*
X173918477Y-94416571D01*
X173823239Y-94368952D01*
X175458572Y-90368381D02*
X174887143Y-90368381D01*
X175172857Y-90368381D02*
X175172857Y-89368381D01*
X175077619Y-89511238D01*
X174982381Y-89606476D01*
X174887143Y-89654095D01*
X176077619Y-89368381D02*
X176172858Y-89368381D01*
X176268096Y-89416000D01*
X176315715Y-89463619D01*
X176363334Y-89558857D01*
X176410953Y-89749333D01*
X176410953Y-89987429D01*
X176363334Y-90177905D01*
X176315715Y-90273143D01*
X176268096Y-90320762D01*
X176172858Y-90368381D01*
X176077619Y-90368381D01*
X175982381Y-90320762D01*
X175934762Y-90273143D01*
X175887143Y-90177905D01*
X175839524Y-89987429D01*
X175839524Y-89749333D01*
X175887143Y-89558857D01*
X175934762Y-89463619D01*
X175982381Y-89416000D01*
X176077619Y-89368381D01*
X177268096Y-89701714D02*
X177268096Y-90368381D01*
X176839524Y-89701714D02*
X176839524Y-90225524D01*
X176887143Y-90320762D01*
X176982381Y-90368381D01*
X177125239Y-90368381D01*
X177220477Y-90320762D01*
X177268096Y-90273143D01*
X178077620Y-89844571D02*
X177744286Y-89844571D01*
X177744286Y-90368381D02*
X177744286Y-89368381D01*
X178220477Y-89368381D01*
X129246334Y-119070381D02*
X128913000Y-118594190D01*
X128674905Y-119070381D02*
X128674905Y-118070381D01*
X129055858Y-118070381D01*
X129151096Y-118118000D01*
X129198715Y-118165619D01*
X129246334Y-118260857D01*
X129246334Y-118403714D01*
X129198715Y-118498952D01*
X129151096Y-118546571D01*
X129055858Y-118594190D01*
X128674905Y-118594190D01*
X130198715Y-119070381D02*
X129627286Y-119070381D01*
X129913000Y-119070381D02*
X129913000Y-118070381D01*
X129817762Y-118213238D01*
X129722524Y-118308476D01*
X129627286Y-118356095D01*
X127817715Y-119848381D02*
X127341524Y-119848381D01*
X127293905Y-120324571D01*
X127341524Y-120276952D01*
X127436762Y-120229333D01*
X127674858Y-120229333D01*
X127770096Y-120276952D01*
X127817715Y-120324571D01*
X127865334Y-120419810D01*
X127865334Y-120657905D01*
X127817715Y-120753143D01*
X127770096Y-120800762D01*
X127674858Y-120848381D01*
X127436762Y-120848381D01*
X127341524Y-120800762D01*
X127293905Y-120753143D01*
X128484381Y-119848381D02*
X128579620Y-119848381D01*
X128674858Y-119896000D01*
X128722477Y-119943619D01*
X128770096Y-120038857D01*
X128817715Y-120229333D01*
X128817715Y-120467429D01*
X128770096Y-120657905D01*
X128722477Y-120753143D01*
X128674858Y-120800762D01*
X128579620Y-120848381D01*
X128484381Y-120848381D01*
X128389143Y-120800762D01*
X128341524Y-120753143D01*
X128293905Y-120657905D01*
X128246286Y-120467429D01*
X128246286Y-120229333D01*
X128293905Y-120038857D01*
X128341524Y-119943619D01*
X128389143Y-119896000D01*
X128484381Y-119848381D01*
X129436762Y-119848381D02*
X129532001Y-119848381D01*
X129627239Y-119896000D01*
X129674858Y-119943619D01*
X129722477Y-120038857D01*
X129770096Y-120229333D01*
X129770096Y-120467429D01*
X129722477Y-120657905D01*
X129674858Y-120753143D01*
X129627239Y-120800762D01*
X129532001Y-120848381D01*
X129436762Y-120848381D01*
X129341524Y-120800762D01*
X129293905Y-120753143D01*
X129246286Y-120657905D01*
X129198667Y-120467429D01*
X129198667Y-120229333D01*
X129246286Y-120038857D01*
X129293905Y-119943619D01*
X129341524Y-119896000D01*
X129436762Y-119848381D01*
X130770096Y-120848381D02*
X130436762Y-120372190D01*
X130198667Y-120848381D02*
X130198667Y-119848381D01*
X130579620Y-119848381D01*
X130674858Y-119896000D01*
X130722477Y-119943619D01*
X130770096Y-120038857D01*
X130770096Y-120181714D01*
X130722477Y-120276952D01*
X130674858Y-120324571D01*
X130579620Y-120372190D01*
X130198667Y-120372190D01*
X132167334Y-90876381D02*
X131834000Y-90400190D01*
X131595905Y-90876381D02*
X131595905Y-89876381D01*
X131976858Y-89876381D01*
X132072096Y-89924000D01*
X132119715Y-89971619D01*
X132167334Y-90066857D01*
X132167334Y-90209714D01*
X132119715Y-90304952D01*
X132072096Y-90352571D01*
X131976858Y-90400190D01*
X131595905Y-90400190D01*
X132548286Y-89971619D02*
X132595905Y-89924000D01*
X132691143Y-89876381D01*
X132929239Y-89876381D01*
X133024477Y-89924000D01*
X133072096Y-89971619D01*
X133119715Y-90066857D01*
X133119715Y-90162095D01*
X133072096Y-90304952D01*
X132500667Y-90876381D01*
X133119715Y-90876381D01*
X131611762Y-81986381D02*
X131040333Y-81986381D01*
X131326047Y-81986381D02*
X131326047Y-80986381D01*
X131230809Y-81129238D01*
X131135571Y-81224476D01*
X131040333Y-81272095D01*
X132230809Y-80986381D02*
X132326048Y-80986381D01*
X132421286Y-81034000D01*
X132468905Y-81081619D01*
X132516524Y-81176857D01*
X132564143Y-81367333D01*
X132564143Y-81605429D01*
X132516524Y-81795905D01*
X132468905Y-81891143D01*
X132421286Y-81938762D01*
X132326048Y-81986381D01*
X132230809Y-81986381D01*
X132135571Y-81938762D01*
X132087952Y-81891143D01*
X132040333Y-81795905D01*
X131992714Y-81605429D01*
X131992714Y-81367333D01*
X132040333Y-81176857D01*
X132087952Y-81081619D01*
X132135571Y-81034000D01*
X132230809Y-80986381D01*
X132992714Y-81986381D02*
X132992714Y-80986381D01*
X133087952Y-81605429D02*
X133373667Y-81986381D01*
X133373667Y-81319714D02*
X132992714Y-81700667D01*
X135215334Y-90876381D02*
X134882000Y-90400190D01*
X134643905Y-90876381D02*
X134643905Y-89876381D01*
X135024858Y-89876381D01*
X135120096Y-89924000D01*
X135167715Y-89971619D01*
X135215334Y-90066857D01*
X135215334Y-90209714D01*
X135167715Y-90304952D01*
X135120096Y-90352571D01*
X135024858Y-90400190D01*
X134643905Y-90400190D01*
X135548667Y-89876381D02*
X136167715Y-89876381D01*
X135834381Y-90257333D01*
X135977239Y-90257333D01*
X136072477Y-90304952D01*
X136120096Y-90352571D01*
X136167715Y-90447810D01*
X136167715Y-90685905D01*
X136120096Y-90781143D01*
X136072477Y-90828762D01*
X135977239Y-90876381D01*
X135691524Y-90876381D01*
X135596286Y-90828762D01*
X135548667Y-90781143D01*
X134913762Y-81986381D02*
X134342333Y-81986381D01*
X134628047Y-81986381D02*
X134628047Y-80986381D01*
X134532809Y-81129238D01*
X134437571Y-81224476D01*
X134342333Y-81272095D01*
X135532809Y-80986381D02*
X135628048Y-80986381D01*
X135723286Y-81034000D01*
X135770905Y-81081619D01*
X135818524Y-81176857D01*
X135866143Y-81367333D01*
X135866143Y-81605429D01*
X135818524Y-81795905D01*
X135770905Y-81891143D01*
X135723286Y-81938762D01*
X135628048Y-81986381D01*
X135532809Y-81986381D01*
X135437571Y-81938762D01*
X135389952Y-81891143D01*
X135342333Y-81795905D01*
X135294714Y-81605429D01*
X135294714Y-81367333D01*
X135342333Y-81176857D01*
X135389952Y-81081619D01*
X135437571Y-81034000D01*
X135532809Y-80986381D01*
X136294714Y-81986381D02*
X136294714Y-80986381D01*
X136389952Y-81605429D02*
X136675667Y-81986381D01*
X136675667Y-81319714D02*
X136294714Y-81700667D01*
X155233334Y-102152381D02*
X154900000Y-101676190D01*
X154661905Y-102152381D02*
X154661905Y-101152381D01*
X155042858Y-101152381D01*
X155138096Y-101200000D01*
X155185715Y-101247619D01*
X155233334Y-101342857D01*
X155233334Y-101485714D01*
X155185715Y-101580952D01*
X155138096Y-101628571D01*
X155042858Y-101676190D01*
X154661905Y-101676190D01*
X156090477Y-101485714D02*
X156090477Y-102152381D01*
X155852381Y-101104762D02*
X155614286Y-101819048D01*
X156233334Y-101819048D01*
X155104762Y-104352381D02*
X154533333Y-104352381D01*
X154819047Y-104352381D02*
X154819047Y-103352381D01*
X154723809Y-103495238D01*
X154628571Y-103590476D01*
X154533333Y-103638095D01*
X155723809Y-103352381D02*
X155819048Y-103352381D01*
X155914286Y-103400000D01*
X155961905Y-103447619D01*
X156009524Y-103542857D01*
X156057143Y-103733333D01*
X156057143Y-103971429D01*
X156009524Y-104161905D01*
X155961905Y-104257143D01*
X155914286Y-104304762D01*
X155819048Y-104352381D01*
X155723809Y-104352381D01*
X155628571Y-104304762D01*
X155580952Y-104257143D01*
X155533333Y-104161905D01*
X155485714Y-103971429D01*
X155485714Y-103733333D01*
X155533333Y-103542857D01*
X155580952Y-103447619D01*
X155628571Y-103400000D01*
X155723809Y-103352381D01*
X156485714Y-104352381D02*
X156485714Y-103352381D01*
X156580952Y-103971429D02*
X156866667Y-104352381D01*
X156866667Y-103685714D02*
X156485714Y-104066667D01*
X144613334Y-90368381D02*
X144280000Y-89892190D01*
X144041905Y-90368381D02*
X144041905Y-89368381D01*
X144422858Y-89368381D01*
X144518096Y-89416000D01*
X144565715Y-89463619D01*
X144613334Y-89558857D01*
X144613334Y-89701714D01*
X144565715Y-89796952D01*
X144518096Y-89844571D01*
X144422858Y-89892190D01*
X144041905Y-89892190D01*
X145518096Y-89368381D02*
X145041905Y-89368381D01*
X144994286Y-89844571D01*
X145041905Y-89796952D01*
X145137143Y-89749333D01*
X145375239Y-89749333D01*
X145470477Y-89796952D01*
X145518096Y-89844571D01*
X145565715Y-89939810D01*
X145565715Y-90177905D01*
X145518096Y-90273143D01*
X145470477Y-90320762D01*
X145375239Y-90368381D01*
X145137143Y-90368381D01*
X145041905Y-90320762D01*
X144994286Y-90273143D01*
X142828572Y-81352381D02*
X142257143Y-81352381D01*
X142542857Y-81352381D02*
X142542857Y-80352381D01*
X142447619Y-80495238D01*
X142352381Y-80590476D01*
X142257143Y-80638095D01*
X143447619Y-80352381D02*
X143542858Y-80352381D01*
X143638096Y-80400000D01*
X143685715Y-80447619D01*
X143733334Y-80542857D01*
X143780953Y-80733333D01*
X143780953Y-80971429D01*
X143733334Y-81161905D01*
X143685715Y-81257143D01*
X143638096Y-81304762D01*
X143542858Y-81352381D01*
X143447619Y-81352381D01*
X143352381Y-81304762D01*
X143304762Y-81257143D01*
X143257143Y-81161905D01*
X143209524Y-80971429D01*
X143209524Y-80733333D01*
X143257143Y-80542857D01*
X143304762Y-80447619D01*
X143352381Y-80400000D01*
X143447619Y-80352381D01*
X144400000Y-80352381D02*
X144495239Y-80352381D01*
X144590477Y-80400000D01*
X144638096Y-80447619D01*
X144685715Y-80542857D01*
X144733334Y-80733333D01*
X144733334Y-80971429D01*
X144685715Y-81161905D01*
X144638096Y-81257143D01*
X144590477Y-81304762D01*
X144495239Y-81352381D01*
X144400000Y-81352381D01*
X144304762Y-81304762D01*
X144257143Y-81257143D01*
X144209524Y-81161905D01*
X144161905Y-80971429D01*
X144161905Y-80733333D01*
X144209524Y-80542857D01*
X144257143Y-80447619D01*
X144304762Y-80400000D01*
X144400000Y-80352381D01*
X145161905Y-81352381D02*
X145161905Y-80352381D01*
X145257143Y-80971429D02*
X145542858Y-81352381D01*
X145542858Y-80685714D02*
X145161905Y-81066667D01*
X117943334Y-76892381D02*
X117610000Y-76416190D01*
X117371905Y-76892381D02*
X117371905Y-75892381D01*
X117752858Y-75892381D01*
X117848096Y-75940000D01*
X117895715Y-75987619D01*
X117943334Y-76082857D01*
X117943334Y-76225714D01*
X117895715Y-76320952D01*
X117848096Y-76368571D01*
X117752858Y-76416190D01*
X117371905Y-76416190D01*
X118800477Y-75892381D02*
X118610000Y-75892381D01*
X118514762Y-75940000D01*
X118467143Y-75987619D01*
X118371905Y-76130476D01*
X118324286Y-76320952D01*
X118324286Y-76701905D01*
X118371905Y-76797143D01*
X118419524Y-76844762D01*
X118514762Y-76892381D01*
X118705239Y-76892381D01*
X118800477Y-76844762D01*
X118848096Y-76797143D01*
X118895715Y-76701905D01*
X118895715Y-76463810D01*
X118848096Y-76368571D01*
X118800477Y-76320952D01*
X118705239Y-76273333D01*
X118514762Y-76273333D01*
X118419524Y-76320952D01*
X118371905Y-76368571D01*
X118324286Y-76463810D01*
X118419524Y-75128381D02*
X118086190Y-74652190D01*
X117848095Y-75128381D02*
X117848095Y-74128381D01*
X118229048Y-74128381D01*
X118324286Y-74176000D01*
X118371905Y-74223619D01*
X118419524Y-74318857D01*
X118419524Y-74461714D01*
X118371905Y-74556952D01*
X118324286Y-74604571D01*
X118229048Y-74652190D01*
X117848095Y-74652190D01*
X169505334Y-94940381D02*
X169172000Y-94464190D01*
X168933905Y-94940381D02*
X168933905Y-93940381D01*
X169314858Y-93940381D01*
X169410096Y-93988000D01*
X169457715Y-94035619D01*
X169505334Y-94130857D01*
X169505334Y-94273714D01*
X169457715Y-94368952D01*
X169410096Y-94416571D01*
X169314858Y-94464190D01*
X168933905Y-94464190D01*
X169838667Y-93940381D02*
X170505334Y-93940381D01*
X170076762Y-94940381D01*
X167776804Y-90297261D02*
X167443470Y-89821070D01*
X167205375Y-90297261D02*
X167205375Y-89297261D01*
X167586328Y-89297261D01*
X167681566Y-89344880D01*
X167729185Y-89392499D01*
X167776804Y-89487737D01*
X167776804Y-89630594D01*
X167729185Y-89725832D01*
X167681566Y-89773451D01*
X167586328Y-89821070D01*
X167205375Y-89821070D01*
X130643334Y-76652381D02*
X130310000Y-76176190D01*
X130071905Y-76652381D02*
X130071905Y-75652381D01*
X130452858Y-75652381D01*
X130548096Y-75700000D01*
X130595715Y-75747619D01*
X130643334Y-75842857D01*
X130643334Y-75985714D01*
X130595715Y-76080952D01*
X130548096Y-76128571D01*
X130452858Y-76176190D01*
X130071905Y-76176190D01*
X131214762Y-76080952D02*
X131119524Y-76033333D01*
X131071905Y-75985714D01*
X131024286Y-75890476D01*
X131024286Y-75842857D01*
X131071905Y-75747619D01*
X131119524Y-75700000D01*
X131214762Y-75652381D01*
X131405239Y-75652381D01*
X131500477Y-75700000D01*
X131548096Y-75747619D01*
X131595715Y-75842857D01*
X131595715Y-75890476D01*
X131548096Y-75985714D01*
X131500477Y-76033333D01*
X131405239Y-76080952D01*
X131214762Y-76080952D01*
X131119524Y-76128571D01*
X131071905Y-76176190D01*
X131024286Y-76271429D01*
X131024286Y-76461905D01*
X131071905Y-76557143D01*
X131119524Y-76604762D01*
X131214762Y-76652381D01*
X131405239Y-76652381D01*
X131500477Y-76604762D01*
X131548096Y-76557143D01*
X131595715Y-76461905D01*
X131595715Y-76271429D01*
X131548096Y-76176190D01*
X131500477Y-76128571D01*
X131405239Y-76080952D01*
X131246524Y-78049381D02*
X130913190Y-77573190D01*
X130675095Y-78049381D02*
X130675095Y-77049381D01*
X131056048Y-77049381D01*
X131151286Y-77097000D01*
X131198905Y-77144619D01*
X131246524Y-77239857D01*
X131246524Y-77382714D01*
X131198905Y-77477952D01*
X131151286Y-77525571D01*
X131056048Y-77573190D01*
X130675095Y-77573190D01*
X101901667Y-77049381D02*
X101901667Y-77763667D01*
X101854047Y-77906524D01*
X101758809Y-78001762D01*
X101615952Y-78049381D01*
X101520714Y-78049381D01*
X102901667Y-78049381D02*
X102330238Y-78049381D01*
X102615952Y-78049381D02*
X102615952Y-77049381D01*
X102520714Y-77192238D01*
X102425476Y-77287476D01*
X102330238Y-77335095D01*
X101711191Y-75509381D02*
X101711191Y-74509381D01*
X102187381Y-75509381D02*
X102187381Y-74509381D01*
X102758810Y-75509381D01*
X102758810Y-74509381D01*
X176069667Y-79335381D02*
X176069667Y-80049667D01*
X176022047Y-80192524D01*
X175926809Y-80287762D01*
X175783952Y-80335381D01*
X175688714Y-80335381D01*
X176498238Y-79430619D02*
X176545857Y-79383000D01*
X176641095Y-79335381D01*
X176879191Y-79335381D01*
X176974429Y-79383000D01*
X177022048Y-79430619D01*
X177069667Y-79525857D01*
X177069667Y-79621095D01*
X177022048Y-79763952D01*
X176450619Y-80335381D01*
X177069667Y-80335381D01*
X176038000Y-77049381D02*
X176228477Y-77049381D01*
X176323715Y-77097000D01*
X176418953Y-77192238D01*
X176466572Y-77382714D01*
X176466572Y-77716048D01*
X176418953Y-77906524D01*
X176323715Y-78001762D01*
X176228477Y-78049381D01*
X176038000Y-78049381D01*
X175942762Y-78001762D01*
X175847524Y-77906524D01*
X175799905Y-77716048D01*
X175799905Y-77382714D01*
X175847524Y-77192238D01*
X175942762Y-77097000D01*
X176038000Y-77049381D01*
X176895143Y-77049381D02*
X176895143Y-77858905D01*
X176942762Y-77954143D01*
X176990381Y-78001762D01*
X177085619Y-78049381D01*
X177276096Y-78049381D01*
X177371334Y-78001762D01*
X177418953Y-77954143D01*
X177466572Y-77858905D01*
X177466572Y-77049381D01*
X177799905Y-77049381D02*
X178371334Y-77049381D01*
X178085619Y-78049381D02*
X178085619Y-77049381D01*
X97131286Y-124642571D02*
X97274143Y-124690190D01*
X97321762Y-124737810D01*
X97369381Y-124833048D01*
X97369381Y-124975905D01*
X97321762Y-125071143D01*
X97274143Y-125118762D01*
X97178905Y-125166381D01*
X96797952Y-125166381D01*
X96797952Y-124166381D01*
X97131286Y-124166381D01*
X97226524Y-124214000D01*
X97274143Y-124261619D01*
X97321762Y-124356857D01*
X97321762Y-124452095D01*
X97274143Y-124547333D01*
X97226524Y-124594952D01*
X97131286Y-124642571D01*
X96797952Y-124642571D01*
X97655095Y-124166381D02*
X98226524Y-124166381D01*
X97940809Y-125166381D02*
X97940809Y-124166381D01*
X98512238Y-124261619D02*
X98559857Y-124214000D01*
X98655095Y-124166381D01*
X98893191Y-124166381D01*
X98988429Y-124214000D01*
X99036048Y-124261619D01*
X99083667Y-124356857D01*
X99083667Y-124452095D01*
X99036048Y-124594952D01*
X98464619Y-125166381D01*
X99083667Y-125166381D01*
X97068237Y-122610571D02*
X97211094Y-122658190D01*
X97258713Y-122705810D01*
X97306332Y-122801048D01*
X97306332Y-122943905D01*
X97258713Y-123039143D01*
X97211094Y-123086762D01*
X97115856Y-123134381D01*
X96734903Y-123134381D01*
X96734903Y-122134381D01*
X97068237Y-122134381D01*
X97163475Y-122182000D01*
X97211094Y-122229619D01*
X97258713Y-122324857D01*
X97258713Y-122420095D01*
X97211094Y-122515333D01*
X97163475Y-122562952D01*
X97068237Y-122610571D01*
X96734903Y-122610571D01*
X98163475Y-123134381D02*
X98163475Y-122610571D01*
X98115856Y-122515333D01*
X98020618Y-122467714D01*
X97830141Y-122467714D01*
X97734903Y-122515333D01*
X98163475Y-123086762D02*
X98068237Y-123134381D01*
X97830141Y-123134381D01*
X97734903Y-123086762D01*
X97687284Y-122991524D01*
X97687284Y-122896286D01*
X97734903Y-122801048D01*
X97830141Y-122753429D01*
X98068237Y-122753429D01*
X98163475Y-122705810D01*
X98496808Y-122467714D02*
X98877760Y-122467714D01*
X98639665Y-122134381D02*
X98639665Y-122991524D01*
X98687284Y-123086762D01*
X98782522Y-123134381D01*
X98877760Y-123134381D01*
X99068237Y-122467714D02*
X99449189Y-122467714D01*
X99211094Y-122134381D02*
X99211094Y-122991524D01*
X99258713Y-123086762D01*
X99353951Y-123134381D01*
X99449189Y-123134381D01*
X100163476Y-123086762D02*
X100068238Y-123134381D01*
X99877761Y-123134381D01*
X99782523Y-123086762D01*
X99734904Y-122991524D01*
X99734904Y-122610571D01*
X99782523Y-122515333D01*
X99877761Y-122467714D01*
X100068238Y-122467714D01*
X100163476Y-122515333D01*
X100211095Y-122610571D01*
X100211095Y-122705810D01*
X99734904Y-122801048D01*
X100639666Y-123134381D02*
X100639666Y-122467714D01*
X100639666Y-122658190D02*
X100687285Y-122562952D01*
X100734904Y-122515333D01*
X100830142Y-122467714D01*
X100925381Y-122467714D01*
X101163476Y-122467714D02*
X101401571Y-123134381D01*
X101639667Y-122467714D02*
X101401571Y-123134381D01*
X101306333Y-123372476D01*
X101258714Y-123420095D01*
X101163476Y-123467714D01*
X102592048Y-123039143D02*
X102544429Y-123086762D01*
X102401572Y-123134381D01*
X102306334Y-123134381D01*
X102163476Y-123086762D01*
X102068238Y-122991524D01*
X102020619Y-122896286D01*
X101973000Y-122705810D01*
X101973000Y-122562952D01*
X102020619Y-122372476D01*
X102068238Y-122277238D01*
X102163476Y-122182000D01*
X102306334Y-122134381D01*
X102401572Y-122134381D01*
X102544429Y-122182000D01*
X102592048Y-122229619D01*
X103401572Y-123086762D02*
X103306334Y-123134381D01*
X103115857Y-123134381D01*
X103020619Y-123086762D01*
X102973000Y-122991524D01*
X102973000Y-122610571D01*
X103020619Y-122515333D01*
X103115857Y-122467714D01*
X103306334Y-122467714D01*
X103401572Y-122515333D01*
X103449191Y-122610571D01*
X103449191Y-122705810D01*
X102973000Y-122801048D01*
X104020619Y-123134381D02*
X103925381Y-123086762D01*
X103877762Y-122991524D01*
X103877762Y-122134381D01*
X104544429Y-123134381D02*
X104449191Y-123086762D01*
X104401572Y-122991524D01*
X104401572Y-122134381D01*
X104877763Y-122229619D02*
X104925382Y-122182000D01*
X105020620Y-122134381D01*
X105258716Y-122134381D01*
X105353954Y-122182000D01*
X105401573Y-122229619D01*
X105449192Y-122324857D01*
X105449192Y-122420095D01*
X105401573Y-122562952D01*
X104830144Y-123134381D01*
X105449192Y-123134381D01*
X105782525Y-123134381D02*
X106306335Y-122467714D01*
X105782525Y-122467714D02*
X106306335Y-123134381D01*
X181586286Y-124896571D02*
X181729143Y-124944190D01*
X181776762Y-124991810D01*
X181824381Y-125087048D01*
X181824381Y-125229905D01*
X181776762Y-125325143D01*
X181729143Y-125372762D01*
X181633905Y-125420381D01*
X181252952Y-125420381D01*
X181252952Y-124420381D01*
X181586286Y-124420381D01*
X181681524Y-124468000D01*
X181729143Y-124515619D01*
X181776762Y-124610857D01*
X181776762Y-124706095D01*
X181729143Y-124801333D01*
X181681524Y-124848952D01*
X181586286Y-124896571D01*
X181252952Y-124896571D01*
X182110095Y-124420381D02*
X182681524Y-124420381D01*
X182395809Y-125420381D02*
X182395809Y-124420381D01*
X183538667Y-125420381D02*
X182967238Y-125420381D01*
X183252952Y-125420381D02*
X183252952Y-124420381D01*
X183157714Y-124563238D01*
X183062476Y-124658476D01*
X182967238Y-124706095D01*
X174411237Y-122991571D02*
X174554094Y-123039190D01*
X174601713Y-123086810D01*
X174649332Y-123182048D01*
X174649332Y-123324905D01*
X174601713Y-123420143D01*
X174554094Y-123467762D01*
X174458856Y-123515381D01*
X174077903Y-123515381D01*
X174077903Y-122515381D01*
X174411237Y-122515381D01*
X174506475Y-122563000D01*
X174554094Y-122610619D01*
X174601713Y-122705857D01*
X174601713Y-122801095D01*
X174554094Y-122896333D01*
X174506475Y-122943952D01*
X174411237Y-122991571D01*
X174077903Y-122991571D01*
X175506475Y-123515381D02*
X175506475Y-122991571D01*
X175458856Y-122896333D01*
X175363618Y-122848714D01*
X175173141Y-122848714D01*
X175077903Y-122896333D01*
X175506475Y-123467762D02*
X175411237Y-123515381D01*
X175173141Y-123515381D01*
X175077903Y-123467762D01*
X175030284Y-123372524D01*
X175030284Y-123277286D01*
X175077903Y-123182048D01*
X175173141Y-123134429D01*
X175411237Y-123134429D01*
X175506475Y-123086810D01*
X175839808Y-122848714D02*
X176220760Y-122848714D01*
X175982665Y-122515381D02*
X175982665Y-123372524D01*
X176030284Y-123467762D01*
X176125522Y-123515381D01*
X176220760Y-123515381D01*
X176411237Y-122848714D02*
X176792189Y-122848714D01*
X176554094Y-122515381D02*
X176554094Y-123372524D01*
X176601713Y-123467762D01*
X176696951Y-123515381D01*
X176792189Y-123515381D01*
X177506476Y-123467762D02*
X177411238Y-123515381D01*
X177220761Y-123515381D01*
X177125523Y-123467762D01*
X177077904Y-123372524D01*
X177077904Y-122991571D01*
X177125523Y-122896333D01*
X177220761Y-122848714D01*
X177411238Y-122848714D01*
X177506476Y-122896333D01*
X177554095Y-122991571D01*
X177554095Y-123086810D01*
X177077904Y-123182048D01*
X177982666Y-123515381D02*
X177982666Y-122848714D01*
X177982666Y-123039190D02*
X178030285Y-122943952D01*
X178077904Y-122896333D01*
X178173142Y-122848714D01*
X178268381Y-122848714D01*
X178506476Y-122848714D02*
X178744571Y-123515381D01*
X178982667Y-122848714D02*
X178744571Y-123515381D01*
X178649333Y-123753476D01*
X178601714Y-123801095D01*
X178506476Y-123848714D01*
X179935048Y-123420143D02*
X179887429Y-123467762D01*
X179744572Y-123515381D01*
X179649334Y-123515381D01*
X179506476Y-123467762D01*
X179411238Y-123372524D01*
X179363619Y-123277286D01*
X179316000Y-123086810D01*
X179316000Y-122943952D01*
X179363619Y-122753476D01*
X179411238Y-122658238D01*
X179506476Y-122563000D01*
X179649334Y-122515381D01*
X179744572Y-122515381D01*
X179887429Y-122563000D01*
X179935048Y-122610619D01*
X180744572Y-123467762D02*
X180649334Y-123515381D01*
X180458857Y-123515381D01*
X180363619Y-123467762D01*
X180316000Y-123372524D01*
X180316000Y-122991571D01*
X180363619Y-122896333D01*
X180458857Y-122848714D01*
X180649334Y-122848714D01*
X180744572Y-122896333D01*
X180792191Y-122991571D01*
X180792191Y-123086810D01*
X180316000Y-123182048D01*
X181363619Y-123515381D02*
X181268381Y-123467762D01*
X181220762Y-123372524D01*
X181220762Y-122515381D01*
X181887429Y-123515381D02*
X181792191Y-123467762D01*
X181744572Y-123372524D01*
X181744572Y-122515381D01*
X182220763Y-122610619D02*
X182268382Y-122563000D01*
X182363620Y-122515381D01*
X182601716Y-122515381D01*
X182696954Y-122563000D01*
X182744573Y-122610619D01*
X182792192Y-122705857D01*
X182792192Y-122801095D01*
X182744573Y-122943952D01*
X182173144Y-123515381D01*
X182792192Y-123515381D01*
X183125525Y-123515381D02*
X183649335Y-122848714D01*
X183125525Y-122848714D02*
X183649335Y-123515381D01*
X127508095Y-104227381D02*
X127508095Y-105036905D01*
X127555714Y-105132143D01*
X127603333Y-105179762D01*
X127698571Y-105227381D01*
X127889048Y-105227381D01*
X127984286Y-105179762D01*
X128031905Y-105132143D01*
X128079524Y-105036905D01*
X128079524Y-104227381D01*
X129079524Y-105227381D02*
X128508095Y-105227381D01*
X128793809Y-105227381D02*
X128793809Y-104227381D01*
X128698571Y-104370238D01*
X128603333Y-104465476D01*
X128508095Y-104513095D01*
X124198381Y-107386381D02*
X124198381Y-106386381D01*
X124579334Y-106386381D01*
X124674572Y-106434000D01*
X124722191Y-106481619D01*
X124769810Y-106576857D01*
X124769810Y-106719714D01*
X124722191Y-106814952D01*
X124674572Y-106862571D01*
X124579334Y-106910190D01*
X124198381Y-106910190D01*
X125055524Y-106386381D02*
X125626953Y-106386381D01*
X125341238Y-107386381D02*
X125341238Y-106386381D01*
X125912667Y-106481619D02*
X125960286Y-106434000D01*
X126055524Y-106386381D01*
X126293620Y-106386381D01*
X126388858Y-106434000D01*
X126436477Y-106481619D01*
X126484096Y-106576857D01*
X126484096Y-106672095D01*
X126436477Y-106814952D01*
X125865048Y-107386381D01*
X126484096Y-107386381D01*
X126817429Y-106386381D02*
X127436477Y-106386381D01*
X127103143Y-106767333D01*
X127246001Y-106767333D01*
X127341239Y-106814952D01*
X127388858Y-106862571D01*
X127436477Y-106957810D01*
X127436477Y-107195905D01*
X127388858Y-107291143D01*
X127341239Y-107338762D01*
X127246001Y-107386381D01*
X126960286Y-107386381D01*
X126865048Y-107338762D01*
X126817429Y-107291143D01*
X127912667Y-107386381D02*
X128103143Y-107386381D01*
X128198382Y-107338762D01*
X128246001Y-107291143D01*
X128341239Y-107148286D01*
X128388858Y-106957810D01*
X128388858Y-106576857D01*
X128341239Y-106481619D01*
X128293620Y-106434000D01*
X128198382Y-106386381D01*
X128007905Y-106386381D01*
X127912667Y-106434000D01*
X127865048Y-106481619D01*
X127817429Y-106576857D01*
X127817429Y-106814952D01*
X127865048Y-106910190D01*
X127912667Y-106957810D01*
X128007905Y-107005429D01*
X128198382Y-107005429D01*
X128293620Y-106957810D01*
X128341239Y-106910190D01*
X128388858Y-106814952D01*
X128865048Y-107386381D02*
X129055524Y-107386381D01*
X129150763Y-107338762D01*
X129198382Y-107291143D01*
X129293620Y-107148286D01*
X129341239Y-106957810D01*
X129341239Y-106576857D01*
X129293620Y-106481619D01*
X129246001Y-106434000D01*
X129150763Y-106386381D01*
X128960286Y-106386381D01*
X128865048Y-106434000D01*
X128817429Y-106481619D01*
X128769810Y-106576857D01*
X128769810Y-106814952D01*
X128817429Y-106910190D01*
X128865048Y-106957810D01*
X128960286Y-107005429D01*
X129150763Y-107005429D01*
X129246001Y-106957810D01*
X129293620Y-106910190D01*
X129341239Y-106814952D01*
X137764905Y-70623381D02*
X137764905Y-69623381D01*
X138003000Y-69623381D01*
X138145858Y-69671000D01*
X138241096Y-69766238D01*
X138288715Y-69861476D01*
X138336334Y-70051952D01*
X138336334Y-70194810D01*
X138288715Y-70385286D01*
X138241096Y-70480524D01*
X138145858Y-70575762D01*
X138003000Y-70623381D01*
X137764905Y-70623381D01*
X139288715Y-70623381D02*
X138717286Y-70623381D01*
X139003000Y-70623381D02*
X139003000Y-69623381D01*
X138907762Y-69766238D01*
X138812524Y-69861476D01*
X138717286Y-69909095D01*
X139657143Y-76652381D02*
X139180952Y-76652381D01*
X139180952Y-75652381D01*
X139990476Y-76128571D02*
X140323810Y-76128571D01*
X140466667Y-76652381D02*
X139990476Y-76652381D01*
X139990476Y-75652381D01*
X140466667Y-75652381D01*
X140895238Y-76652381D02*
X140895238Y-75652381D01*
X141133333Y-75652381D01*
X141276191Y-75700000D01*
X141371429Y-75795238D01*
X141419048Y-75890476D01*
X141466667Y-76080952D01*
X141466667Y-76223810D01*
X141419048Y-76414286D01*
X141371429Y-76509524D01*
X141276191Y-76604762D01*
X141133333Y-76652381D01*
X140895238Y-76652381D01*
M02*
