M48
;DRILL file {KiCad 4.0.7-e2-6376~58~ubuntu16.04.1} date Sun Feb 25 03:24:27 2018
;FORMAT={-:-/ absolute / inch / decimal}
FMAT,2
INCH,TZ
T1C0.016
T2C0.033
T3C0.039
T4C0.063
%
G90
G05
M72
T1
X4.445Y-4.82
X4.5669Y-4.3087
X4.595Y-4.65
X4.69Y-4.825
X4.79Y-4.65
X5.Y-3.3
X5.12Y-3.3
X5.56Y-3.76
X5.56Y-3.94
X5.69Y-3.58
X5.7Y-3.09
X5.7Y-3.23
X5.76Y-3.77
X5.86Y-3.77
X6.47Y-3.95
T2
X5.5091Y-4.478
X5.5091Y-4.578
X5.5091Y-4.678
X5.5126Y-3.2039
X5.5126Y-3.3039
X5.5126Y-3.4039
T4
X4.252Y-2.8543
X4.252Y-3.1299
X6.7717Y-2.8543
X6.7717Y-3.1299
T3
X5.5327Y-4.3476G85X5.4854Y-4.3476
G05
X5.5327Y-4.8083G85X5.4854Y-4.8083
G05
X5.5362Y-3.0736G85X5.489Y-3.0736
G05
X5.5362Y-3.5343G85X5.489Y-3.5343
G05
T0
M30
