G04 #@! TF.FileFunction,Soldermask,Top*
%FSLAX46Y46*%
G04 Gerber Fmt 4.6, Leading zero omitted, Abs format (unit mm)*
G04 Created by KiCad (PCBNEW 4.0.7-e2-6376~58~ubuntu16.04.1) date Sun Feb 25 03:24:25 2018*
%MOMM*%
%LPD*%
G01*
G04 APERTURE LIST*
%ADD10C,0.100000*%
%ADD11R,3.600000X2.400000*%
%ADD12C,2.200000*%
%ADD13R,2.000000X2.400000*%
%ADD14R,2.400000X2.000000*%
%ADD15R,2.100000X2.400000*%
%ADD16R,2.400000X2.100000*%
%ADD17R,3.150000X3.300000*%
%ADD18R,2.950000X2.800000*%
%ADD19C,2.000000*%
%ADD20R,7.400000X4.400000*%
%ADD21R,2.000000X3.600000*%
%ADD22C,3.600000*%
%ADD23C,7.400000*%
%ADD24R,2.400000X3.000000*%
%ADD25C,1.400000*%
%ADD26C,0.254000*%
G04 APERTURE END LIST*
D10*
D11*
X139930000Y-110430000D03*
X139930000Y-122130000D03*
D12*
X139930000Y-118820000D03*
X139930000Y-113740000D03*
X139930000Y-116280000D03*
D11*
X140020000Y-78070000D03*
X140020000Y-89770000D03*
D12*
X140020000Y-86460000D03*
X140020000Y-81380000D03*
X140020000Y-83920000D03*
D13*
X133604000Y-116046000D03*
X133604000Y-112046000D03*
X146558000Y-115792000D03*
X146558000Y-111792000D03*
X147828000Y-123666000D03*
X147828000Y-119666000D03*
X147828000Y-83852000D03*
X147828000Y-87852000D03*
D14*
X164370000Y-104902000D03*
X168370000Y-104902000D03*
D13*
X146050000Y-77946000D03*
X146050000Y-73946000D03*
D14*
X120110000Y-81788000D03*
X116110000Y-81788000D03*
D13*
X172974000Y-87662000D03*
X172974000Y-91662000D03*
D15*
X129286000Y-116046000D03*
X129286000Y-112046000D03*
X132334000Y-87884000D03*
X132334000Y-83884000D03*
X135382000Y-83820000D03*
X135382000Y-87820000D03*
X152908000Y-104870000D03*
X152908000Y-100870000D03*
X144780000Y-83852000D03*
X144780000Y-87852000D03*
D16*
X116110000Y-78740000D03*
X120110000Y-78740000D03*
D15*
X169672000Y-91662000D03*
X169672000Y-87662000D03*
X133604000Y-73946000D03*
X133604000Y-77946000D03*
D17*
X104425000Y-80700000D03*
D18*
X104325000Y-71400000D03*
X111675000Y-73300000D03*
D19*
X108000000Y-72500000D03*
X108000000Y-79500000D03*
D17*
X168425000Y-80700000D03*
D18*
X168325000Y-71400000D03*
X175675000Y-73300000D03*
D19*
X172000000Y-72500000D03*
X172000000Y-79500000D03*
D20*
X89950000Y-70500000D03*
X89950000Y-129500000D03*
X79050000Y-70500000D03*
X79050000Y-129500000D03*
X200950000Y-70500000D03*
X200950000Y-129500000D03*
X190050000Y-70500000D03*
X190050000Y-129500000D03*
D21*
X131110000Y-93650000D03*
X133650000Y-93650000D03*
X136190000Y-93650000D03*
X138730000Y-93650000D03*
X141270000Y-93650000D03*
X143810000Y-93650000D03*
X146350000Y-93650000D03*
X148890000Y-93650000D03*
X148890000Y-106350000D03*
X146350000Y-106350000D03*
X143810000Y-106350000D03*
X141270000Y-106350000D03*
X138730000Y-106350000D03*
X136190000Y-106350000D03*
X131110000Y-106350000D03*
X133650000Y-106350000D03*
D22*
X121000000Y-113000000D03*
X111000000Y-113000000D03*
X116000000Y-113000000D03*
D23*
X116100000Y-99900000D03*
D22*
X163500000Y-97000000D03*
X153500000Y-97000000D03*
X158500000Y-97000000D03*
D23*
X158600000Y-83900000D03*
D22*
X171500000Y-111000000D03*
X171500000Y-121000000D03*
X171500000Y-116000000D03*
D23*
X158400000Y-115900000D03*
D24*
X137100000Y-73600000D03*
X142700000Y-73600000D03*
D25*
X171300000Y-68450000D03*
X172700000Y-68450000D03*
X107350000Y-68550000D03*
X108700000Y-68550000D03*
X71300000Y-99350000D03*
X115350000Y-131400000D03*
X116700000Y-131400000D03*
X157800000Y-131400000D03*
X159150000Y-131400000D03*
X208650000Y-99300000D03*
X208650000Y-100700000D03*
X71300000Y-100700000D03*
D26*
G36*
X140348065Y-72574682D02*
X140358953Y-72579037D01*
X140386178Y-72586314D01*
X140585904Y-72760544D01*
X140776392Y-73025368D01*
X140916265Y-73379713D01*
X140948598Y-73740000D01*
X140870960Y-74146460D01*
X140610179Y-74501662D01*
X140344776Y-74645240D01*
X139885319Y-74715565D01*
X139429502Y-74664919D01*
X139188614Y-74505761D01*
X138908975Y-74137570D01*
X138754520Y-73697607D01*
X138740704Y-73200239D01*
X138890758Y-72895718D01*
X139133203Y-72644457D01*
X139463221Y-72546344D01*
X139928979Y-72517534D01*
X140348065Y-72574682D01*
X140348065Y-72574682D01*
G37*
X140348065Y-72574682D02*
X140358953Y-72579037D01*
X140386178Y-72586314D01*
X140585904Y-72760544D01*
X140776392Y-73025368D01*
X140916265Y-73379713D01*
X140948598Y-73740000D01*
X140870960Y-74146460D01*
X140610179Y-74501662D01*
X140344776Y-74645240D01*
X139885319Y-74715565D01*
X139429502Y-74664919D01*
X139188614Y-74505761D01*
X138908975Y-74137570D01*
X138754520Y-73697607D01*
X138740704Y-73200239D01*
X138890758Y-72895718D01*
X139133203Y-72644457D01*
X139463221Y-72546344D01*
X139928979Y-72517534D01*
X140348065Y-72574682D01*
M02*
