G04 #@! TF.FileFunction,Copper,L1,Top,Signal*
%FSLAX46Y46*%
G04 Gerber Fmt 4.6, Leading zero omitted, Abs format (unit mm)*
G04 Created by KiCad (PCBNEW 4.0.7-e2-6376~58~ubuntu16.04.1) date Sun Feb 25 03:24:25 2018*
%MOMM*%
%LPD*%
G01*
G04 APERTURE LIST*
%ADD10C,0.100000*%
%ADD11R,3.200000X2.000000*%
%ADD12C,1.800000*%
%ADD13R,1.600000X2.000000*%
%ADD14R,2.000000X1.600000*%
%ADD15R,1.700000X2.000000*%
%ADD16R,2.000000X1.700000*%
%ADD17R,2.750000X2.900000*%
%ADD18R,2.550000X2.400000*%
%ADD19C,1.600000*%
%ADD20R,7.000000X4.000000*%
%ADD21R,1.600000X3.200000*%
%ADD22C,3.200000*%
%ADD23R,2.000000X2.600000*%
%ADD24C,1.000000*%
%ADD25C,0.500000*%
%ADD26C,0.254000*%
G04 APERTURE END LIST*
D10*
D11*
X139930000Y-110430000D03*
X139930000Y-122130000D03*
D12*
X139930000Y-118820000D03*
X139930000Y-113740000D03*
X139930000Y-116280000D03*
D11*
X140020000Y-78070000D03*
X140020000Y-89770000D03*
D12*
X140020000Y-86460000D03*
X140020000Y-81380000D03*
X140020000Y-83920000D03*
D13*
X133604000Y-116046000D03*
X133604000Y-112046000D03*
X146558000Y-115792000D03*
X146558000Y-111792000D03*
X147828000Y-123666000D03*
X147828000Y-119666000D03*
X147828000Y-83852000D03*
X147828000Y-87852000D03*
D14*
X164370000Y-104902000D03*
X168370000Y-104902000D03*
D13*
X146050000Y-77946000D03*
X146050000Y-73946000D03*
D14*
X120110000Y-81788000D03*
X116110000Y-81788000D03*
D13*
X172974000Y-87662000D03*
X172974000Y-91662000D03*
D15*
X129286000Y-116046000D03*
X129286000Y-112046000D03*
X132334000Y-87884000D03*
X132334000Y-83884000D03*
X135382000Y-83820000D03*
X135382000Y-87820000D03*
X152908000Y-104870000D03*
X152908000Y-100870000D03*
X144780000Y-83852000D03*
X144780000Y-87852000D03*
D16*
X116110000Y-78740000D03*
X120110000Y-78740000D03*
D15*
X169672000Y-91662000D03*
X169672000Y-87662000D03*
X133604000Y-73946000D03*
X133604000Y-77946000D03*
D17*
X104425000Y-80700000D03*
D18*
X104325000Y-71400000D03*
X111675000Y-73300000D03*
D19*
X108000000Y-72500000D03*
X108000000Y-79500000D03*
D17*
X168425000Y-80700000D03*
D18*
X168325000Y-71400000D03*
X175675000Y-73300000D03*
D19*
X172000000Y-72500000D03*
X172000000Y-79500000D03*
D20*
X89950000Y-70500000D03*
X89950000Y-129500000D03*
X79050000Y-70500000D03*
X79050000Y-129500000D03*
X200950000Y-70500000D03*
X200950000Y-129500000D03*
X190050000Y-70500000D03*
X190050000Y-129500000D03*
D21*
X131110000Y-93650000D03*
X133650000Y-93650000D03*
X136190000Y-93650000D03*
X138730000Y-93650000D03*
X141270000Y-93650000D03*
X143810000Y-93650000D03*
X146350000Y-93650000D03*
X148890000Y-93650000D03*
X148890000Y-106350000D03*
X146350000Y-106350000D03*
X143810000Y-106350000D03*
X141270000Y-106350000D03*
X138730000Y-106350000D03*
X136190000Y-106350000D03*
X131110000Y-106350000D03*
X133650000Y-106350000D03*
D22*
X121000000Y-113000000D03*
X111000000Y-113000000D03*
X116000000Y-113000000D03*
X163500000Y-97000000D03*
X153500000Y-97000000D03*
X158500000Y-97000000D03*
X171500000Y-111000000D03*
X171500000Y-121000000D03*
X171500000Y-116000000D03*
D23*
X137100000Y-73600000D03*
X142700000Y-73600000D03*
D24*
X112903000Y-122428000D03*
X116000000Y-109440000D03*
X144780000Y-78486000D03*
X144780000Y-82042000D03*
X127000000Y-83820000D03*
X130048000Y-83820000D03*
X141224000Y-95504000D03*
X141224000Y-100076000D03*
X119126000Y-122555000D03*
X148844000Y-95758000D03*
X146304000Y-95758000D03*
X144526000Y-90932000D03*
X164338000Y-100330000D03*
X116713000Y-118110000D03*
X121666000Y-118110000D03*
D25*
X112903000Y-122428000D02*
X112903000Y-122682000D01*
X112903000Y-120904000D02*
X112903000Y-122428000D01*
X114046000Y-119761000D02*
X112903000Y-120904000D01*
X117348000Y-119761000D02*
X114046000Y-119761000D01*
X118364000Y-118745000D02*
X117348000Y-119761000D01*
X118364000Y-115364000D02*
X118364000Y-118745000D01*
X116000000Y-113000000D02*
X118364000Y-115364000D01*
X116000000Y-113000000D02*
X116000000Y-109440000D01*
X144780000Y-83852000D02*
X144780000Y-82042000D01*
X144780000Y-78486000D02*
X145320000Y-77946000D01*
X145320000Y-77946000D02*
X146050000Y-77946000D01*
X132334000Y-83884000D02*
X130112000Y-83884000D01*
X125840000Y-82660000D02*
X125840000Y-78740000D01*
X127000000Y-83820000D02*
X125840000Y-82660000D01*
X130112000Y-83884000D02*
X130048000Y-83820000D01*
X130556000Y-71374000D02*
X125840000Y-76090000D01*
X146050000Y-73946000D02*
X146050000Y-71882000D01*
X146050000Y-71882000D02*
X145542000Y-71374000D01*
X145542000Y-71374000D02*
X130556000Y-71374000D01*
X125840000Y-76090000D02*
X125840000Y-78740000D01*
X125840000Y-78740000D02*
X120110000Y-78740000D01*
X135382000Y-83820000D02*
X132398000Y-83820000D01*
X132398000Y-83820000D02*
X132334000Y-83884000D01*
X116110000Y-78740000D02*
X116862000Y-78740000D01*
X116862000Y-78740000D02*
X119910000Y-81788000D01*
X119910000Y-81788000D02*
X120110000Y-81788000D01*
X116110000Y-81788000D02*
X116110000Y-83088000D01*
X113600000Y-85598000D02*
X106172000Y-85598000D01*
X116110000Y-83088000D02*
X113600000Y-85598000D01*
X106172000Y-85598000D02*
X104425000Y-83851000D01*
X104425000Y-83851000D02*
X104425000Y-80700000D01*
X171450000Y-83820000D02*
X172974000Y-85344000D01*
X172974000Y-85344000D02*
X172974000Y-87662000D01*
X169761000Y-83820000D02*
X171450000Y-83820000D01*
X168425000Y-80534000D02*
X168425000Y-82484000D01*
X168425000Y-82484000D02*
X169761000Y-83820000D01*
X172974000Y-91662000D02*
X172974000Y-91114000D01*
X172974000Y-91114000D02*
X169672000Y-87812000D01*
X169672000Y-87812000D02*
X169672000Y-87662000D01*
X171500000Y-116000000D02*
X171500000Y-121000000D01*
X152908000Y-104870000D02*
X152368000Y-104870000D01*
X152368000Y-104870000D02*
X147574000Y-100076000D01*
X141270000Y-95458000D02*
X141270000Y-93650000D01*
X141224000Y-95504000D02*
X141270000Y-95458000D01*
X147574000Y-100076000D02*
X141224000Y-100076000D01*
X152908000Y-104870000D02*
X159226000Y-104870000D01*
X159226000Y-104870000D02*
X170356000Y-116000000D01*
X170356000Y-116000000D02*
X171500000Y-116000000D01*
X141270000Y-93650000D02*
X141270000Y-92410000D01*
X141270000Y-92410000D02*
X144780000Y-88900000D01*
X144780000Y-88900000D02*
X144780000Y-87852000D01*
X190050000Y-70500000D02*
X200950000Y-70500000D01*
X79050000Y-70500000D02*
X89950000Y-70500000D01*
X168370000Y-104902000D02*
X168370000Y-107870000D01*
X168370000Y-107870000D02*
X171500000Y-111000000D01*
X171500000Y-111000000D02*
X171500000Y-109556000D01*
X120015000Y-121793000D02*
X119888000Y-121793000D01*
X119888000Y-121793000D02*
X119126000Y-122555000D01*
X120015000Y-117475000D02*
X120015000Y-121793000D01*
X121000000Y-116490000D02*
X120015000Y-117475000D01*
X121000000Y-115262741D02*
X121000000Y-116490000D01*
X121000000Y-113000000D02*
X121000000Y-115262741D01*
X121000000Y-113000000D02*
X124490000Y-113000000D01*
X125444000Y-112046000D02*
X129286000Y-112046000D01*
X124490000Y-113000000D02*
X125444000Y-112046000D01*
X153500000Y-97000000D02*
X140180000Y-97000000D01*
X138730000Y-95550000D02*
X138730000Y-93650000D01*
X140180000Y-97000000D02*
X138730000Y-95550000D01*
X158500000Y-97000000D02*
X153500000Y-97000000D01*
X153500000Y-97000000D02*
X152908000Y-97592000D01*
X152908000Y-97592000D02*
X152908000Y-100870000D01*
X163500000Y-97000000D02*
X163500000Y-97612000D01*
X163500000Y-97612000D02*
X158242000Y-102870000D01*
X136190000Y-96566000D02*
X136190000Y-93650000D01*
X138176000Y-98552000D02*
X136190000Y-96566000D01*
X147574000Y-98552000D02*
X138176000Y-98552000D01*
X151892000Y-102870000D02*
X147574000Y-98552000D01*
X158242000Y-102870000D02*
X151892000Y-102870000D01*
X169672000Y-91662000D02*
X169672000Y-93162000D01*
X165762741Y-97000000D02*
X163500000Y-97000000D01*
X165834000Y-97000000D02*
X165762741Y-97000000D01*
X169672000Y-93162000D02*
X165834000Y-97000000D01*
X133650000Y-106350000D02*
X133650000Y-112000000D01*
X133650000Y-112000000D02*
X133604000Y-112046000D01*
X146350000Y-106350000D02*
X146350000Y-111584000D01*
X146350000Y-111584000D02*
X146558000Y-111792000D01*
X148890000Y-106350000D02*
X148890000Y-118318000D01*
X148890000Y-118318000D02*
X147828000Y-119380000D01*
X147828000Y-119380000D02*
X147828000Y-119666000D01*
X148844000Y-95758000D02*
X148890000Y-95712000D01*
X148890000Y-95712000D02*
X148890000Y-93650000D01*
X150114000Y-90424000D02*
X150114000Y-90326000D01*
X147828000Y-83852000D02*
X149128000Y-83852000D01*
X149128000Y-83852000D02*
X150114000Y-84838000D01*
X150114000Y-84838000D02*
X150114000Y-90326000D01*
X148890000Y-91550000D02*
X148890000Y-93650000D01*
X150114000Y-90326000D02*
X148890000Y-91550000D01*
X146350000Y-95712000D02*
X146350000Y-93650000D01*
X146304000Y-95758000D02*
X146350000Y-95712000D01*
X146350000Y-93650000D02*
X146350000Y-91550000D01*
X146350000Y-91550000D02*
X147828000Y-90072000D01*
X147828000Y-90072000D02*
X147828000Y-87852000D01*
X164370000Y-104902000D02*
X164370000Y-100362000D01*
X143810000Y-91648000D02*
X143810000Y-93650000D01*
X144526000Y-90932000D02*
X143810000Y-91648000D01*
X164370000Y-100362000D02*
X164338000Y-100330000D01*
X144272000Y-111506000D02*
X144272000Y-108712000D01*
X143810000Y-106350000D02*
X143810000Y-108250000D01*
X129286000Y-119380000D02*
X135890000Y-125984000D01*
X135890000Y-125984000D02*
X140970000Y-125984000D01*
X140970000Y-125984000D02*
X144272000Y-122682000D01*
X129286000Y-119380000D02*
X129286000Y-116046000D01*
X144272000Y-122682000D02*
X144272000Y-111506000D01*
X144272000Y-108712000D02*
X143810000Y-108250000D01*
X131110000Y-93650000D02*
X131110000Y-89108000D01*
X131110000Y-89108000D02*
X132334000Y-87884000D01*
X135382000Y-87820000D02*
X135382000Y-89320000D01*
X135382000Y-89320000D02*
X133650000Y-91052000D01*
X133650000Y-91052000D02*
X133650000Y-93650000D01*
X200950000Y-95631000D02*
X200950000Y-87412000D01*
X153416000Y-75946000D02*
X181356000Y-75946000D01*
X148844000Y-80518000D02*
X153416000Y-75946000D01*
X142494000Y-80518000D02*
X148844000Y-80518000D01*
X141632000Y-81380000D02*
X142494000Y-80518000D01*
X141632000Y-81380000D02*
X140020000Y-81380000D01*
X189484000Y-75946000D02*
X181356000Y-75946000D01*
X200950000Y-87412000D02*
X189484000Y-75946000D01*
X200950000Y-95540000D02*
X200950000Y-95631000D01*
X200950000Y-95631000D02*
X200950000Y-129500000D01*
X131110000Y-106350000D02*
X131110000Y-100884000D01*
X132366000Y-77946000D02*
X133604000Y-77946000D01*
X128524000Y-81788000D02*
X132366000Y-77946000D01*
X128524000Y-98298000D02*
X128524000Y-81788000D01*
X131110000Y-100884000D02*
X128524000Y-98298000D01*
X140020000Y-83920000D02*
X139120001Y-83020001D01*
X139120001Y-83020001D02*
X138138001Y-83020001D01*
X138138001Y-83020001D02*
X137414000Y-82296000D01*
X137414000Y-80406000D02*
X137414000Y-82296000D01*
X133604000Y-77946000D02*
X134954000Y-77946000D01*
X134954000Y-77946000D02*
X137414000Y-80406000D01*
X133604000Y-73946000D02*
X136754000Y-73946000D01*
X136754000Y-73946000D02*
X137100000Y-73600000D01*
X116713000Y-118110000D02*
X106180000Y-118110000D01*
X106180000Y-118110000D02*
X96782000Y-127508000D01*
X96782000Y-127508000D02*
X96774000Y-127508000D01*
X94782000Y-129500000D02*
X89950000Y-129500000D01*
X96774000Y-127508000D02*
X94782000Y-129500000D01*
X122550000Y-119030000D02*
X122550000Y-118994000D01*
X122550000Y-118994000D02*
X121666000Y-118110000D01*
X148850000Y-128280000D02*
X151730000Y-125400000D01*
X122550000Y-119030000D02*
X131800000Y-128280000D01*
X151730000Y-125400000D02*
X184450000Y-125400000D01*
X131800000Y-128280000D02*
X148850000Y-128280000D01*
X184450000Y-125400000D02*
X188550000Y-129500000D01*
X188550000Y-129500000D02*
X190050000Y-129500000D01*
X188058000Y-127508000D02*
X190050000Y-129500000D01*
D26*
G36*
X100044716Y-69540649D02*
X100050578Y-69549422D01*
X100059351Y-69555284D01*
X100076672Y-69572605D01*
X100328749Y-69741037D01*
X100626094Y-69800183D01*
X100742642Y-69777000D01*
X102574974Y-69777000D01*
X102511673Y-69840301D01*
X102415000Y-70073690D01*
X102415000Y-71114250D01*
X102573750Y-71273000D01*
X104198000Y-71273000D01*
X104198000Y-71253000D01*
X104452000Y-71253000D01*
X104452000Y-71273000D01*
X106076250Y-71273000D01*
X106235000Y-71114250D01*
X106235000Y-70073690D01*
X106138327Y-69840301D01*
X106075026Y-69777000D01*
X106500000Y-69777000D01*
X106797345Y-69717854D01*
X106860812Y-69675447D01*
X107104864Y-69776786D01*
X107592995Y-69777212D01*
X108025507Y-69598501D01*
X108454864Y-69776786D01*
X108942995Y-69777212D01*
X109131060Y-69699505D01*
X109193088Y-69740951D01*
X109500000Y-69802000D01*
X115400000Y-69802000D01*
X115706912Y-69740951D01*
X115967100Y-69567100D01*
X116041677Y-69455487D01*
X118345595Y-67175184D01*
X161679246Y-67175184D01*
X164044724Y-69540661D01*
X164050578Y-69549422D01*
X164059339Y-69555276D01*
X164076668Y-69572605D01*
X164328745Y-69741037D01*
X164626090Y-69800183D01*
X164742638Y-69777000D01*
X166574974Y-69777000D01*
X166511673Y-69840301D01*
X166415000Y-70073690D01*
X166415000Y-71114250D01*
X166573750Y-71273000D01*
X168198000Y-71273000D01*
X168198000Y-71253000D01*
X168452000Y-71253000D01*
X168452000Y-71273000D01*
X170076250Y-71273000D01*
X170235000Y-71114250D01*
X170235000Y-70073690D01*
X170138327Y-69840301D01*
X170075026Y-69777000D01*
X170480000Y-69777000D01*
X170490000Y-69775011D01*
X170500000Y-69777000D01*
X170797345Y-69717854D01*
X170933950Y-69626578D01*
X171054864Y-69676786D01*
X171542995Y-69677212D01*
X171994131Y-69490806D01*
X171999707Y-69485240D01*
X172004053Y-69489593D01*
X172454864Y-69676786D01*
X172942995Y-69677212D01*
X173065855Y-69626447D01*
X173202655Y-69717854D01*
X173500000Y-69777000D01*
X173505000Y-69776005D01*
X173510000Y-69777000D01*
X179259551Y-69777000D01*
X179376101Y-69800183D01*
X179673446Y-69741037D01*
X179925523Y-69572604D01*
X179947261Y-69550866D01*
X179949422Y-69549422D01*
X179950866Y-69547261D01*
X180998123Y-68500000D01*
X185808758Y-68500000D01*
X185808758Y-72500000D01*
X185859451Y-72769410D01*
X186018672Y-73016846D01*
X186261615Y-73182843D01*
X186550000Y-73241242D01*
X193550000Y-73241242D01*
X193819410Y-73190549D01*
X194066846Y-73031328D01*
X194232843Y-72788385D01*
X194291242Y-72500000D01*
X194291242Y-71477000D01*
X196708758Y-71477000D01*
X196708758Y-72500000D01*
X196759451Y-72769410D01*
X196918672Y-73016846D01*
X197161615Y-73182843D01*
X197450000Y-73241242D01*
X204450000Y-73241242D01*
X204719410Y-73190549D01*
X204966846Y-73031328D01*
X205132843Y-72788385D01*
X205191242Y-72500000D01*
X205191242Y-68500000D01*
X205140549Y-68230590D01*
X204981328Y-67983154D01*
X204738385Y-67817157D01*
X204450000Y-67758758D01*
X197450000Y-67758758D01*
X197180590Y-67809451D01*
X196933154Y-67968672D01*
X196767157Y-68211615D01*
X196708758Y-68500000D01*
X196708758Y-69523000D01*
X194291242Y-69523000D01*
X194291242Y-68500000D01*
X194240549Y-68230590D01*
X194081328Y-67983154D01*
X193838385Y-67817157D01*
X193550000Y-67758758D01*
X186550000Y-67758758D01*
X186280590Y-67809451D01*
X186033154Y-67968672D01*
X185867157Y-68211615D01*
X185808758Y-68500000D01*
X180998123Y-68500000D01*
X182322935Y-67175184D01*
X205304246Y-67175184D01*
X207473000Y-69343937D01*
X207473000Y-98500000D01*
X207531498Y-98794087D01*
X207423214Y-99054864D01*
X207422788Y-99542995D01*
X207609194Y-99994131D01*
X207614760Y-99999707D01*
X207610407Y-100004053D01*
X207423214Y-100454864D01*
X207422788Y-100942995D01*
X207531470Y-101206025D01*
X207505025Y-101339000D01*
X207473000Y-101500000D01*
X207473003Y-101500014D01*
X207473000Y-101500029D01*
X207474088Y-130651349D01*
X205304255Y-132821190D01*
X182322689Y-132821190D01*
X179949423Y-130450580D01*
X179949422Y-130450578D01*
X179949420Y-130450577D01*
X179949114Y-130450271D01*
X179823898Y-130366706D01*
X179697345Y-130282146D01*
X179697127Y-130282103D01*
X179696943Y-130281980D01*
X179548677Y-130252574D01*
X179400000Y-130223000D01*
X160000000Y-130223000D01*
X159702655Y-130282146D01*
X159685338Y-130293717D01*
X159395136Y-130173214D01*
X158907005Y-130172788D01*
X158474493Y-130351499D01*
X158045136Y-130173214D01*
X157557005Y-130172788D01*
X157322703Y-130269600D01*
X157306912Y-130259049D01*
X157000000Y-130198000D01*
X117500000Y-130198000D01*
X117193088Y-130259049D01*
X117177283Y-130269610D01*
X116945136Y-130173214D01*
X116457005Y-130172788D01*
X116024493Y-130351499D01*
X115595136Y-130173214D01*
X115107005Y-130172788D01*
X114814537Y-130293633D01*
X114797345Y-130282146D01*
X114500000Y-130223000D01*
X100600000Y-130223000D01*
X100451513Y-130252536D01*
X100302754Y-130282105D01*
X100302709Y-130282135D01*
X100302655Y-130282146D01*
X100174327Y-130367892D01*
X100050654Y-130450503D01*
X100050581Y-130450576D01*
X100050578Y-130450578D01*
X100050576Y-130450581D01*
X97679314Y-132821190D01*
X74697939Y-132821190D01*
X72527000Y-130650242D01*
X72527000Y-129785750D01*
X74915000Y-129785750D01*
X74915000Y-131626309D01*
X75011673Y-131859698D01*
X75190301Y-132038327D01*
X75423690Y-132135000D01*
X78764250Y-132135000D01*
X78923000Y-131976250D01*
X78923000Y-129627000D01*
X79177000Y-129627000D01*
X79177000Y-131976250D01*
X79335750Y-132135000D01*
X82676310Y-132135000D01*
X82909699Y-132038327D01*
X83088327Y-131859698D01*
X83185000Y-131626309D01*
X83185000Y-129785750D01*
X83026250Y-129627000D01*
X79177000Y-129627000D01*
X78923000Y-129627000D01*
X75073750Y-129627000D01*
X74915000Y-129785750D01*
X72527000Y-129785750D01*
X72527000Y-127373691D01*
X74915000Y-127373691D01*
X74915000Y-129214250D01*
X75073750Y-129373000D01*
X78923000Y-129373000D01*
X78923000Y-127023750D01*
X79177000Y-127023750D01*
X79177000Y-129373000D01*
X83026250Y-129373000D01*
X83185000Y-129214250D01*
X83185000Y-127500000D01*
X85708758Y-127500000D01*
X85708758Y-131500000D01*
X85759451Y-131769410D01*
X85918672Y-132016846D01*
X86161615Y-132182843D01*
X86450000Y-132241242D01*
X93450000Y-132241242D01*
X93719410Y-132190549D01*
X93966846Y-132031328D01*
X94132843Y-131788385D01*
X94191242Y-131500000D01*
X94191242Y-130477000D01*
X94782000Y-130477000D01*
X95155882Y-130402630D01*
X95472843Y-130190843D01*
X97448737Y-128214950D01*
X97472843Y-128198843D01*
X102873691Y-122797995D01*
X117898788Y-122797995D01*
X118085194Y-123249131D01*
X118430053Y-123594593D01*
X118880864Y-123781786D01*
X119368995Y-123782212D01*
X119820131Y-123595806D01*
X120165593Y-123250947D01*
X120352786Y-122800136D01*
X120352865Y-122709822D01*
X120361637Y-122701049D01*
X120388882Y-122695630D01*
X120705843Y-122483843D01*
X120917630Y-122166882D01*
X120992000Y-121793000D01*
X120992000Y-119158706D01*
X121420864Y-119336786D01*
X121511179Y-119336865D01*
X121786665Y-119612351D01*
X121859157Y-119720843D01*
X131109156Y-128970843D01*
X131341542Y-129126118D01*
X131426118Y-129182630D01*
X131800000Y-129257000D01*
X148850000Y-129257000D01*
X149223882Y-129182630D01*
X149540843Y-128970843D01*
X152134686Y-126377000D01*
X184045314Y-126377000D01*
X185808758Y-128140444D01*
X185808758Y-131500000D01*
X185859451Y-131769410D01*
X186018672Y-132016846D01*
X186261615Y-132182843D01*
X186550000Y-132241242D01*
X193550000Y-132241242D01*
X193819410Y-132190549D01*
X194066846Y-132031328D01*
X194232843Y-131788385D01*
X194291242Y-131500000D01*
X194291242Y-127500000D01*
X194240549Y-127230590D01*
X194081328Y-126983154D01*
X193838385Y-126817157D01*
X193550000Y-126758758D01*
X188661443Y-126758758D01*
X188431881Y-126605370D01*
X188058000Y-126531000D01*
X187684119Y-126605370D01*
X187454557Y-126758758D01*
X187190444Y-126758758D01*
X185140843Y-124709157D01*
X184823882Y-124497370D01*
X184450000Y-124423000D01*
X151730000Y-124423000D01*
X151356118Y-124497370D01*
X151039157Y-124709157D01*
X148445314Y-127303000D01*
X132204687Y-127303000D01*
X123313336Y-118411650D01*
X123240843Y-118303157D01*
X122893135Y-117955449D01*
X122893212Y-117867005D01*
X122706806Y-117415869D01*
X122361947Y-117070407D01*
X121911136Y-116883214D01*
X121889725Y-116883195D01*
X121902630Y-116863882D01*
X121926378Y-116744491D01*
X121977000Y-116490000D01*
X121977000Y-115114129D01*
X122141885Y-115046000D01*
X127694758Y-115046000D01*
X127694758Y-117046000D01*
X127745451Y-117315410D01*
X127904672Y-117562846D01*
X128147615Y-117728843D01*
X128309000Y-117761524D01*
X128309000Y-119380000D01*
X128383370Y-119753882D01*
X128595157Y-120070843D01*
X135199156Y-126674843D01*
X135483746Y-126865000D01*
X135516118Y-126886630D01*
X135890000Y-126961000D01*
X140970000Y-126961000D01*
X141343882Y-126886630D01*
X141660843Y-126674843D01*
X144383936Y-123951750D01*
X146393000Y-123951750D01*
X146393000Y-124792309D01*
X146489673Y-125025698D01*
X146668301Y-125204327D01*
X146901690Y-125301000D01*
X147542250Y-125301000D01*
X147701000Y-125142250D01*
X147701000Y-123793000D01*
X147955000Y-123793000D01*
X147955000Y-125142250D01*
X148113750Y-125301000D01*
X148754310Y-125301000D01*
X148987699Y-125204327D01*
X149166327Y-125025698D01*
X149263000Y-124792309D01*
X149263000Y-123951750D01*
X149104250Y-123793000D01*
X147955000Y-123793000D01*
X147701000Y-123793000D01*
X146551750Y-123793000D01*
X146393000Y-123951750D01*
X144383936Y-123951750D01*
X144962843Y-123372843D01*
X144970363Y-123361589D01*
X145174630Y-123055882D01*
X145249000Y-122682000D01*
X145249000Y-122539691D01*
X146393000Y-122539691D01*
X146393000Y-123380250D01*
X146551750Y-123539000D01*
X147701000Y-123539000D01*
X147701000Y-122189750D01*
X147955000Y-122189750D01*
X147955000Y-123539000D01*
X149104250Y-123539000D01*
X149263000Y-123380250D01*
X149263000Y-122539691D01*
X149166327Y-122306302D01*
X148987699Y-122127673D01*
X148754310Y-122031000D01*
X148113750Y-122031000D01*
X147955000Y-122189750D01*
X147701000Y-122189750D01*
X147542250Y-122031000D01*
X146901690Y-122031000D01*
X146668301Y-122127673D01*
X146489673Y-122306302D01*
X146393000Y-122539691D01*
X145249000Y-122539691D01*
X145249000Y-117181025D01*
X145398301Y-117330327D01*
X145631690Y-117427000D01*
X146272250Y-117427000D01*
X146431000Y-117268250D01*
X146431000Y-115919000D01*
X146411000Y-115919000D01*
X146411000Y-115665000D01*
X146431000Y-115665000D01*
X146431000Y-114315750D01*
X146272250Y-114157000D01*
X145631690Y-114157000D01*
X145398301Y-114253673D01*
X145249000Y-114402975D01*
X145249000Y-113324102D01*
X145469615Y-113474843D01*
X145758000Y-113533242D01*
X147358000Y-113533242D01*
X147627410Y-113482549D01*
X147874846Y-113323328D01*
X147913000Y-113267488D01*
X147913000Y-114472554D01*
X147896327Y-114432302D01*
X147717699Y-114253673D01*
X147484310Y-114157000D01*
X146843750Y-114157000D01*
X146685000Y-114315750D01*
X146685000Y-115665000D01*
X146705000Y-115665000D01*
X146705000Y-115919000D01*
X146685000Y-115919000D01*
X146685000Y-117268250D01*
X146843750Y-117427000D01*
X147484310Y-117427000D01*
X147717699Y-117330327D01*
X147896327Y-117151698D01*
X147913000Y-117111446D01*
X147913000Y-117913314D01*
X147901556Y-117924758D01*
X147028000Y-117924758D01*
X146758590Y-117975451D01*
X146511154Y-118134672D01*
X146345157Y-118377615D01*
X146286758Y-118666000D01*
X146286758Y-120666000D01*
X146337451Y-120935410D01*
X146496672Y-121182846D01*
X146739615Y-121348843D01*
X147028000Y-121407242D01*
X148628000Y-121407242D01*
X148897410Y-121356549D01*
X149144846Y-121197328D01*
X149310843Y-120954385D01*
X149369242Y-120666000D01*
X149369242Y-119220444D01*
X149580843Y-119008843D01*
X149719824Y-118800843D01*
X149792630Y-118691882D01*
X149867000Y-118318000D01*
X149867000Y-116737114D01*
X154172268Y-116737114D01*
X154814434Y-118291275D01*
X156002470Y-119481387D01*
X157555509Y-120126265D01*
X159237114Y-120127732D01*
X160791275Y-119485566D01*
X161981387Y-118297530D01*
X162626265Y-116744491D01*
X162627732Y-115062886D01*
X161985566Y-113508725D01*
X160797530Y-112318613D01*
X159244491Y-111673735D01*
X157562886Y-111672268D01*
X156008725Y-112314434D01*
X154818613Y-113502470D01*
X154173735Y-115055509D01*
X154172268Y-116737114D01*
X149867000Y-116737114D01*
X149867000Y-108657937D01*
X149959410Y-108640549D01*
X150206846Y-108481328D01*
X150372843Y-108238385D01*
X150431242Y-107950000D01*
X150431242Y-104750000D01*
X150380549Y-104480590D01*
X150221328Y-104233154D01*
X149978385Y-104067157D01*
X149690000Y-104008758D01*
X148090000Y-104008758D01*
X147820590Y-104059451D01*
X147617948Y-104189848D01*
X147438385Y-104067157D01*
X147150000Y-104008758D01*
X145550000Y-104008758D01*
X145280590Y-104059451D01*
X145077948Y-104189848D01*
X144898385Y-104067157D01*
X144610000Y-104008758D01*
X143010000Y-104008758D01*
X142740590Y-104059451D01*
X142537948Y-104189848D01*
X142358385Y-104067157D01*
X142070000Y-104008758D01*
X140470000Y-104008758D01*
X140200590Y-104059451D01*
X139953154Y-104218672D01*
X139930237Y-104252212D01*
X139889698Y-104211673D01*
X139656309Y-104115000D01*
X139015750Y-104115000D01*
X138857000Y-104273750D01*
X138857000Y-106223000D01*
X138877000Y-106223000D01*
X138877000Y-106477000D01*
X138857000Y-106477000D01*
X138857000Y-108426250D01*
X139015750Y-108585000D01*
X139656309Y-108585000D01*
X139889698Y-108488327D01*
X139927908Y-108450118D01*
X139938672Y-108466846D01*
X140181615Y-108632843D01*
X140457734Y-108688758D01*
X138330000Y-108688758D01*
X138060590Y-108739451D01*
X137813154Y-108898672D01*
X137647157Y-109141615D01*
X137588758Y-109430000D01*
X137588758Y-111430000D01*
X137639451Y-111699410D01*
X137798672Y-111946846D01*
X138041615Y-112112843D01*
X138330000Y-112171242D01*
X139466150Y-112171242D01*
X139009582Y-112359892D01*
X138551501Y-112817175D01*
X138303283Y-113414950D01*
X138302718Y-114062211D01*
X138549892Y-114660418D01*
X138899073Y-115010208D01*
X138551501Y-115357175D01*
X138303283Y-115954950D01*
X138302718Y-116602211D01*
X138549892Y-117200418D01*
X138899073Y-117550208D01*
X138551501Y-117897175D01*
X138303283Y-118494950D01*
X138302718Y-119142211D01*
X138549892Y-119740418D01*
X139007175Y-120198499D01*
X139465369Y-120388758D01*
X138330000Y-120388758D01*
X138060590Y-120439451D01*
X137813154Y-120598672D01*
X137647157Y-120841615D01*
X137588758Y-121130000D01*
X137588758Y-123130000D01*
X137639451Y-123399410D01*
X137798672Y-123646846D01*
X138041615Y-123812843D01*
X138330000Y-123871242D01*
X141530000Y-123871242D01*
X141740722Y-123831592D01*
X140565314Y-125007000D01*
X136294687Y-125007000D01*
X130263000Y-118975314D01*
X130263000Y-117763345D01*
X130405410Y-117736549D01*
X130652846Y-117577328D01*
X130818843Y-117334385D01*
X130877242Y-117046000D01*
X130877242Y-116331750D01*
X132169000Y-116331750D01*
X132169000Y-117172309D01*
X132265673Y-117405698D01*
X132444301Y-117584327D01*
X132677690Y-117681000D01*
X133318250Y-117681000D01*
X133477000Y-117522250D01*
X133477000Y-116173000D01*
X133731000Y-116173000D01*
X133731000Y-117522250D01*
X133889750Y-117681000D01*
X134530310Y-117681000D01*
X134763699Y-117584327D01*
X134942327Y-117405698D01*
X135039000Y-117172309D01*
X135039000Y-116331750D01*
X134880250Y-116173000D01*
X133731000Y-116173000D01*
X133477000Y-116173000D01*
X132327750Y-116173000D01*
X132169000Y-116331750D01*
X130877242Y-116331750D01*
X130877242Y-115046000D01*
X130853476Y-114919691D01*
X132169000Y-114919691D01*
X132169000Y-115760250D01*
X132327750Y-115919000D01*
X133477000Y-115919000D01*
X133477000Y-114569750D01*
X133731000Y-114569750D01*
X133731000Y-115919000D01*
X134880250Y-115919000D01*
X135039000Y-115760250D01*
X135039000Y-114919691D01*
X134942327Y-114686302D01*
X134763699Y-114507673D01*
X134530310Y-114411000D01*
X133889750Y-114411000D01*
X133731000Y-114569750D01*
X133477000Y-114569750D01*
X133318250Y-114411000D01*
X132677690Y-114411000D01*
X132444301Y-114507673D01*
X132265673Y-114686302D01*
X132169000Y-114919691D01*
X130853476Y-114919691D01*
X130826549Y-114776590D01*
X130667328Y-114529154D01*
X130424385Y-114363157D01*
X130136000Y-114304758D01*
X128436000Y-114304758D01*
X128166590Y-114355451D01*
X127919154Y-114514672D01*
X127753157Y-114757615D01*
X127694758Y-115046000D01*
X122141885Y-115046000D01*
X122316418Y-114973885D01*
X122971585Y-114319861D01*
X123113953Y-113977000D01*
X124490000Y-113977000D01*
X124863882Y-113902630D01*
X125180843Y-113690843D01*
X125848687Y-113023000D01*
X127694758Y-113023000D01*
X127694758Y-113046000D01*
X127745451Y-113315410D01*
X127904672Y-113562846D01*
X128147615Y-113728843D01*
X128436000Y-113787242D01*
X130136000Y-113787242D01*
X130405410Y-113736549D01*
X130652846Y-113577328D01*
X130818843Y-113334385D01*
X130877242Y-113046000D01*
X130877242Y-111046000D01*
X130826549Y-110776590D01*
X130667328Y-110529154D01*
X130424385Y-110363157D01*
X130136000Y-110304758D01*
X128436000Y-110304758D01*
X128166590Y-110355451D01*
X127919154Y-110514672D01*
X127753157Y-110757615D01*
X127694758Y-111046000D01*
X127694758Y-111069000D01*
X125444000Y-111069000D01*
X125070118Y-111143370D01*
X124970221Y-111210119D01*
X124753157Y-111355156D01*
X124085314Y-112023000D01*
X123114129Y-112023000D01*
X122973885Y-111683582D01*
X122319861Y-111028415D01*
X121464900Y-110673404D01*
X120539162Y-110672597D01*
X119683582Y-111026115D01*
X119028415Y-111680139D01*
X118673404Y-112535100D01*
X118672597Y-113460838D01*
X119026115Y-114316418D01*
X119680139Y-114971585D01*
X120023000Y-115113953D01*
X120023000Y-116085313D01*
X119324157Y-116784157D01*
X119112370Y-117101118D01*
X119038000Y-117475000D01*
X119038000Y-121261313D01*
X118971448Y-121327865D01*
X118883005Y-121327788D01*
X118431869Y-121514194D01*
X118086407Y-121859053D01*
X117899214Y-122309864D01*
X117898788Y-122797995D01*
X102873691Y-122797995D01*
X106584686Y-119087000D01*
X115954569Y-119087000D01*
X116017053Y-119149593D01*
X116467864Y-119336786D01*
X116955995Y-119337212D01*
X117407131Y-119150806D01*
X117752593Y-118805947D01*
X117939786Y-118355136D01*
X117940212Y-117867005D01*
X117753806Y-117415869D01*
X117408947Y-117070407D01*
X116958136Y-116883214D01*
X116470005Y-116882788D01*
X116018869Y-117069194D01*
X115954951Y-117133000D01*
X106180000Y-117133000D01*
X105806118Y-117207370D01*
X105509300Y-117405698D01*
X105489157Y-117419157D01*
X96107268Y-126801046D01*
X96083156Y-126817157D01*
X94377314Y-128523000D01*
X94191242Y-128523000D01*
X94191242Y-127500000D01*
X94140549Y-127230590D01*
X93981328Y-126983154D01*
X93738385Y-126817157D01*
X93450000Y-126758758D01*
X86450000Y-126758758D01*
X86180590Y-126809451D01*
X85933154Y-126968672D01*
X85767157Y-127211615D01*
X85708758Y-127500000D01*
X83185000Y-127500000D01*
X83185000Y-127373691D01*
X83088327Y-127140302D01*
X82909699Y-126961673D01*
X82676310Y-126865000D01*
X79335750Y-126865000D01*
X79177000Y-127023750D01*
X78923000Y-127023750D01*
X78764250Y-126865000D01*
X75423690Y-126865000D01*
X75190301Y-126961673D01*
X75011673Y-127140302D01*
X74915000Y-127373691D01*
X72527000Y-127373691D01*
X72527000Y-114586202D01*
X109593403Y-114586202D01*
X109765390Y-114915360D01*
X110592346Y-115242026D01*
X111481363Y-115227365D01*
X112234610Y-114915360D01*
X112406597Y-114586202D01*
X114593403Y-114586202D01*
X114765390Y-114915360D01*
X115592346Y-115242026D01*
X116481363Y-115227365D01*
X117234610Y-114915360D01*
X117406597Y-114586202D01*
X116000000Y-113179605D01*
X114593403Y-114586202D01*
X112406597Y-114586202D01*
X111000000Y-113179605D01*
X109593403Y-114586202D01*
X72527000Y-114586202D01*
X72527000Y-112592346D01*
X108757974Y-112592346D01*
X108772635Y-113481363D01*
X109084640Y-114234610D01*
X109413798Y-114406597D01*
X110820395Y-113000000D01*
X111179605Y-113000000D01*
X112586202Y-114406597D01*
X112915360Y-114234610D01*
X113242026Y-113407654D01*
X113228581Y-112592346D01*
X113757974Y-112592346D01*
X113772635Y-113481363D01*
X114084640Y-114234610D01*
X114413798Y-114406597D01*
X115820395Y-113000000D01*
X116179605Y-113000000D01*
X117586202Y-114406597D01*
X117915360Y-114234610D01*
X118242026Y-113407654D01*
X118227365Y-112518637D01*
X117915360Y-111765390D01*
X117586202Y-111593403D01*
X116179605Y-113000000D01*
X115820395Y-113000000D01*
X114413798Y-111593403D01*
X114084640Y-111765390D01*
X113757974Y-112592346D01*
X113228581Y-112592346D01*
X113227365Y-112518637D01*
X112915360Y-111765390D01*
X112586202Y-111593403D01*
X111179605Y-113000000D01*
X110820395Y-113000000D01*
X109413798Y-111593403D01*
X109084640Y-111765390D01*
X108757974Y-112592346D01*
X72527000Y-112592346D01*
X72527000Y-111413798D01*
X109593403Y-111413798D01*
X111000000Y-112820395D01*
X112406597Y-111413798D01*
X114593403Y-111413798D01*
X116000000Y-112820395D01*
X117406597Y-111413798D01*
X117234610Y-111084640D01*
X116407654Y-110757974D01*
X115518637Y-110772635D01*
X114765390Y-111084640D01*
X114593403Y-111413798D01*
X112406597Y-111413798D01*
X112234610Y-111084640D01*
X111407654Y-110757974D01*
X110518637Y-110772635D01*
X109765390Y-111084640D01*
X109593403Y-111413798D01*
X72527000Y-111413798D01*
X72527000Y-101500000D01*
X72467854Y-101202655D01*
X72438251Y-101158351D01*
X72526786Y-100945136D01*
X72526967Y-100737114D01*
X111872268Y-100737114D01*
X112514434Y-102291275D01*
X113702470Y-103481387D01*
X115255509Y-104126265D01*
X116937114Y-104127732D01*
X118491275Y-103485566D01*
X119681387Y-102297530D01*
X120326265Y-100744491D01*
X120327645Y-99161600D01*
X122301640Y-99161600D01*
X122301640Y-100838000D01*
X122328415Y-100972604D01*
X122328888Y-101017913D01*
X122378506Y-101254417D01*
X122437137Y-101391882D01*
X122493272Y-101530320D01*
X122639185Y-101752263D01*
X122762985Y-101877925D01*
X122858801Y-101975182D01*
X123078541Y-102124391D01*
X123266120Y-102203733D01*
X123366743Y-102246295D01*
X123626857Y-102300056D01*
X123939773Y-102302391D01*
X123939774Y-102302391D01*
X124200661Y-102252518D01*
X124367655Y-102184802D01*
X124490649Y-102134929D01*
X124712592Y-101989016D01*
X124935509Y-101769402D01*
X124935511Y-101769400D01*
X125084720Y-101549660D01*
X125185962Y-101310306D01*
X125206624Y-101261458D01*
X125260385Y-101001344D01*
X125260818Y-100943353D01*
X125282261Y-100828279D01*
X125261941Y-99151880D01*
X125244900Y-99071325D01*
X125243185Y-98976616D01*
X125192198Y-98742524D01*
X125132558Y-98605608D01*
X125075410Y-98467638D01*
X124928950Y-98248444D01*
X124707676Y-98027170D01*
X124488482Y-97880710D01*
X124298582Y-97802052D01*
X124199378Y-97760960D01*
X123940822Y-97709530D01*
X123784360Y-97709531D01*
X123627897Y-97709530D01*
X123369342Y-97760960D01*
X123270138Y-97802052D01*
X123080238Y-97880710D01*
X122861044Y-98027170D01*
X122639770Y-98248444D01*
X122493310Y-98467638D01*
X122443593Y-98587668D01*
X122373560Y-98756742D01*
X122322130Y-99015298D01*
X122322130Y-99058590D01*
X122301640Y-99161600D01*
X120327645Y-99161600D01*
X120327732Y-99062886D01*
X119685566Y-97508725D01*
X118497530Y-96318613D01*
X116944491Y-95673735D01*
X115262886Y-95672268D01*
X113708725Y-96314434D01*
X112518613Y-97502470D01*
X111873735Y-99055509D01*
X111872268Y-100737114D01*
X72526967Y-100737114D01*
X72527212Y-100457005D01*
X72348501Y-100024493D01*
X72526786Y-99595136D01*
X72527212Y-99107005D01*
X72425472Y-98860775D01*
X72467854Y-98797345D01*
X72527000Y-98500000D01*
X72527000Y-79250000D01*
X102308758Y-79250000D01*
X102308758Y-82150000D01*
X102359451Y-82419410D01*
X102518672Y-82666846D01*
X102761615Y-82832843D01*
X103050000Y-82891242D01*
X103448000Y-82891242D01*
X103448000Y-83851000D01*
X103522370Y-84224882D01*
X103713443Y-84510843D01*
X103734157Y-84541843D01*
X105481157Y-86288843D01*
X105798118Y-86500630D01*
X106172000Y-86575000D01*
X113600000Y-86575000D01*
X113973882Y-86500630D01*
X114290843Y-86288843D01*
X116800843Y-83778843D01*
X117012630Y-83461882D01*
X117039014Y-83329242D01*
X117110000Y-83329242D01*
X117379410Y-83278549D01*
X117626846Y-83119328D01*
X117792843Y-82876385D01*
X117851242Y-82588000D01*
X117851242Y-81110928D01*
X118368758Y-81628444D01*
X118368758Y-82588000D01*
X118419451Y-82857410D01*
X118578672Y-83104846D01*
X118821615Y-83270843D01*
X119110000Y-83329242D01*
X121110000Y-83329242D01*
X121379410Y-83278549D01*
X121626846Y-83119328D01*
X121792843Y-82876385D01*
X121851242Y-82588000D01*
X121851242Y-80988000D01*
X121800549Y-80718590D01*
X121641328Y-80471154D01*
X121398385Y-80305157D01*
X121326256Y-80290551D01*
X121379410Y-80280549D01*
X121626846Y-80121328D01*
X121792843Y-79878385D01*
X121825524Y-79717000D01*
X124863000Y-79717000D01*
X124863000Y-82660000D01*
X124937370Y-83033882D01*
X125129254Y-83321056D01*
X125149157Y-83350843D01*
X125772865Y-83974552D01*
X125772788Y-84062995D01*
X125959194Y-84514131D01*
X126304053Y-84859593D01*
X126754864Y-85046786D01*
X127242995Y-85047212D01*
X127547000Y-84921599D01*
X127547000Y-98298000D01*
X127621370Y-98671882D01*
X127749533Y-98863691D01*
X127833157Y-98988843D01*
X130133000Y-101288687D01*
X130133000Y-104042063D01*
X130040590Y-104059451D01*
X129793154Y-104218672D01*
X129627157Y-104461615D01*
X129568758Y-104750000D01*
X129568758Y-107950000D01*
X129619451Y-108219410D01*
X129778672Y-108466846D01*
X130021615Y-108632843D01*
X130310000Y-108691242D01*
X131910000Y-108691242D01*
X132179410Y-108640549D01*
X132382052Y-108510152D01*
X132561615Y-108632843D01*
X132673000Y-108655399D01*
X132673000Y-110329407D01*
X132534590Y-110355451D01*
X132287154Y-110514672D01*
X132121157Y-110757615D01*
X132062758Y-111046000D01*
X132062758Y-113046000D01*
X132113451Y-113315410D01*
X132272672Y-113562846D01*
X132515615Y-113728843D01*
X132804000Y-113787242D01*
X134404000Y-113787242D01*
X134673410Y-113736549D01*
X134920846Y-113577328D01*
X135086843Y-113334385D01*
X135145242Y-113046000D01*
X135145242Y-111046000D01*
X135094549Y-110776590D01*
X134935328Y-110529154D01*
X134692385Y-110363157D01*
X134627000Y-110349916D01*
X134627000Y-108657937D01*
X134719410Y-108640549D01*
X134966846Y-108481328D01*
X134989763Y-108447788D01*
X135030302Y-108488327D01*
X135263691Y-108585000D01*
X135904250Y-108585000D01*
X136063000Y-108426250D01*
X136063000Y-106477000D01*
X136317000Y-106477000D01*
X136317000Y-108426250D01*
X136475750Y-108585000D01*
X137116309Y-108585000D01*
X137349698Y-108488327D01*
X137460000Y-108378026D01*
X137570302Y-108488327D01*
X137803691Y-108585000D01*
X138444250Y-108585000D01*
X138603000Y-108426250D01*
X138603000Y-106477000D01*
X136317000Y-106477000D01*
X136063000Y-106477000D01*
X136043000Y-106477000D01*
X136043000Y-106223000D01*
X136063000Y-106223000D01*
X136063000Y-104273750D01*
X136317000Y-104273750D01*
X136317000Y-106223000D01*
X138603000Y-106223000D01*
X138603000Y-104273750D01*
X138444250Y-104115000D01*
X137803691Y-104115000D01*
X137570302Y-104211673D01*
X137460000Y-104321974D01*
X137349698Y-104211673D01*
X137116309Y-104115000D01*
X136475750Y-104115000D01*
X136317000Y-104273750D01*
X136063000Y-104273750D01*
X135904250Y-104115000D01*
X135263691Y-104115000D01*
X135030302Y-104211673D01*
X134992092Y-104249882D01*
X134981328Y-104233154D01*
X134738385Y-104067157D01*
X134450000Y-104008758D01*
X132850000Y-104008758D01*
X132580590Y-104059451D01*
X132377948Y-104189848D01*
X132198385Y-104067157D01*
X132087000Y-104044601D01*
X132087000Y-100884000D01*
X132012630Y-100510118D01*
X131886356Y-100321136D01*
X131800843Y-100193156D01*
X129501000Y-97893314D01*
X129501000Y-84921441D01*
X129802864Y-85046786D01*
X130290995Y-85047212D01*
X130741661Y-84861000D01*
X130742758Y-84861000D01*
X130742758Y-84884000D01*
X130793451Y-85153410D01*
X130952672Y-85400846D01*
X131195615Y-85566843D01*
X131484000Y-85625242D01*
X133184000Y-85625242D01*
X133453410Y-85574549D01*
X133700846Y-85415328D01*
X133866843Y-85172385D01*
X133873546Y-85139286D01*
X134000672Y-85336846D01*
X134243615Y-85502843D01*
X134532000Y-85561242D01*
X136232000Y-85561242D01*
X136501410Y-85510549D01*
X136748846Y-85351328D01*
X136914843Y-85108385D01*
X136973242Y-84820000D01*
X136973242Y-83236928D01*
X137447158Y-83710844D01*
X137764119Y-83922631D01*
X138138001Y-83997001D01*
X138392932Y-83997001D01*
X138392718Y-84242211D01*
X138639892Y-84840418D01*
X138989073Y-85190208D01*
X138641501Y-85537175D01*
X138393283Y-86134950D01*
X138392718Y-86782211D01*
X138639892Y-87380418D01*
X139097175Y-87838499D01*
X139555369Y-88028758D01*
X138420000Y-88028758D01*
X138150590Y-88079451D01*
X137903154Y-88238672D01*
X137737157Y-88481615D01*
X137678758Y-88770000D01*
X137678758Y-90770000D01*
X137729451Y-91039410D01*
X137888672Y-91286846D01*
X137922740Y-91310124D01*
X137660590Y-91359451D01*
X137457948Y-91489848D01*
X137278385Y-91367157D01*
X136990000Y-91308758D01*
X135390000Y-91308758D01*
X135120590Y-91359451D01*
X134917948Y-91489848D01*
X134738385Y-91367157D01*
X134720210Y-91363476D01*
X136072843Y-90010843D01*
X136080214Y-89999812D01*
X136284630Y-89693882D01*
X136314086Y-89545796D01*
X136501410Y-89510549D01*
X136748846Y-89351328D01*
X136914843Y-89108385D01*
X136973242Y-88820000D01*
X136973242Y-86820000D01*
X136922549Y-86550590D01*
X136763328Y-86303154D01*
X136520385Y-86137157D01*
X136232000Y-86078758D01*
X134532000Y-86078758D01*
X134262590Y-86129451D01*
X134015154Y-86288672D01*
X133849157Y-86531615D01*
X133842454Y-86564714D01*
X133715328Y-86367154D01*
X133472385Y-86201157D01*
X133184000Y-86142758D01*
X131484000Y-86142758D01*
X131214590Y-86193451D01*
X130967154Y-86352672D01*
X130801157Y-86595615D01*
X130742758Y-86884000D01*
X130742758Y-88093556D01*
X130419157Y-88417157D01*
X130207370Y-88734118D01*
X130133000Y-89108000D01*
X130133000Y-91342063D01*
X130040590Y-91359451D01*
X129793154Y-91518672D01*
X129627157Y-91761615D01*
X129568758Y-92050000D01*
X129568758Y-95250000D01*
X129619451Y-95519410D01*
X129778672Y-95766846D01*
X130021615Y-95932843D01*
X130310000Y-95991242D01*
X131910000Y-95991242D01*
X132179410Y-95940549D01*
X132382052Y-95810152D01*
X132561615Y-95932843D01*
X132850000Y-95991242D01*
X134450000Y-95991242D01*
X134719410Y-95940549D01*
X134922052Y-95810152D01*
X135101615Y-95932843D01*
X135213000Y-95955399D01*
X135213000Y-96566000D01*
X135287370Y-96939882D01*
X135317659Y-96985212D01*
X135499157Y-97256843D01*
X137485157Y-99242843D01*
X137802118Y-99454630D01*
X138176000Y-99529000D01*
X140122559Y-99529000D01*
X139997214Y-99830864D01*
X139996788Y-100318995D01*
X140183194Y-100770131D01*
X140528053Y-101115593D01*
X140978864Y-101302786D01*
X141466995Y-101303212D01*
X141918131Y-101116806D01*
X141982049Y-101053000D01*
X147169314Y-101053000D01*
X151316758Y-105200444D01*
X151316758Y-105870000D01*
X151367451Y-106139410D01*
X151526672Y-106386846D01*
X151769615Y-106552843D01*
X152058000Y-106611242D01*
X153758000Y-106611242D01*
X154027410Y-106560549D01*
X154274846Y-106401328D01*
X154440843Y-106158385D01*
X154499242Y-105870000D01*
X154499242Y-105847000D01*
X158821314Y-105847000D01*
X159813958Y-106839644D01*
X159755119Y-106814756D01*
X159495004Y-106760995D01*
X159437013Y-106760562D01*
X159321939Y-106739119D01*
X157645540Y-106759439D01*
X157564985Y-106776480D01*
X157470276Y-106778195D01*
X157236184Y-106829182D01*
X157099268Y-106888822D01*
X156961298Y-106945970D01*
X156742104Y-107092430D01*
X156520830Y-107313704D01*
X156374370Y-107532898D01*
X156306405Y-107696983D01*
X156254620Y-107822002D01*
X156203190Y-108080558D01*
X156203191Y-108237020D01*
X156203190Y-108393482D01*
X156254620Y-108652038D01*
X156290828Y-108739451D01*
X156374370Y-108941142D01*
X156520830Y-109160336D01*
X156742104Y-109381610D01*
X156961298Y-109528070D01*
X157151198Y-109606728D01*
X157250402Y-109647820D01*
X157508957Y-109699250D01*
X157552250Y-109699250D01*
X157655260Y-109719740D01*
X159331660Y-109719740D01*
X159466264Y-109692965D01*
X159511573Y-109692492D01*
X159748077Y-109642874D01*
X159885542Y-109584243D01*
X160023980Y-109528108D01*
X160245923Y-109382195D01*
X160468840Y-109162581D01*
X160468842Y-109162579D01*
X160618051Y-108942839D01*
X160718751Y-108704766D01*
X160739955Y-108654637D01*
X160793716Y-108394523D01*
X160796051Y-108081607D01*
X160796051Y-108081606D01*
X160746178Y-107820719D01*
X160712855Y-107738541D01*
X169172826Y-116198512D01*
X169172597Y-116460838D01*
X169526115Y-117316418D01*
X170180139Y-117971585D01*
X170523000Y-118113953D01*
X170523000Y-118885871D01*
X170183582Y-119026115D01*
X169528415Y-119680139D01*
X169173404Y-120535100D01*
X169172597Y-121460838D01*
X169526115Y-122316418D01*
X170180139Y-122971585D01*
X171035100Y-123326596D01*
X171960838Y-123327403D01*
X172816418Y-122973885D01*
X173471585Y-122319861D01*
X173826596Y-121464900D01*
X173827403Y-120539162D01*
X173473885Y-119683582D01*
X172819861Y-119028415D01*
X172477000Y-118886047D01*
X172477000Y-118114129D01*
X172816418Y-117973885D01*
X173471585Y-117319861D01*
X173826596Y-116464900D01*
X173827403Y-115539162D01*
X173473885Y-114683582D01*
X172819861Y-114028415D01*
X171964900Y-113673404D01*
X171039162Y-113672597D01*
X170183582Y-114026115D01*
X169973508Y-114235822D01*
X159916843Y-104179157D01*
X159839880Y-104127732D01*
X159599882Y-103967370D01*
X159226000Y-103893000D01*
X154499242Y-103893000D01*
X154499242Y-103870000D01*
X154494914Y-103847000D01*
X158242000Y-103847000D01*
X158615882Y-103772630D01*
X158932843Y-103560843D01*
X163166975Y-99326711D01*
X163605903Y-99327094D01*
X163298407Y-99634053D01*
X163111214Y-100084864D01*
X163110788Y-100572995D01*
X163297194Y-101024131D01*
X163393000Y-101120105D01*
X163393000Y-103360758D01*
X163370000Y-103360758D01*
X163100590Y-103411451D01*
X162853154Y-103570672D01*
X162687157Y-103813615D01*
X162628758Y-104102000D01*
X162628758Y-105702000D01*
X162679451Y-105971410D01*
X162838672Y-106218846D01*
X163081615Y-106384843D01*
X163370000Y-106443242D01*
X165370000Y-106443242D01*
X165639410Y-106392549D01*
X165886846Y-106233328D01*
X166052843Y-105990385D01*
X166111242Y-105702000D01*
X166111242Y-104102000D01*
X166628758Y-104102000D01*
X166628758Y-105702000D01*
X166679451Y-105971410D01*
X166838672Y-106218846D01*
X167081615Y-106384843D01*
X167370000Y-106443242D01*
X167393000Y-106443242D01*
X167393000Y-107870000D01*
X167467370Y-108243882D01*
X167617793Y-108469005D01*
X167679157Y-108560843D01*
X169314241Y-110195927D01*
X169173404Y-110535100D01*
X169172597Y-111460838D01*
X169526115Y-112316418D01*
X170180139Y-112971585D01*
X171035100Y-113326596D01*
X171960838Y-113327403D01*
X172816418Y-112973885D01*
X173471585Y-112319861D01*
X173826596Y-111464900D01*
X173827403Y-110539162D01*
X173473885Y-109683582D01*
X172819861Y-109028415D01*
X171964900Y-108673404D01*
X171903785Y-108673351D01*
X171873882Y-108653370D01*
X171500000Y-108579000D01*
X171126118Y-108653370D01*
X171097267Y-108672648D01*
X171039162Y-108672597D01*
X170696053Y-108814367D01*
X169347000Y-107465314D01*
X169347000Y-106443242D01*
X169370000Y-106443242D01*
X169639410Y-106392549D01*
X169886846Y-106233328D01*
X170052843Y-105990385D01*
X170111242Y-105702000D01*
X170111242Y-104102000D01*
X170060549Y-103832590D01*
X169901328Y-103585154D01*
X169658385Y-103419157D01*
X169370000Y-103360758D01*
X167370000Y-103360758D01*
X167100590Y-103411451D01*
X166853154Y-103570672D01*
X166687157Y-103813615D01*
X166628758Y-104102000D01*
X166111242Y-104102000D01*
X166060549Y-103832590D01*
X165901328Y-103585154D01*
X165658385Y-103419157D01*
X165370000Y-103360758D01*
X165347000Y-103360758D01*
X165347000Y-101056487D01*
X165377593Y-101025947D01*
X165564786Y-100575136D01*
X165565212Y-100087005D01*
X165378806Y-99635869D01*
X165033947Y-99290407D01*
X164583136Y-99103214D01*
X164503586Y-99103145D01*
X164816418Y-98973885D01*
X165471585Y-98319861D01*
X165613953Y-97977000D01*
X165834000Y-97977000D01*
X166207882Y-97902630D01*
X166524843Y-97690843D01*
X170362844Y-93852843D01*
X170574631Y-93535881D01*
X170604087Y-93387796D01*
X170791410Y-93352549D01*
X171038846Y-93193328D01*
X171204843Y-92950385D01*
X171263242Y-92662000D01*
X171263242Y-90784928D01*
X171432758Y-90954444D01*
X171432758Y-92662000D01*
X171483451Y-92931410D01*
X171642672Y-93178846D01*
X171885615Y-93344843D01*
X172174000Y-93403242D01*
X173774000Y-93403242D01*
X174043410Y-93352549D01*
X174290846Y-93193328D01*
X174456843Y-92950385D01*
X174515242Y-92662000D01*
X174515242Y-90662000D01*
X174464549Y-90392590D01*
X174305328Y-90145154D01*
X174062385Y-89979157D01*
X173774000Y-89920758D01*
X173162444Y-89920758D01*
X172644928Y-89403242D01*
X173774000Y-89403242D01*
X174043410Y-89352549D01*
X174290846Y-89193328D01*
X174456843Y-88950385D01*
X174515242Y-88662000D01*
X174515242Y-86662000D01*
X174464549Y-86392590D01*
X174305328Y-86145154D01*
X174062385Y-85979157D01*
X173951000Y-85956601D01*
X173951000Y-85344000D01*
X173876630Y-84970118D01*
X173819088Y-84884000D01*
X173664843Y-84653156D01*
X172140843Y-83129157D01*
X172071474Y-83082806D01*
X171823882Y-82917370D01*
X171450000Y-82843000D01*
X170165687Y-82843000D01*
X170126500Y-82803813D01*
X170316846Y-82681328D01*
X170482843Y-82438385D01*
X170541242Y-82150000D01*
X170541242Y-79968207D01*
X170704717Y-80363846D01*
X171133894Y-80793773D01*
X171694928Y-81026735D01*
X172302407Y-81027265D01*
X172863846Y-80795283D01*
X173293773Y-80366106D01*
X173526735Y-79805072D01*
X173527265Y-79197593D01*
X173295283Y-78636154D01*
X172866106Y-78206227D01*
X172305072Y-77973265D01*
X171697593Y-77972735D01*
X171136154Y-78204717D01*
X170706227Y-78633894D01*
X170512913Y-79099445D01*
X170490549Y-78980590D01*
X170331328Y-78733154D01*
X170088385Y-78567157D01*
X169800000Y-78508758D01*
X167050000Y-78508758D01*
X166780590Y-78559451D01*
X166533154Y-78718672D01*
X166367157Y-78961615D01*
X166308758Y-79250000D01*
X166308758Y-81712610D01*
X166278560Y-81712611D01*
X166122097Y-81712610D01*
X165863542Y-81764040D01*
X165779130Y-81799005D01*
X165574438Y-81883790D01*
X165355244Y-82030250D01*
X165133970Y-82251524D01*
X164987510Y-82470718D01*
X164935777Y-82595615D01*
X164867760Y-82759822D01*
X164816330Y-83018378D01*
X164816330Y-83061670D01*
X164795840Y-83164680D01*
X164795840Y-84841080D01*
X164822615Y-84975684D01*
X164823088Y-85020993D01*
X164872706Y-85257497D01*
X164931337Y-85394962D01*
X164987472Y-85533400D01*
X165133385Y-85755343D01*
X165257185Y-85881005D01*
X165353001Y-85978262D01*
X165572741Y-86127471D01*
X165746949Y-86201157D01*
X165860943Y-86249375D01*
X166121057Y-86303136D01*
X166433973Y-86305471D01*
X166433974Y-86305471D01*
X166694861Y-86255598D01*
X166861855Y-86187882D01*
X166984849Y-86138009D01*
X167206792Y-85992096D01*
X167429709Y-85772482D01*
X167429711Y-85772480D01*
X167578920Y-85552740D01*
X167664113Y-85351328D01*
X167700824Y-85264538D01*
X167754585Y-85004424D01*
X167755018Y-84946433D01*
X167776461Y-84831359D01*
X167756655Y-83197341D01*
X169070156Y-84510843D01*
X169365351Y-84708086D01*
X169387118Y-84722630D01*
X169761000Y-84797000D01*
X171045314Y-84797000D01*
X171997000Y-85748687D01*
X171997000Y-85954063D01*
X171904590Y-85971451D01*
X171657154Y-86130672D01*
X171491157Y-86373615D01*
X171432758Y-86662000D01*
X171432758Y-88191072D01*
X171263242Y-88021556D01*
X171263242Y-86662000D01*
X171212549Y-86392590D01*
X171053328Y-86145154D01*
X170810385Y-85979157D01*
X170522000Y-85920758D01*
X168822000Y-85920758D01*
X168552590Y-85971451D01*
X168305154Y-86130672D01*
X168139157Y-86373615D01*
X168080758Y-86662000D01*
X168080758Y-88662000D01*
X168131451Y-88931410D01*
X168290672Y-89178846D01*
X168533615Y-89344843D01*
X168822000Y-89403242D01*
X169881556Y-89403242D01*
X170399072Y-89920758D01*
X168822000Y-89920758D01*
X168552590Y-89971451D01*
X168305154Y-90130672D01*
X168139157Y-90373615D01*
X168080758Y-90662000D01*
X168080758Y-92662000D01*
X168131451Y-92931410D01*
X168283936Y-93168377D01*
X165560093Y-95892221D01*
X165473885Y-95683582D01*
X164819861Y-95028415D01*
X163964900Y-94673404D01*
X163039162Y-94672597D01*
X162183582Y-95026115D01*
X161528415Y-95680139D01*
X161173404Y-96535100D01*
X161172597Y-97460838D01*
X161493304Y-98237010D01*
X157837314Y-101893000D01*
X154494584Y-101893000D01*
X154499242Y-101870000D01*
X154499242Y-99870000D01*
X154448549Y-99600590D01*
X154289328Y-99353154D01*
X154142055Y-99252526D01*
X154816418Y-98973885D01*
X155471585Y-98319861D01*
X155613953Y-97977000D01*
X156385871Y-97977000D01*
X156526115Y-98316418D01*
X157180139Y-98971585D01*
X158035100Y-99326596D01*
X158960838Y-99327403D01*
X159816418Y-98973885D01*
X160471585Y-98319861D01*
X160826596Y-97464900D01*
X160827403Y-96539162D01*
X160473885Y-95683582D01*
X159819861Y-95028415D01*
X158964900Y-94673404D01*
X158039162Y-94672597D01*
X157183582Y-95026115D01*
X156528415Y-95680139D01*
X156386047Y-96023000D01*
X155614129Y-96023000D01*
X155473885Y-95683582D01*
X154819861Y-95028415D01*
X153964900Y-94673404D01*
X153039162Y-94672597D01*
X152183582Y-95026115D01*
X151528415Y-95680139D01*
X151386047Y-96023000D01*
X150062538Y-96023000D01*
X150070786Y-96003136D01*
X150070903Y-95868805D01*
X150206846Y-95781328D01*
X150372843Y-95538385D01*
X150431242Y-95250000D01*
X150431242Y-92050000D01*
X150380549Y-91780590D01*
X150247641Y-91574046D01*
X150509504Y-91312182D01*
X150804843Y-91114843D01*
X151016630Y-90797882D01*
X151091000Y-90424000D01*
X151091000Y-84838000D01*
X151072400Y-84744491D01*
X151070933Y-84737114D01*
X154372268Y-84737114D01*
X155014434Y-86291275D01*
X156202470Y-87481387D01*
X157755509Y-88126265D01*
X159437114Y-88127732D01*
X160991275Y-87485566D01*
X162181387Y-86297530D01*
X162826265Y-84744491D01*
X162827732Y-83062886D01*
X162185566Y-81508725D01*
X160997530Y-80318613D01*
X159444491Y-79673735D01*
X157762886Y-79672268D01*
X156208725Y-80314434D01*
X155018613Y-81502470D01*
X154373735Y-83055509D01*
X154372268Y-84737114D01*
X151070933Y-84737114D01*
X151016631Y-84464119D01*
X150804844Y-84147157D01*
X149818843Y-83161157D01*
X149763313Y-83124053D01*
X149501882Y-82949370D01*
X149369242Y-82922986D01*
X149369242Y-82852000D01*
X149318549Y-82582590D01*
X149159328Y-82335154D01*
X148916385Y-82169157D01*
X148628000Y-82110758D01*
X147028000Y-82110758D01*
X146758590Y-82161451D01*
X146511154Y-82320672D01*
X146345157Y-82563615D01*
X146330551Y-82635744D01*
X146320549Y-82582590D01*
X146161328Y-82335154D01*
X146006836Y-82229594D01*
X146007212Y-81799005D01*
X145881599Y-81495000D01*
X148844000Y-81495000D01*
X149217882Y-81420630D01*
X149534843Y-81208843D01*
X153820687Y-76923000D01*
X189079314Y-76923000D01*
X199973000Y-87816687D01*
X199973000Y-126758758D01*
X197450000Y-126758758D01*
X197180590Y-126809451D01*
X196933154Y-126968672D01*
X196767157Y-127211615D01*
X196708758Y-127500000D01*
X196708758Y-131500000D01*
X196759451Y-131769410D01*
X196918672Y-132016846D01*
X197161615Y-132182843D01*
X197450000Y-132241242D01*
X204450000Y-132241242D01*
X204719410Y-132190549D01*
X204966846Y-132031328D01*
X205132843Y-131788385D01*
X205191242Y-131500000D01*
X205191242Y-127500000D01*
X205140549Y-127230590D01*
X204981328Y-126983154D01*
X204738385Y-126817157D01*
X204450000Y-126758758D01*
X201927000Y-126758758D01*
X201927000Y-87412000D01*
X201852630Y-87038118D01*
X201765020Y-86907001D01*
X201640844Y-86721157D01*
X190174843Y-75255157D01*
X190154018Y-75241242D01*
X189857882Y-75043370D01*
X189484000Y-74969000D01*
X177509433Y-74969000D01*
X177632843Y-74788385D01*
X177691242Y-74500000D01*
X177691242Y-72100000D01*
X177640549Y-71830590D01*
X177481328Y-71583154D01*
X177238385Y-71417157D01*
X176950000Y-71358758D01*
X174400000Y-71358758D01*
X174130590Y-71409451D01*
X173883154Y-71568672D01*
X173717157Y-71811615D01*
X173658758Y-72100000D01*
X173658758Y-74500000D01*
X173709451Y-74769410D01*
X173837884Y-74969000D01*
X153416000Y-74969000D01*
X153042118Y-75043370D01*
X152725156Y-75255157D01*
X148439314Y-79541000D01*
X147267897Y-79541000D01*
X147366846Y-79477328D01*
X147532843Y-79234385D01*
X147591242Y-78946000D01*
X147591242Y-76946000D01*
X147540549Y-76676590D01*
X147381328Y-76429154D01*
X147138385Y-76263157D01*
X146850000Y-76204758D01*
X145250000Y-76204758D01*
X144980590Y-76255451D01*
X144733154Y-76414672D01*
X144567157Y-76657615D01*
X144508758Y-76946000D01*
X144508758Y-77270459D01*
X144085869Y-77445194D01*
X143740407Y-77790053D01*
X143553214Y-78240864D01*
X143552788Y-78728995D01*
X143739194Y-79180131D01*
X144084053Y-79525593D01*
X144121157Y-79541000D01*
X142494000Y-79541000D01*
X142120118Y-79615370D01*
X141803157Y-79827157D01*
X141285520Y-80344794D01*
X140942825Y-80001501D01*
X140484631Y-79811242D01*
X141620000Y-79811242D01*
X141889410Y-79760549D01*
X142136846Y-79601328D01*
X142302843Y-79358385D01*
X142361242Y-79070000D01*
X142361242Y-77070000D01*
X142310549Y-76800590D01*
X142151328Y-76553154D01*
X141908385Y-76387157D01*
X141620000Y-76328758D01*
X138420000Y-76328758D01*
X138150590Y-76379451D01*
X137903154Y-76538672D01*
X137737157Y-76781615D01*
X137678758Y-77070000D01*
X137678758Y-79070000D01*
X137729451Y-79339410D01*
X137730090Y-79340403D01*
X135644843Y-77255157D01*
X135573006Y-77207157D01*
X135327882Y-77043370D01*
X135195242Y-77016986D01*
X135195242Y-76946000D01*
X135144549Y-76676590D01*
X134985328Y-76429154D01*
X134742385Y-76263157D01*
X134454000Y-76204758D01*
X132754000Y-76204758D01*
X132484590Y-76255451D01*
X132237154Y-76414672D01*
X132071157Y-76657615D01*
X132012758Y-76946000D01*
X132012758Y-77039264D01*
X131992119Y-77043369D01*
X131675157Y-77255156D01*
X127833157Y-81097157D01*
X127621370Y-81414118D01*
X127547000Y-81788000D01*
X127547000Y-82718559D01*
X127245136Y-82593214D01*
X127154822Y-82593135D01*
X126817000Y-82255314D01*
X126817000Y-76494686D01*
X130960686Y-72351000D01*
X132336103Y-72351000D01*
X132237154Y-72414672D01*
X132071157Y-72657615D01*
X132012758Y-72946000D01*
X132012758Y-74946000D01*
X132063451Y-75215410D01*
X132222672Y-75462846D01*
X132465615Y-75628843D01*
X132754000Y-75687242D01*
X134454000Y-75687242D01*
X134723410Y-75636549D01*
X134970846Y-75477328D01*
X135136843Y-75234385D01*
X135195242Y-74946000D01*
X135195242Y-74923000D01*
X135363086Y-74923000D01*
X135409451Y-75169410D01*
X135568672Y-75416846D01*
X135811615Y-75582843D01*
X136100000Y-75641242D01*
X138100000Y-75641242D01*
X138369410Y-75590549D01*
X138616846Y-75431328D01*
X138782843Y-75188385D01*
X138841242Y-74900000D01*
X138841242Y-73885750D01*
X141065000Y-73885750D01*
X141065000Y-75026309D01*
X141161673Y-75259698D01*
X141340301Y-75438327D01*
X141573690Y-75535000D01*
X142414250Y-75535000D01*
X142573000Y-75376250D01*
X142573000Y-73727000D01*
X142827000Y-73727000D01*
X142827000Y-75376250D01*
X142985750Y-75535000D01*
X143826310Y-75535000D01*
X144059699Y-75438327D01*
X144238327Y-75259698D01*
X144335000Y-75026309D01*
X144335000Y-73885750D01*
X144176250Y-73727000D01*
X142827000Y-73727000D01*
X142573000Y-73727000D01*
X141223750Y-73727000D01*
X141065000Y-73885750D01*
X138841242Y-73885750D01*
X138841242Y-72351000D01*
X141065000Y-72351000D01*
X141065000Y-73314250D01*
X141223750Y-73473000D01*
X142573000Y-73473000D01*
X142573000Y-73453000D01*
X142827000Y-73453000D01*
X142827000Y-73473000D01*
X144176250Y-73473000D01*
X144335000Y-73314250D01*
X144335000Y-72351000D01*
X144832103Y-72351000D01*
X144733154Y-72414672D01*
X144567157Y-72657615D01*
X144508758Y-72946000D01*
X144508758Y-74946000D01*
X144559451Y-75215410D01*
X144718672Y-75462846D01*
X144961615Y-75628843D01*
X145250000Y-75687242D01*
X146850000Y-75687242D01*
X147119410Y-75636549D01*
X147366846Y-75477328D01*
X147532843Y-75234385D01*
X147591242Y-74946000D01*
X147591242Y-72946000D01*
X147540549Y-72676590D01*
X147381328Y-72429154D01*
X147138385Y-72263157D01*
X147027000Y-72240601D01*
X147027000Y-71882000D01*
X146987964Y-71685750D01*
X166415000Y-71685750D01*
X166415000Y-72726310D01*
X166511673Y-72959699D01*
X166690302Y-73138327D01*
X166923691Y-73235000D01*
X168039250Y-73235000D01*
X168198000Y-73076250D01*
X168198000Y-71527000D01*
X168452000Y-71527000D01*
X168452000Y-73076250D01*
X168610750Y-73235000D01*
X169726309Y-73235000D01*
X169959698Y-73138327D01*
X170138327Y-72959699D01*
X170203479Y-72802407D01*
X170472735Y-72802407D01*
X170704717Y-73363846D01*
X171133894Y-73793773D01*
X171694928Y-74026735D01*
X172302407Y-74027265D01*
X172863846Y-73795283D01*
X173293773Y-73366106D01*
X173526735Y-72805072D01*
X173527265Y-72197593D01*
X173295283Y-71636154D01*
X172866106Y-71206227D01*
X172305072Y-70973265D01*
X171697593Y-70972735D01*
X171136154Y-71204717D01*
X170706227Y-71633894D01*
X170473265Y-72194928D01*
X170472735Y-72802407D01*
X170203479Y-72802407D01*
X170235000Y-72726310D01*
X170235000Y-71685750D01*
X170076250Y-71527000D01*
X168452000Y-71527000D01*
X168198000Y-71527000D01*
X166573750Y-71527000D01*
X166415000Y-71685750D01*
X146987964Y-71685750D01*
X146952630Y-71508118D01*
X146795529Y-71273000D01*
X146740843Y-71191156D01*
X146232843Y-70683157D01*
X145915882Y-70471370D01*
X145542000Y-70397000D01*
X130556000Y-70397000D01*
X130182118Y-70471370D01*
X129865157Y-70683157D01*
X125149157Y-75399157D01*
X124937370Y-75716118D01*
X124863000Y-76090000D01*
X124863000Y-77763000D01*
X121827345Y-77763000D01*
X121800549Y-77620590D01*
X121641328Y-77373154D01*
X121398385Y-77207157D01*
X121110000Y-77148758D01*
X119110000Y-77148758D01*
X118840590Y-77199451D01*
X118593154Y-77358672D01*
X118427157Y-77601615D01*
X118368758Y-77890000D01*
X118368758Y-78865072D01*
X117851242Y-78347556D01*
X117851242Y-77890000D01*
X117800549Y-77620590D01*
X117641328Y-77373154D01*
X117398385Y-77207157D01*
X117110000Y-77148758D01*
X115110000Y-77148758D01*
X114840590Y-77199451D01*
X114593154Y-77358672D01*
X114427157Y-77601615D01*
X114368758Y-77890000D01*
X114368758Y-79590000D01*
X114419451Y-79859410D01*
X114578672Y-80106846D01*
X114821615Y-80272843D01*
X114893744Y-80287449D01*
X114840590Y-80297451D01*
X114593154Y-80456672D01*
X114427157Y-80699615D01*
X114368758Y-80988000D01*
X114368758Y-82588000D01*
X114419451Y-82857410D01*
X114578672Y-83104846D01*
X114657563Y-83158751D01*
X113195314Y-84621000D01*
X106576686Y-84621000D01*
X105402000Y-83446314D01*
X105402000Y-82891242D01*
X105800000Y-82891242D01*
X106069410Y-82840549D01*
X106316846Y-82681328D01*
X106482843Y-82438385D01*
X106541242Y-82150000D01*
X106541242Y-79968207D01*
X106704717Y-80363846D01*
X107133894Y-80793773D01*
X107694928Y-81026735D01*
X108302407Y-81027265D01*
X108863846Y-80795283D01*
X109293773Y-80366106D01*
X109526735Y-79805072D01*
X109527265Y-79197593D01*
X109295283Y-78636154D01*
X108866106Y-78206227D01*
X108305072Y-77973265D01*
X107697593Y-77972735D01*
X107136154Y-78204717D01*
X106706227Y-78633894D01*
X106512913Y-79099445D01*
X106490549Y-78980590D01*
X106331328Y-78733154D01*
X106088385Y-78567157D01*
X105800000Y-78508758D01*
X103050000Y-78508758D01*
X102780590Y-78559451D01*
X102533154Y-78718672D01*
X102367157Y-78961615D01*
X102308758Y-79250000D01*
X72527000Y-79250000D01*
X72527000Y-69346122D01*
X73373122Y-68500000D01*
X74808758Y-68500000D01*
X74808758Y-72500000D01*
X74859451Y-72769410D01*
X75018672Y-73016846D01*
X75261615Y-73182843D01*
X75550000Y-73241242D01*
X82550000Y-73241242D01*
X82819410Y-73190549D01*
X83066846Y-73031328D01*
X83232843Y-72788385D01*
X83291242Y-72500000D01*
X83291242Y-71477000D01*
X85708758Y-71477000D01*
X85708758Y-72500000D01*
X85759451Y-72769410D01*
X85918672Y-73016846D01*
X86161615Y-73182843D01*
X86450000Y-73241242D01*
X93450000Y-73241242D01*
X93719410Y-73190549D01*
X93966846Y-73031328D01*
X94132843Y-72788385D01*
X94191242Y-72500000D01*
X94191242Y-71685750D01*
X102415000Y-71685750D01*
X102415000Y-72726310D01*
X102511673Y-72959699D01*
X102690302Y-73138327D01*
X102923691Y-73235000D01*
X104039250Y-73235000D01*
X104198000Y-73076250D01*
X104198000Y-71527000D01*
X104452000Y-71527000D01*
X104452000Y-73076250D01*
X104610750Y-73235000D01*
X105726309Y-73235000D01*
X105959698Y-73138327D01*
X106138327Y-72959699D01*
X106203479Y-72802407D01*
X106472735Y-72802407D01*
X106704717Y-73363846D01*
X107133894Y-73793773D01*
X107694928Y-74026735D01*
X108302407Y-74027265D01*
X108863846Y-73795283D01*
X109293773Y-73366106D01*
X109526735Y-72805072D01*
X109527265Y-72197593D01*
X109486941Y-72100000D01*
X109658758Y-72100000D01*
X109658758Y-74500000D01*
X109709451Y-74769410D01*
X109868672Y-75016846D01*
X110111615Y-75182843D01*
X110400000Y-75241242D01*
X112950000Y-75241242D01*
X113219410Y-75190549D01*
X113466846Y-75031328D01*
X113632843Y-74788385D01*
X113691242Y-74500000D01*
X113691242Y-72100000D01*
X113640549Y-71830590D01*
X113481328Y-71583154D01*
X113238385Y-71417157D01*
X112950000Y-71358758D01*
X110400000Y-71358758D01*
X110130590Y-71409451D01*
X109883154Y-71568672D01*
X109717157Y-71811615D01*
X109658758Y-72100000D01*
X109486941Y-72100000D01*
X109295283Y-71636154D01*
X108866106Y-71206227D01*
X108305072Y-70973265D01*
X107697593Y-70972735D01*
X107136154Y-71204717D01*
X106706227Y-71633894D01*
X106473265Y-72194928D01*
X106472735Y-72802407D01*
X106203479Y-72802407D01*
X106235000Y-72726310D01*
X106235000Y-71685750D01*
X106076250Y-71527000D01*
X104452000Y-71527000D01*
X104198000Y-71527000D01*
X102573750Y-71527000D01*
X102415000Y-71685750D01*
X94191242Y-71685750D01*
X94191242Y-68500000D01*
X94140549Y-68230590D01*
X93981328Y-67983154D01*
X93738385Y-67817157D01*
X93450000Y-67758758D01*
X86450000Y-67758758D01*
X86180590Y-67809451D01*
X85933154Y-67968672D01*
X85767157Y-68211615D01*
X85708758Y-68500000D01*
X85708758Y-69523000D01*
X83291242Y-69523000D01*
X83291242Y-68500000D01*
X83240549Y-68230590D01*
X83081328Y-67983154D01*
X82838385Y-67817157D01*
X82550000Y-67758758D01*
X75550000Y-67758758D01*
X75280590Y-67809451D01*
X75033154Y-67968672D01*
X74867157Y-68211615D01*
X74808758Y-68500000D01*
X73373122Y-68500000D01*
X74697938Y-67175184D01*
X97679251Y-67175184D01*
X100044716Y-69540649D01*
X100044716Y-69540649D01*
G37*
X100044716Y-69540649D02*
X100050578Y-69549422D01*
X100059351Y-69555284D01*
X100076672Y-69572605D01*
X100328749Y-69741037D01*
X100626094Y-69800183D01*
X100742642Y-69777000D01*
X102574974Y-69777000D01*
X102511673Y-69840301D01*
X102415000Y-70073690D01*
X102415000Y-71114250D01*
X102573750Y-71273000D01*
X104198000Y-71273000D01*
X104198000Y-71253000D01*
X104452000Y-71253000D01*
X104452000Y-71273000D01*
X106076250Y-71273000D01*
X106235000Y-71114250D01*
X106235000Y-70073690D01*
X106138327Y-69840301D01*
X106075026Y-69777000D01*
X106500000Y-69777000D01*
X106797345Y-69717854D01*
X106860812Y-69675447D01*
X107104864Y-69776786D01*
X107592995Y-69777212D01*
X108025507Y-69598501D01*
X108454864Y-69776786D01*
X108942995Y-69777212D01*
X109131060Y-69699505D01*
X109193088Y-69740951D01*
X109500000Y-69802000D01*
X115400000Y-69802000D01*
X115706912Y-69740951D01*
X115967100Y-69567100D01*
X116041677Y-69455487D01*
X118345595Y-67175184D01*
X161679246Y-67175184D01*
X164044724Y-69540661D01*
X164050578Y-69549422D01*
X164059339Y-69555276D01*
X164076668Y-69572605D01*
X164328745Y-69741037D01*
X164626090Y-69800183D01*
X164742638Y-69777000D01*
X166574974Y-69777000D01*
X166511673Y-69840301D01*
X166415000Y-70073690D01*
X166415000Y-71114250D01*
X166573750Y-71273000D01*
X168198000Y-71273000D01*
X168198000Y-71253000D01*
X168452000Y-71253000D01*
X168452000Y-71273000D01*
X170076250Y-71273000D01*
X170235000Y-71114250D01*
X170235000Y-70073690D01*
X170138327Y-69840301D01*
X170075026Y-69777000D01*
X170480000Y-69777000D01*
X170490000Y-69775011D01*
X170500000Y-69777000D01*
X170797345Y-69717854D01*
X170933950Y-69626578D01*
X171054864Y-69676786D01*
X171542995Y-69677212D01*
X171994131Y-69490806D01*
X171999707Y-69485240D01*
X172004053Y-69489593D01*
X172454864Y-69676786D01*
X172942995Y-69677212D01*
X173065855Y-69626447D01*
X173202655Y-69717854D01*
X173500000Y-69777000D01*
X173505000Y-69776005D01*
X173510000Y-69777000D01*
X179259551Y-69777000D01*
X179376101Y-69800183D01*
X179673446Y-69741037D01*
X179925523Y-69572604D01*
X179947261Y-69550866D01*
X179949422Y-69549422D01*
X179950866Y-69547261D01*
X180998123Y-68500000D01*
X185808758Y-68500000D01*
X185808758Y-72500000D01*
X185859451Y-72769410D01*
X186018672Y-73016846D01*
X186261615Y-73182843D01*
X186550000Y-73241242D01*
X193550000Y-73241242D01*
X193819410Y-73190549D01*
X194066846Y-73031328D01*
X194232843Y-72788385D01*
X194291242Y-72500000D01*
X194291242Y-71477000D01*
X196708758Y-71477000D01*
X196708758Y-72500000D01*
X196759451Y-72769410D01*
X196918672Y-73016846D01*
X197161615Y-73182843D01*
X197450000Y-73241242D01*
X204450000Y-73241242D01*
X204719410Y-73190549D01*
X204966846Y-73031328D01*
X205132843Y-72788385D01*
X205191242Y-72500000D01*
X205191242Y-68500000D01*
X205140549Y-68230590D01*
X204981328Y-67983154D01*
X204738385Y-67817157D01*
X204450000Y-67758758D01*
X197450000Y-67758758D01*
X197180590Y-67809451D01*
X196933154Y-67968672D01*
X196767157Y-68211615D01*
X196708758Y-68500000D01*
X196708758Y-69523000D01*
X194291242Y-69523000D01*
X194291242Y-68500000D01*
X194240549Y-68230590D01*
X194081328Y-67983154D01*
X193838385Y-67817157D01*
X193550000Y-67758758D01*
X186550000Y-67758758D01*
X186280590Y-67809451D01*
X186033154Y-67968672D01*
X185867157Y-68211615D01*
X185808758Y-68500000D01*
X180998123Y-68500000D01*
X182322935Y-67175184D01*
X205304246Y-67175184D01*
X207473000Y-69343937D01*
X207473000Y-98500000D01*
X207531498Y-98794087D01*
X207423214Y-99054864D01*
X207422788Y-99542995D01*
X207609194Y-99994131D01*
X207614760Y-99999707D01*
X207610407Y-100004053D01*
X207423214Y-100454864D01*
X207422788Y-100942995D01*
X207531470Y-101206025D01*
X207505025Y-101339000D01*
X207473000Y-101500000D01*
X207473003Y-101500014D01*
X207473000Y-101500029D01*
X207474088Y-130651349D01*
X205304255Y-132821190D01*
X182322689Y-132821190D01*
X179949423Y-130450580D01*
X179949422Y-130450578D01*
X179949420Y-130450577D01*
X179949114Y-130450271D01*
X179823898Y-130366706D01*
X179697345Y-130282146D01*
X179697127Y-130282103D01*
X179696943Y-130281980D01*
X179548677Y-130252574D01*
X179400000Y-130223000D01*
X160000000Y-130223000D01*
X159702655Y-130282146D01*
X159685338Y-130293717D01*
X159395136Y-130173214D01*
X158907005Y-130172788D01*
X158474493Y-130351499D01*
X158045136Y-130173214D01*
X157557005Y-130172788D01*
X157322703Y-130269600D01*
X157306912Y-130259049D01*
X157000000Y-130198000D01*
X117500000Y-130198000D01*
X117193088Y-130259049D01*
X117177283Y-130269610D01*
X116945136Y-130173214D01*
X116457005Y-130172788D01*
X116024493Y-130351499D01*
X115595136Y-130173214D01*
X115107005Y-130172788D01*
X114814537Y-130293633D01*
X114797345Y-130282146D01*
X114500000Y-130223000D01*
X100600000Y-130223000D01*
X100451513Y-130252536D01*
X100302754Y-130282105D01*
X100302709Y-130282135D01*
X100302655Y-130282146D01*
X100174327Y-130367892D01*
X100050654Y-130450503D01*
X100050581Y-130450576D01*
X100050578Y-130450578D01*
X100050576Y-130450581D01*
X97679314Y-132821190D01*
X74697939Y-132821190D01*
X72527000Y-130650242D01*
X72527000Y-129785750D01*
X74915000Y-129785750D01*
X74915000Y-131626309D01*
X75011673Y-131859698D01*
X75190301Y-132038327D01*
X75423690Y-132135000D01*
X78764250Y-132135000D01*
X78923000Y-131976250D01*
X78923000Y-129627000D01*
X79177000Y-129627000D01*
X79177000Y-131976250D01*
X79335750Y-132135000D01*
X82676310Y-132135000D01*
X82909699Y-132038327D01*
X83088327Y-131859698D01*
X83185000Y-131626309D01*
X83185000Y-129785750D01*
X83026250Y-129627000D01*
X79177000Y-129627000D01*
X78923000Y-129627000D01*
X75073750Y-129627000D01*
X74915000Y-129785750D01*
X72527000Y-129785750D01*
X72527000Y-127373691D01*
X74915000Y-127373691D01*
X74915000Y-129214250D01*
X75073750Y-129373000D01*
X78923000Y-129373000D01*
X78923000Y-127023750D01*
X79177000Y-127023750D01*
X79177000Y-129373000D01*
X83026250Y-129373000D01*
X83185000Y-129214250D01*
X83185000Y-127500000D01*
X85708758Y-127500000D01*
X85708758Y-131500000D01*
X85759451Y-131769410D01*
X85918672Y-132016846D01*
X86161615Y-132182843D01*
X86450000Y-132241242D01*
X93450000Y-132241242D01*
X93719410Y-132190549D01*
X93966846Y-132031328D01*
X94132843Y-131788385D01*
X94191242Y-131500000D01*
X94191242Y-130477000D01*
X94782000Y-130477000D01*
X95155882Y-130402630D01*
X95472843Y-130190843D01*
X97448737Y-128214950D01*
X97472843Y-128198843D01*
X102873691Y-122797995D01*
X117898788Y-122797995D01*
X118085194Y-123249131D01*
X118430053Y-123594593D01*
X118880864Y-123781786D01*
X119368995Y-123782212D01*
X119820131Y-123595806D01*
X120165593Y-123250947D01*
X120352786Y-122800136D01*
X120352865Y-122709822D01*
X120361637Y-122701049D01*
X120388882Y-122695630D01*
X120705843Y-122483843D01*
X120917630Y-122166882D01*
X120992000Y-121793000D01*
X120992000Y-119158706D01*
X121420864Y-119336786D01*
X121511179Y-119336865D01*
X121786665Y-119612351D01*
X121859157Y-119720843D01*
X131109156Y-128970843D01*
X131341542Y-129126118D01*
X131426118Y-129182630D01*
X131800000Y-129257000D01*
X148850000Y-129257000D01*
X149223882Y-129182630D01*
X149540843Y-128970843D01*
X152134686Y-126377000D01*
X184045314Y-126377000D01*
X185808758Y-128140444D01*
X185808758Y-131500000D01*
X185859451Y-131769410D01*
X186018672Y-132016846D01*
X186261615Y-132182843D01*
X186550000Y-132241242D01*
X193550000Y-132241242D01*
X193819410Y-132190549D01*
X194066846Y-132031328D01*
X194232843Y-131788385D01*
X194291242Y-131500000D01*
X194291242Y-127500000D01*
X194240549Y-127230590D01*
X194081328Y-126983154D01*
X193838385Y-126817157D01*
X193550000Y-126758758D01*
X188661443Y-126758758D01*
X188431881Y-126605370D01*
X188058000Y-126531000D01*
X187684119Y-126605370D01*
X187454557Y-126758758D01*
X187190444Y-126758758D01*
X185140843Y-124709157D01*
X184823882Y-124497370D01*
X184450000Y-124423000D01*
X151730000Y-124423000D01*
X151356118Y-124497370D01*
X151039157Y-124709157D01*
X148445314Y-127303000D01*
X132204687Y-127303000D01*
X123313336Y-118411650D01*
X123240843Y-118303157D01*
X122893135Y-117955449D01*
X122893212Y-117867005D01*
X122706806Y-117415869D01*
X122361947Y-117070407D01*
X121911136Y-116883214D01*
X121889725Y-116883195D01*
X121902630Y-116863882D01*
X121926378Y-116744491D01*
X121977000Y-116490000D01*
X121977000Y-115114129D01*
X122141885Y-115046000D01*
X127694758Y-115046000D01*
X127694758Y-117046000D01*
X127745451Y-117315410D01*
X127904672Y-117562846D01*
X128147615Y-117728843D01*
X128309000Y-117761524D01*
X128309000Y-119380000D01*
X128383370Y-119753882D01*
X128595157Y-120070843D01*
X135199156Y-126674843D01*
X135483746Y-126865000D01*
X135516118Y-126886630D01*
X135890000Y-126961000D01*
X140970000Y-126961000D01*
X141343882Y-126886630D01*
X141660843Y-126674843D01*
X144383936Y-123951750D01*
X146393000Y-123951750D01*
X146393000Y-124792309D01*
X146489673Y-125025698D01*
X146668301Y-125204327D01*
X146901690Y-125301000D01*
X147542250Y-125301000D01*
X147701000Y-125142250D01*
X147701000Y-123793000D01*
X147955000Y-123793000D01*
X147955000Y-125142250D01*
X148113750Y-125301000D01*
X148754310Y-125301000D01*
X148987699Y-125204327D01*
X149166327Y-125025698D01*
X149263000Y-124792309D01*
X149263000Y-123951750D01*
X149104250Y-123793000D01*
X147955000Y-123793000D01*
X147701000Y-123793000D01*
X146551750Y-123793000D01*
X146393000Y-123951750D01*
X144383936Y-123951750D01*
X144962843Y-123372843D01*
X144970363Y-123361589D01*
X145174630Y-123055882D01*
X145249000Y-122682000D01*
X145249000Y-122539691D01*
X146393000Y-122539691D01*
X146393000Y-123380250D01*
X146551750Y-123539000D01*
X147701000Y-123539000D01*
X147701000Y-122189750D01*
X147955000Y-122189750D01*
X147955000Y-123539000D01*
X149104250Y-123539000D01*
X149263000Y-123380250D01*
X149263000Y-122539691D01*
X149166327Y-122306302D01*
X148987699Y-122127673D01*
X148754310Y-122031000D01*
X148113750Y-122031000D01*
X147955000Y-122189750D01*
X147701000Y-122189750D01*
X147542250Y-122031000D01*
X146901690Y-122031000D01*
X146668301Y-122127673D01*
X146489673Y-122306302D01*
X146393000Y-122539691D01*
X145249000Y-122539691D01*
X145249000Y-117181025D01*
X145398301Y-117330327D01*
X145631690Y-117427000D01*
X146272250Y-117427000D01*
X146431000Y-117268250D01*
X146431000Y-115919000D01*
X146411000Y-115919000D01*
X146411000Y-115665000D01*
X146431000Y-115665000D01*
X146431000Y-114315750D01*
X146272250Y-114157000D01*
X145631690Y-114157000D01*
X145398301Y-114253673D01*
X145249000Y-114402975D01*
X145249000Y-113324102D01*
X145469615Y-113474843D01*
X145758000Y-113533242D01*
X147358000Y-113533242D01*
X147627410Y-113482549D01*
X147874846Y-113323328D01*
X147913000Y-113267488D01*
X147913000Y-114472554D01*
X147896327Y-114432302D01*
X147717699Y-114253673D01*
X147484310Y-114157000D01*
X146843750Y-114157000D01*
X146685000Y-114315750D01*
X146685000Y-115665000D01*
X146705000Y-115665000D01*
X146705000Y-115919000D01*
X146685000Y-115919000D01*
X146685000Y-117268250D01*
X146843750Y-117427000D01*
X147484310Y-117427000D01*
X147717699Y-117330327D01*
X147896327Y-117151698D01*
X147913000Y-117111446D01*
X147913000Y-117913314D01*
X147901556Y-117924758D01*
X147028000Y-117924758D01*
X146758590Y-117975451D01*
X146511154Y-118134672D01*
X146345157Y-118377615D01*
X146286758Y-118666000D01*
X146286758Y-120666000D01*
X146337451Y-120935410D01*
X146496672Y-121182846D01*
X146739615Y-121348843D01*
X147028000Y-121407242D01*
X148628000Y-121407242D01*
X148897410Y-121356549D01*
X149144846Y-121197328D01*
X149310843Y-120954385D01*
X149369242Y-120666000D01*
X149369242Y-119220444D01*
X149580843Y-119008843D01*
X149719824Y-118800843D01*
X149792630Y-118691882D01*
X149867000Y-118318000D01*
X149867000Y-116737114D01*
X154172268Y-116737114D01*
X154814434Y-118291275D01*
X156002470Y-119481387D01*
X157555509Y-120126265D01*
X159237114Y-120127732D01*
X160791275Y-119485566D01*
X161981387Y-118297530D01*
X162626265Y-116744491D01*
X162627732Y-115062886D01*
X161985566Y-113508725D01*
X160797530Y-112318613D01*
X159244491Y-111673735D01*
X157562886Y-111672268D01*
X156008725Y-112314434D01*
X154818613Y-113502470D01*
X154173735Y-115055509D01*
X154172268Y-116737114D01*
X149867000Y-116737114D01*
X149867000Y-108657937D01*
X149959410Y-108640549D01*
X150206846Y-108481328D01*
X150372843Y-108238385D01*
X150431242Y-107950000D01*
X150431242Y-104750000D01*
X150380549Y-104480590D01*
X150221328Y-104233154D01*
X149978385Y-104067157D01*
X149690000Y-104008758D01*
X148090000Y-104008758D01*
X147820590Y-104059451D01*
X147617948Y-104189848D01*
X147438385Y-104067157D01*
X147150000Y-104008758D01*
X145550000Y-104008758D01*
X145280590Y-104059451D01*
X145077948Y-104189848D01*
X144898385Y-104067157D01*
X144610000Y-104008758D01*
X143010000Y-104008758D01*
X142740590Y-104059451D01*
X142537948Y-104189848D01*
X142358385Y-104067157D01*
X142070000Y-104008758D01*
X140470000Y-104008758D01*
X140200590Y-104059451D01*
X139953154Y-104218672D01*
X139930237Y-104252212D01*
X139889698Y-104211673D01*
X139656309Y-104115000D01*
X139015750Y-104115000D01*
X138857000Y-104273750D01*
X138857000Y-106223000D01*
X138877000Y-106223000D01*
X138877000Y-106477000D01*
X138857000Y-106477000D01*
X138857000Y-108426250D01*
X139015750Y-108585000D01*
X139656309Y-108585000D01*
X139889698Y-108488327D01*
X139927908Y-108450118D01*
X139938672Y-108466846D01*
X140181615Y-108632843D01*
X140457734Y-108688758D01*
X138330000Y-108688758D01*
X138060590Y-108739451D01*
X137813154Y-108898672D01*
X137647157Y-109141615D01*
X137588758Y-109430000D01*
X137588758Y-111430000D01*
X137639451Y-111699410D01*
X137798672Y-111946846D01*
X138041615Y-112112843D01*
X138330000Y-112171242D01*
X139466150Y-112171242D01*
X139009582Y-112359892D01*
X138551501Y-112817175D01*
X138303283Y-113414950D01*
X138302718Y-114062211D01*
X138549892Y-114660418D01*
X138899073Y-115010208D01*
X138551501Y-115357175D01*
X138303283Y-115954950D01*
X138302718Y-116602211D01*
X138549892Y-117200418D01*
X138899073Y-117550208D01*
X138551501Y-117897175D01*
X138303283Y-118494950D01*
X138302718Y-119142211D01*
X138549892Y-119740418D01*
X139007175Y-120198499D01*
X139465369Y-120388758D01*
X138330000Y-120388758D01*
X138060590Y-120439451D01*
X137813154Y-120598672D01*
X137647157Y-120841615D01*
X137588758Y-121130000D01*
X137588758Y-123130000D01*
X137639451Y-123399410D01*
X137798672Y-123646846D01*
X138041615Y-123812843D01*
X138330000Y-123871242D01*
X141530000Y-123871242D01*
X141740722Y-123831592D01*
X140565314Y-125007000D01*
X136294687Y-125007000D01*
X130263000Y-118975314D01*
X130263000Y-117763345D01*
X130405410Y-117736549D01*
X130652846Y-117577328D01*
X130818843Y-117334385D01*
X130877242Y-117046000D01*
X130877242Y-116331750D01*
X132169000Y-116331750D01*
X132169000Y-117172309D01*
X132265673Y-117405698D01*
X132444301Y-117584327D01*
X132677690Y-117681000D01*
X133318250Y-117681000D01*
X133477000Y-117522250D01*
X133477000Y-116173000D01*
X133731000Y-116173000D01*
X133731000Y-117522250D01*
X133889750Y-117681000D01*
X134530310Y-117681000D01*
X134763699Y-117584327D01*
X134942327Y-117405698D01*
X135039000Y-117172309D01*
X135039000Y-116331750D01*
X134880250Y-116173000D01*
X133731000Y-116173000D01*
X133477000Y-116173000D01*
X132327750Y-116173000D01*
X132169000Y-116331750D01*
X130877242Y-116331750D01*
X130877242Y-115046000D01*
X130853476Y-114919691D01*
X132169000Y-114919691D01*
X132169000Y-115760250D01*
X132327750Y-115919000D01*
X133477000Y-115919000D01*
X133477000Y-114569750D01*
X133731000Y-114569750D01*
X133731000Y-115919000D01*
X134880250Y-115919000D01*
X135039000Y-115760250D01*
X135039000Y-114919691D01*
X134942327Y-114686302D01*
X134763699Y-114507673D01*
X134530310Y-114411000D01*
X133889750Y-114411000D01*
X133731000Y-114569750D01*
X133477000Y-114569750D01*
X133318250Y-114411000D01*
X132677690Y-114411000D01*
X132444301Y-114507673D01*
X132265673Y-114686302D01*
X132169000Y-114919691D01*
X130853476Y-114919691D01*
X130826549Y-114776590D01*
X130667328Y-114529154D01*
X130424385Y-114363157D01*
X130136000Y-114304758D01*
X128436000Y-114304758D01*
X128166590Y-114355451D01*
X127919154Y-114514672D01*
X127753157Y-114757615D01*
X127694758Y-115046000D01*
X122141885Y-115046000D01*
X122316418Y-114973885D01*
X122971585Y-114319861D01*
X123113953Y-113977000D01*
X124490000Y-113977000D01*
X124863882Y-113902630D01*
X125180843Y-113690843D01*
X125848687Y-113023000D01*
X127694758Y-113023000D01*
X127694758Y-113046000D01*
X127745451Y-113315410D01*
X127904672Y-113562846D01*
X128147615Y-113728843D01*
X128436000Y-113787242D01*
X130136000Y-113787242D01*
X130405410Y-113736549D01*
X130652846Y-113577328D01*
X130818843Y-113334385D01*
X130877242Y-113046000D01*
X130877242Y-111046000D01*
X130826549Y-110776590D01*
X130667328Y-110529154D01*
X130424385Y-110363157D01*
X130136000Y-110304758D01*
X128436000Y-110304758D01*
X128166590Y-110355451D01*
X127919154Y-110514672D01*
X127753157Y-110757615D01*
X127694758Y-111046000D01*
X127694758Y-111069000D01*
X125444000Y-111069000D01*
X125070118Y-111143370D01*
X124970221Y-111210119D01*
X124753157Y-111355156D01*
X124085314Y-112023000D01*
X123114129Y-112023000D01*
X122973885Y-111683582D01*
X122319861Y-111028415D01*
X121464900Y-110673404D01*
X120539162Y-110672597D01*
X119683582Y-111026115D01*
X119028415Y-111680139D01*
X118673404Y-112535100D01*
X118672597Y-113460838D01*
X119026115Y-114316418D01*
X119680139Y-114971585D01*
X120023000Y-115113953D01*
X120023000Y-116085313D01*
X119324157Y-116784157D01*
X119112370Y-117101118D01*
X119038000Y-117475000D01*
X119038000Y-121261313D01*
X118971448Y-121327865D01*
X118883005Y-121327788D01*
X118431869Y-121514194D01*
X118086407Y-121859053D01*
X117899214Y-122309864D01*
X117898788Y-122797995D01*
X102873691Y-122797995D01*
X106584686Y-119087000D01*
X115954569Y-119087000D01*
X116017053Y-119149593D01*
X116467864Y-119336786D01*
X116955995Y-119337212D01*
X117407131Y-119150806D01*
X117752593Y-118805947D01*
X117939786Y-118355136D01*
X117940212Y-117867005D01*
X117753806Y-117415869D01*
X117408947Y-117070407D01*
X116958136Y-116883214D01*
X116470005Y-116882788D01*
X116018869Y-117069194D01*
X115954951Y-117133000D01*
X106180000Y-117133000D01*
X105806118Y-117207370D01*
X105509300Y-117405698D01*
X105489157Y-117419157D01*
X96107268Y-126801046D01*
X96083156Y-126817157D01*
X94377314Y-128523000D01*
X94191242Y-128523000D01*
X94191242Y-127500000D01*
X94140549Y-127230590D01*
X93981328Y-126983154D01*
X93738385Y-126817157D01*
X93450000Y-126758758D01*
X86450000Y-126758758D01*
X86180590Y-126809451D01*
X85933154Y-126968672D01*
X85767157Y-127211615D01*
X85708758Y-127500000D01*
X83185000Y-127500000D01*
X83185000Y-127373691D01*
X83088327Y-127140302D01*
X82909699Y-126961673D01*
X82676310Y-126865000D01*
X79335750Y-126865000D01*
X79177000Y-127023750D01*
X78923000Y-127023750D01*
X78764250Y-126865000D01*
X75423690Y-126865000D01*
X75190301Y-126961673D01*
X75011673Y-127140302D01*
X74915000Y-127373691D01*
X72527000Y-127373691D01*
X72527000Y-114586202D01*
X109593403Y-114586202D01*
X109765390Y-114915360D01*
X110592346Y-115242026D01*
X111481363Y-115227365D01*
X112234610Y-114915360D01*
X112406597Y-114586202D01*
X114593403Y-114586202D01*
X114765390Y-114915360D01*
X115592346Y-115242026D01*
X116481363Y-115227365D01*
X117234610Y-114915360D01*
X117406597Y-114586202D01*
X116000000Y-113179605D01*
X114593403Y-114586202D01*
X112406597Y-114586202D01*
X111000000Y-113179605D01*
X109593403Y-114586202D01*
X72527000Y-114586202D01*
X72527000Y-112592346D01*
X108757974Y-112592346D01*
X108772635Y-113481363D01*
X109084640Y-114234610D01*
X109413798Y-114406597D01*
X110820395Y-113000000D01*
X111179605Y-113000000D01*
X112586202Y-114406597D01*
X112915360Y-114234610D01*
X113242026Y-113407654D01*
X113228581Y-112592346D01*
X113757974Y-112592346D01*
X113772635Y-113481363D01*
X114084640Y-114234610D01*
X114413798Y-114406597D01*
X115820395Y-113000000D01*
X116179605Y-113000000D01*
X117586202Y-114406597D01*
X117915360Y-114234610D01*
X118242026Y-113407654D01*
X118227365Y-112518637D01*
X117915360Y-111765390D01*
X117586202Y-111593403D01*
X116179605Y-113000000D01*
X115820395Y-113000000D01*
X114413798Y-111593403D01*
X114084640Y-111765390D01*
X113757974Y-112592346D01*
X113228581Y-112592346D01*
X113227365Y-112518637D01*
X112915360Y-111765390D01*
X112586202Y-111593403D01*
X111179605Y-113000000D01*
X110820395Y-113000000D01*
X109413798Y-111593403D01*
X109084640Y-111765390D01*
X108757974Y-112592346D01*
X72527000Y-112592346D01*
X72527000Y-111413798D01*
X109593403Y-111413798D01*
X111000000Y-112820395D01*
X112406597Y-111413798D01*
X114593403Y-111413798D01*
X116000000Y-112820395D01*
X117406597Y-111413798D01*
X117234610Y-111084640D01*
X116407654Y-110757974D01*
X115518637Y-110772635D01*
X114765390Y-111084640D01*
X114593403Y-111413798D01*
X112406597Y-111413798D01*
X112234610Y-111084640D01*
X111407654Y-110757974D01*
X110518637Y-110772635D01*
X109765390Y-111084640D01*
X109593403Y-111413798D01*
X72527000Y-111413798D01*
X72527000Y-101500000D01*
X72467854Y-101202655D01*
X72438251Y-101158351D01*
X72526786Y-100945136D01*
X72526967Y-100737114D01*
X111872268Y-100737114D01*
X112514434Y-102291275D01*
X113702470Y-103481387D01*
X115255509Y-104126265D01*
X116937114Y-104127732D01*
X118491275Y-103485566D01*
X119681387Y-102297530D01*
X120326265Y-100744491D01*
X120327645Y-99161600D01*
X122301640Y-99161600D01*
X122301640Y-100838000D01*
X122328415Y-100972604D01*
X122328888Y-101017913D01*
X122378506Y-101254417D01*
X122437137Y-101391882D01*
X122493272Y-101530320D01*
X122639185Y-101752263D01*
X122762985Y-101877925D01*
X122858801Y-101975182D01*
X123078541Y-102124391D01*
X123266120Y-102203733D01*
X123366743Y-102246295D01*
X123626857Y-102300056D01*
X123939773Y-102302391D01*
X123939774Y-102302391D01*
X124200661Y-102252518D01*
X124367655Y-102184802D01*
X124490649Y-102134929D01*
X124712592Y-101989016D01*
X124935509Y-101769402D01*
X124935511Y-101769400D01*
X125084720Y-101549660D01*
X125185962Y-101310306D01*
X125206624Y-101261458D01*
X125260385Y-101001344D01*
X125260818Y-100943353D01*
X125282261Y-100828279D01*
X125261941Y-99151880D01*
X125244900Y-99071325D01*
X125243185Y-98976616D01*
X125192198Y-98742524D01*
X125132558Y-98605608D01*
X125075410Y-98467638D01*
X124928950Y-98248444D01*
X124707676Y-98027170D01*
X124488482Y-97880710D01*
X124298582Y-97802052D01*
X124199378Y-97760960D01*
X123940822Y-97709530D01*
X123784360Y-97709531D01*
X123627897Y-97709530D01*
X123369342Y-97760960D01*
X123270138Y-97802052D01*
X123080238Y-97880710D01*
X122861044Y-98027170D01*
X122639770Y-98248444D01*
X122493310Y-98467638D01*
X122443593Y-98587668D01*
X122373560Y-98756742D01*
X122322130Y-99015298D01*
X122322130Y-99058590D01*
X122301640Y-99161600D01*
X120327645Y-99161600D01*
X120327732Y-99062886D01*
X119685566Y-97508725D01*
X118497530Y-96318613D01*
X116944491Y-95673735D01*
X115262886Y-95672268D01*
X113708725Y-96314434D01*
X112518613Y-97502470D01*
X111873735Y-99055509D01*
X111872268Y-100737114D01*
X72526967Y-100737114D01*
X72527212Y-100457005D01*
X72348501Y-100024493D01*
X72526786Y-99595136D01*
X72527212Y-99107005D01*
X72425472Y-98860775D01*
X72467854Y-98797345D01*
X72527000Y-98500000D01*
X72527000Y-79250000D01*
X102308758Y-79250000D01*
X102308758Y-82150000D01*
X102359451Y-82419410D01*
X102518672Y-82666846D01*
X102761615Y-82832843D01*
X103050000Y-82891242D01*
X103448000Y-82891242D01*
X103448000Y-83851000D01*
X103522370Y-84224882D01*
X103713443Y-84510843D01*
X103734157Y-84541843D01*
X105481157Y-86288843D01*
X105798118Y-86500630D01*
X106172000Y-86575000D01*
X113600000Y-86575000D01*
X113973882Y-86500630D01*
X114290843Y-86288843D01*
X116800843Y-83778843D01*
X117012630Y-83461882D01*
X117039014Y-83329242D01*
X117110000Y-83329242D01*
X117379410Y-83278549D01*
X117626846Y-83119328D01*
X117792843Y-82876385D01*
X117851242Y-82588000D01*
X117851242Y-81110928D01*
X118368758Y-81628444D01*
X118368758Y-82588000D01*
X118419451Y-82857410D01*
X118578672Y-83104846D01*
X118821615Y-83270843D01*
X119110000Y-83329242D01*
X121110000Y-83329242D01*
X121379410Y-83278549D01*
X121626846Y-83119328D01*
X121792843Y-82876385D01*
X121851242Y-82588000D01*
X121851242Y-80988000D01*
X121800549Y-80718590D01*
X121641328Y-80471154D01*
X121398385Y-80305157D01*
X121326256Y-80290551D01*
X121379410Y-80280549D01*
X121626846Y-80121328D01*
X121792843Y-79878385D01*
X121825524Y-79717000D01*
X124863000Y-79717000D01*
X124863000Y-82660000D01*
X124937370Y-83033882D01*
X125129254Y-83321056D01*
X125149157Y-83350843D01*
X125772865Y-83974552D01*
X125772788Y-84062995D01*
X125959194Y-84514131D01*
X126304053Y-84859593D01*
X126754864Y-85046786D01*
X127242995Y-85047212D01*
X127547000Y-84921599D01*
X127547000Y-98298000D01*
X127621370Y-98671882D01*
X127749533Y-98863691D01*
X127833157Y-98988843D01*
X130133000Y-101288687D01*
X130133000Y-104042063D01*
X130040590Y-104059451D01*
X129793154Y-104218672D01*
X129627157Y-104461615D01*
X129568758Y-104750000D01*
X129568758Y-107950000D01*
X129619451Y-108219410D01*
X129778672Y-108466846D01*
X130021615Y-108632843D01*
X130310000Y-108691242D01*
X131910000Y-108691242D01*
X132179410Y-108640549D01*
X132382052Y-108510152D01*
X132561615Y-108632843D01*
X132673000Y-108655399D01*
X132673000Y-110329407D01*
X132534590Y-110355451D01*
X132287154Y-110514672D01*
X132121157Y-110757615D01*
X132062758Y-111046000D01*
X132062758Y-113046000D01*
X132113451Y-113315410D01*
X132272672Y-113562846D01*
X132515615Y-113728843D01*
X132804000Y-113787242D01*
X134404000Y-113787242D01*
X134673410Y-113736549D01*
X134920846Y-113577328D01*
X135086843Y-113334385D01*
X135145242Y-113046000D01*
X135145242Y-111046000D01*
X135094549Y-110776590D01*
X134935328Y-110529154D01*
X134692385Y-110363157D01*
X134627000Y-110349916D01*
X134627000Y-108657937D01*
X134719410Y-108640549D01*
X134966846Y-108481328D01*
X134989763Y-108447788D01*
X135030302Y-108488327D01*
X135263691Y-108585000D01*
X135904250Y-108585000D01*
X136063000Y-108426250D01*
X136063000Y-106477000D01*
X136317000Y-106477000D01*
X136317000Y-108426250D01*
X136475750Y-108585000D01*
X137116309Y-108585000D01*
X137349698Y-108488327D01*
X137460000Y-108378026D01*
X137570302Y-108488327D01*
X137803691Y-108585000D01*
X138444250Y-108585000D01*
X138603000Y-108426250D01*
X138603000Y-106477000D01*
X136317000Y-106477000D01*
X136063000Y-106477000D01*
X136043000Y-106477000D01*
X136043000Y-106223000D01*
X136063000Y-106223000D01*
X136063000Y-104273750D01*
X136317000Y-104273750D01*
X136317000Y-106223000D01*
X138603000Y-106223000D01*
X138603000Y-104273750D01*
X138444250Y-104115000D01*
X137803691Y-104115000D01*
X137570302Y-104211673D01*
X137460000Y-104321974D01*
X137349698Y-104211673D01*
X137116309Y-104115000D01*
X136475750Y-104115000D01*
X136317000Y-104273750D01*
X136063000Y-104273750D01*
X135904250Y-104115000D01*
X135263691Y-104115000D01*
X135030302Y-104211673D01*
X134992092Y-104249882D01*
X134981328Y-104233154D01*
X134738385Y-104067157D01*
X134450000Y-104008758D01*
X132850000Y-104008758D01*
X132580590Y-104059451D01*
X132377948Y-104189848D01*
X132198385Y-104067157D01*
X132087000Y-104044601D01*
X132087000Y-100884000D01*
X132012630Y-100510118D01*
X131886356Y-100321136D01*
X131800843Y-100193156D01*
X129501000Y-97893314D01*
X129501000Y-84921441D01*
X129802864Y-85046786D01*
X130290995Y-85047212D01*
X130741661Y-84861000D01*
X130742758Y-84861000D01*
X130742758Y-84884000D01*
X130793451Y-85153410D01*
X130952672Y-85400846D01*
X131195615Y-85566843D01*
X131484000Y-85625242D01*
X133184000Y-85625242D01*
X133453410Y-85574549D01*
X133700846Y-85415328D01*
X133866843Y-85172385D01*
X133873546Y-85139286D01*
X134000672Y-85336846D01*
X134243615Y-85502843D01*
X134532000Y-85561242D01*
X136232000Y-85561242D01*
X136501410Y-85510549D01*
X136748846Y-85351328D01*
X136914843Y-85108385D01*
X136973242Y-84820000D01*
X136973242Y-83236928D01*
X137447158Y-83710844D01*
X137764119Y-83922631D01*
X138138001Y-83997001D01*
X138392932Y-83997001D01*
X138392718Y-84242211D01*
X138639892Y-84840418D01*
X138989073Y-85190208D01*
X138641501Y-85537175D01*
X138393283Y-86134950D01*
X138392718Y-86782211D01*
X138639892Y-87380418D01*
X139097175Y-87838499D01*
X139555369Y-88028758D01*
X138420000Y-88028758D01*
X138150590Y-88079451D01*
X137903154Y-88238672D01*
X137737157Y-88481615D01*
X137678758Y-88770000D01*
X137678758Y-90770000D01*
X137729451Y-91039410D01*
X137888672Y-91286846D01*
X137922740Y-91310124D01*
X137660590Y-91359451D01*
X137457948Y-91489848D01*
X137278385Y-91367157D01*
X136990000Y-91308758D01*
X135390000Y-91308758D01*
X135120590Y-91359451D01*
X134917948Y-91489848D01*
X134738385Y-91367157D01*
X134720210Y-91363476D01*
X136072843Y-90010843D01*
X136080214Y-89999812D01*
X136284630Y-89693882D01*
X136314086Y-89545796D01*
X136501410Y-89510549D01*
X136748846Y-89351328D01*
X136914843Y-89108385D01*
X136973242Y-88820000D01*
X136973242Y-86820000D01*
X136922549Y-86550590D01*
X136763328Y-86303154D01*
X136520385Y-86137157D01*
X136232000Y-86078758D01*
X134532000Y-86078758D01*
X134262590Y-86129451D01*
X134015154Y-86288672D01*
X133849157Y-86531615D01*
X133842454Y-86564714D01*
X133715328Y-86367154D01*
X133472385Y-86201157D01*
X133184000Y-86142758D01*
X131484000Y-86142758D01*
X131214590Y-86193451D01*
X130967154Y-86352672D01*
X130801157Y-86595615D01*
X130742758Y-86884000D01*
X130742758Y-88093556D01*
X130419157Y-88417157D01*
X130207370Y-88734118D01*
X130133000Y-89108000D01*
X130133000Y-91342063D01*
X130040590Y-91359451D01*
X129793154Y-91518672D01*
X129627157Y-91761615D01*
X129568758Y-92050000D01*
X129568758Y-95250000D01*
X129619451Y-95519410D01*
X129778672Y-95766846D01*
X130021615Y-95932843D01*
X130310000Y-95991242D01*
X131910000Y-95991242D01*
X132179410Y-95940549D01*
X132382052Y-95810152D01*
X132561615Y-95932843D01*
X132850000Y-95991242D01*
X134450000Y-95991242D01*
X134719410Y-95940549D01*
X134922052Y-95810152D01*
X135101615Y-95932843D01*
X135213000Y-95955399D01*
X135213000Y-96566000D01*
X135287370Y-96939882D01*
X135317659Y-96985212D01*
X135499157Y-97256843D01*
X137485157Y-99242843D01*
X137802118Y-99454630D01*
X138176000Y-99529000D01*
X140122559Y-99529000D01*
X139997214Y-99830864D01*
X139996788Y-100318995D01*
X140183194Y-100770131D01*
X140528053Y-101115593D01*
X140978864Y-101302786D01*
X141466995Y-101303212D01*
X141918131Y-101116806D01*
X141982049Y-101053000D01*
X147169314Y-101053000D01*
X151316758Y-105200444D01*
X151316758Y-105870000D01*
X151367451Y-106139410D01*
X151526672Y-106386846D01*
X151769615Y-106552843D01*
X152058000Y-106611242D01*
X153758000Y-106611242D01*
X154027410Y-106560549D01*
X154274846Y-106401328D01*
X154440843Y-106158385D01*
X154499242Y-105870000D01*
X154499242Y-105847000D01*
X158821314Y-105847000D01*
X159813958Y-106839644D01*
X159755119Y-106814756D01*
X159495004Y-106760995D01*
X159437013Y-106760562D01*
X159321939Y-106739119D01*
X157645540Y-106759439D01*
X157564985Y-106776480D01*
X157470276Y-106778195D01*
X157236184Y-106829182D01*
X157099268Y-106888822D01*
X156961298Y-106945970D01*
X156742104Y-107092430D01*
X156520830Y-107313704D01*
X156374370Y-107532898D01*
X156306405Y-107696983D01*
X156254620Y-107822002D01*
X156203190Y-108080558D01*
X156203191Y-108237020D01*
X156203190Y-108393482D01*
X156254620Y-108652038D01*
X156290828Y-108739451D01*
X156374370Y-108941142D01*
X156520830Y-109160336D01*
X156742104Y-109381610D01*
X156961298Y-109528070D01*
X157151198Y-109606728D01*
X157250402Y-109647820D01*
X157508957Y-109699250D01*
X157552250Y-109699250D01*
X157655260Y-109719740D01*
X159331660Y-109719740D01*
X159466264Y-109692965D01*
X159511573Y-109692492D01*
X159748077Y-109642874D01*
X159885542Y-109584243D01*
X160023980Y-109528108D01*
X160245923Y-109382195D01*
X160468840Y-109162581D01*
X160468842Y-109162579D01*
X160618051Y-108942839D01*
X160718751Y-108704766D01*
X160739955Y-108654637D01*
X160793716Y-108394523D01*
X160796051Y-108081607D01*
X160796051Y-108081606D01*
X160746178Y-107820719D01*
X160712855Y-107738541D01*
X169172826Y-116198512D01*
X169172597Y-116460838D01*
X169526115Y-117316418D01*
X170180139Y-117971585D01*
X170523000Y-118113953D01*
X170523000Y-118885871D01*
X170183582Y-119026115D01*
X169528415Y-119680139D01*
X169173404Y-120535100D01*
X169172597Y-121460838D01*
X169526115Y-122316418D01*
X170180139Y-122971585D01*
X171035100Y-123326596D01*
X171960838Y-123327403D01*
X172816418Y-122973885D01*
X173471585Y-122319861D01*
X173826596Y-121464900D01*
X173827403Y-120539162D01*
X173473885Y-119683582D01*
X172819861Y-119028415D01*
X172477000Y-118886047D01*
X172477000Y-118114129D01*
X172816418Y-117973885D01*
X173471585Y-117319861D01*
X173826596Y-116464900D01*
X173827403Y-115539162D01*
X173473885Y-114683582D01*
X172819861Y-114028415D01*
X171964900Y-113673404D01*
X171039162Y-113672597D01*
X170183582Y-114026115D01*
X169973508Y-114235822D01*
X159916843Y-104179157D01*
X159839880Y-104127732D01*
X159599882Y-103967370D01*
X159226000Y-103893000D01*
X154499242Y-103893000D01*
X154499242Y-103870000D01*
X154494914Y-103847000D01*
X158242000Y-103847000D01*
X158615882Y-103772630D01*
X158932843Y-103560843D01*
X163166975Y-99326711D01*
X163605903Y-99327094D01*
X163298407Y-99634053D01*
X163111214Y-100084864D01*
X163110788Y-100572995D01*
X163297194Y-101024131D01*
X163393000Y-101120105D01*
X163393000Y-103360758D01*
X163370000Y-103360758D01*
X163100590Y-103411451D01*
X162853154Y-103570672D01*
X162687157Y-103813615D01*
X162628758Y-104102000D01*
X162628758Y-105702000D01*
X162679451Y-105971410D01*
X162838672Y-106218846D01*
X163081615Y-106384843D01*
X163370000Y-106443242D01*
X165370000Y-106443242D01*
X165639410Y-106392549D01*
X165886846Y-106233328D01*
X166052843Y-105990385D01*
X166111242Y-105702000D01*
X166111242Y-104102000D01*
X166628758Y-104102000D01*
X166628758Y-105702000D01*
X166679451Y-105971410D01*
X166838672Y-106218846D01*
X167081615Y-106384843D01*
X167370000Y-106443242D01*
X167393000Y-106443242D01*
X167393000Y-107870000D01*
X167467370Y-108243882D01*
X167617793Y-108469005D01*
X167679157Y-108560843D01*
X169314241Y-110195927D01*
X169173404Y-110535100D01*
X169172597Y-111460838D01*
X169526115Y-112316418D01*
X170180139Y-112971585D01*
X171035100Y-113326596D01*
X171960838Y-113327403D01*
X172816418Y-112973885D01*
X173471585Y-112319861D01*
X173826596Y-111464900D01*
X173827403Y-110539162D01*
X173473885Y-109683582D01*
X172819861Y-109028415D01*
X171964900Y-108673404D01*
X171903785Y-108673351D01*
X171873882Y-108653370D01*
X171500000Y-108579000D01*
X171126118Y-108653370D01*
X171097267Y-108672648D01*
X171039162Y-108672597D01*
X170696053Y-108814367D01*
X169347000Y-107465314D01*
X169347000Y-106443242D01*
X169370000Y-106443242D01*
X169639410Y-106392549D01*
X169886846Y-106233328D01*
X170052843Y-105990385D01*
X170111242Y-105702000D01*
X170111242Y-104102000D01*
X170060549Y-103832590D01*
X169901328Y-103585154D01*
X169658385Y-103419157D01*
X169370000Y-103360758D01*
X167370000Y-103360758D01*
X167100590Y-103411451D01*
X166853154Y-103570672D01*
X166687157Y-103813615D01*
X166628758Y-104102000D01*
X166111242Y-104102000D01*
X166060549Y-103832590D01*
X165901328Y-103585154D01*
X165658385Y-103419157D01*
X165370000Y-103360758D01*
X165347000Y-103360758D01*
X165347000Y-101056487D01*
X165377593Y-101025947D01*
X165564786Y-100575136D01*
X165565212Y-100087005D01*
X165378806Y-99635869D01*
X165033947Y-99290407D01*
X164583136Y-99103214D01*
X164503586Y-99103145D01*
X164816418Y-98973885D01*
X165471585Y-98319861D01*
X165613953Y-97977000D01*
X165834000Y-97977000D01*
X166207882Y-97902630D01*
X166524843Y-97690843D01*
X170362844Y-93852843D01*
X170574631Y-93535881D01*
X170604087Y-93387796D01*
X170791410Y-93352549D01*
X171038846Y-93193328D01*
X171204843Y-92950385D01*
X171263242Y-92662000D01*
X171263242Y-90784928D01*
X171432758Y-90954444D01*
X171432758Y-92662000D01*
X171483451Y-92931410D01*
X171642672Y-93178846D01*
X171885615Y-93344843D01*
X172174000Y-93403242D01*
X173774000Y-93403242D01*
X174043410Y-93352549D01*
X174290846Y-93193328D01*
X174456843Y-92950385D01*
X174515242Y-92662000D01*
X174515242Y-90662000D01*
X174464549Y-90392590D01*
X174305328Y-90145154D01*
X174062385Y-89979157D01*
X173774000Y-89920758D01*
X173162444Y-89920758D01*
X172644928Y-89403242D01*
X173774000Y-89403242D01*
X174043410Y-89352549D01*
X174290846Y-89193328D01*
X174456843Y-88950385D01*
X174515242Y-88662000D01*
X174515242Y-86662000D01*
X174464549Y-86392590D01*
X174305328Y-86145154D01*
X174062385Y-85979157D01*
X173951000Y-85956601D01*
X173951000Y-85344000D01*
X173876630Y-84970118D01*
X173819088Y-84884000D01*
X173664843Y-84653156D01*
X172140843Y-83129157D01*
X172071474Y-83082806D01*
X171823882Y-82917370D01*
X171450000Y-82843000D01*
X170165687Y-82843000D01*
X170126500Y-82803813D01*
X170316846Y-82681328D01*
X170482843Y-82438385D01*
X170541242Y-82150000D01*
X170541242Y-79968207D01*
X170704717Y-80363846D01*
X171133894Y-80793773D01*
X171694928Y-81026735D01*
X172302407Y-81027265D01*
X172863846Y-80795283D01*
X173293773Y-80366106D01*
X173526735Y-79805072D01*
X173527265Y-79197593D01*
X173295283Y-78636154D01*
X172866106Y-78206227D01*
X172305072Y-77973265D01*
X171697593Y-77972735D01*
X171136154Y-78204717D01*
X170706227Y-78633894D01*
X170512913Y-79099445D01*
X170490549Y-78980590D01*
X170331328Y-78733154D01*
X170088385Y-78567157D01*
X169800000Y-78508758D01*
X167050000Y-78508758D01*
X166780590Y-78559451D01*
X166533154Y-78718672D01*
X166367157Y-78961615D01*
X166308758Y-79250000D01*
X166308758Y-81712610D01*
X166278560Y-81712611D01*
X166122097Y-81712610D01*
X165863542Y-81764040D01*
X165779130Y-81799005D01*
X165574438Y-81883790D01*
X165355244Y-82030250D01*
X165133970Y-82251524D01*
X164987510Y-82470718D01*
X164935777Y-82595615D01*
X164867760Y-82759822D01*
X164816330Y-83018378D01*
X164816330Y-83061670D01*
X164795840Y-83164680D01*
X164795840Y-84841080D01*
X164822615Y-84975684D01*
X164823088Y-85020993D01*
X164872706Y-85257497D01*
X164931337Y-85394962D01*
X164987472Y-85533400D01*
X165133385Y-85755343D01*
X165257185Y-85881005D01*
X165353001Y-85978262D01*
X165572741Y-86127471D01*
X165746949Y-86201157D01*
X165860943Y-86249375D01*
X166121057Y-86303136D01*
X166433973Y-86305471D01*
X166433974Y-86305471D01*
X166694861Y-86255598D01*
X166861855Y-86187882D01*
X166984849Y-86138009D01*
X167206792Y-85992096D01*
X167429709Y-85772482D01*
X167429711Y-85772480D01*
X167578920Y-85552740D01*
X167664113Y-85351328D01*
X167700824Y-85264538D01*
X167754585Y-85004424D01*
X167755018Y-84946433D01*
X167776461Y-84831359D01*
X167756655Y-83197341D01*
X169070156Y-84510843D01*
X169365351Y-84708086D01*
X169387118Y-84722630D01*
X169761000Y-84797000D01*
X171045314Y-84797000D01*
X171997000Y-85748687D01*
X171997000Y-85954063D01*
X171904590Y-85971451D01*
X171657154Y-86130672D01*
X171491157Y-86373615D01*
X171432758Y-86662000D01*
X171432758Y-88191072D01*
X171263242Y-88021556D01*
X171263242Y-86662000D01*
X171212549Y-86392590D01*
X171053328Y-86145154D01*
X170810385Y-85979157D01*
X170522000Y-85920758D01*
X168822000Y-85920758D01*
X168552590Y-85971451D01*
X168305154Y-86130672D01*
X168139157Y-86373615D01*
X168080758Y-86662000D01*
X168080758Y-88662000D01*
X168131451Y-88931410D01*
X168290672Y-89178846D01*
X168533615Y-89344843D01*
X168822000Y-89403242D01*
X169881556Y-89403242D01*
X170399072Y-89920758D01*
X168822000Y-89920758D01*
X168552590Y-89971451D01*
X168305154Y-90130672D01*
X168139157Y-90373615D01*
X168080758Y-90662000D01*
X168080758Y-92662000D01*
X168131451Y-92931410D01*
X168283936Y-93168377D01*
X165560093Y-95892221D01*
X165473885Y-95683582D01*
X164819861Y-95028415D01*
X163964900Y-94673404D01*
X163039162Y-94672597D01*
X162183582Y-95026115D01*
X161528415Y-95680139D01*
X161173404Y-96535100D01*
X161172597Y-97460838D01*
X161493304Y-98237010D01*
X157837314Y-101893000D01*
X154494584Y-101893000D01*
X154499242Y-101870000D01*
X154499242Y-99870000D01*
X154448549Y-99600590D01*
X154289328Y-99353154D01*
X154142055Y-99252526D01*
X154816418Y-98973885D01*
X155471585Y-98319861D01*
X155613953Y-97977000D01*
X156385871Y-97977000D01*
X156526115Y-98316418D01*
X157180139Y-98971585D01*
X158035100Y-99326596D01*
X158960838Y-99327403D01*
X159816418Y-98973885D01*
X160471585Y-98319861D01*
X160826596Y-97464900D01*
X160827403Y-96539162D01*
X160473885Y-95683582D01*
X159819861Y-95028415D01*
X158964900Y-94673404D01*
X158039162Y-94672597D01*
X157183582Y-95026115D01*
X156528415Y-95680139D01*
X156386047Y-96023000D01*
X155614129Y-96023000D01*
X155473885Y-95683582D01*
X154819861Y-95028415D01*
X153964900Y-94673404D01*
X153039162Y-94672597D01*
X152183582Y-95026115D01*
X151528415Y-95680139D01*
X151386047Y-96023000D01*
X150062538Y-96023000D01*
X150070786Y-96003136D01*
X150070903Y-95868805D01*
X150206846Y-95781328D01*
X150372843Y-95538385D01*
X150431242Y-95250000D01*
X150431242Y-92050000D01*
X150380549Y-91780590D01*
X150247641Y-91574046D01*
X150509504Y-91312182D01*
X150804843Y-91114843D01*
X151016630Y-90797882D01*
X151091000Y-90424000D01*
X151091000Y-84838000D01*
X151072400Y-84744491D01*
X151070933Y-84737114D01*
X154372268Y-84737114D01*
X155014434Y-86291275D01*
X156202470Y-87481387D01*
X157755509Y-88126265D01*
X159437114Y-88127732D01*
X160991275Y-87485566D01*
X162181387Y-86297530D01*
X162826265Y-84744491D01*
X162827732Y-83062886D01*
X162185566Y-81508725D01*
X160997530Y-80318613D01*
X159444491Y-79673735D01*
X157762886Y-79672268D01*
X156208725Y-80314434D01*
X155018613Y-81502470D01*
X154373735Y-83055509D01*
X154372268Y-84737114D01*
X151070933Y-84737114D01*
X151016631Y-84464119D01*
X150804844Y-84147157D01*
X149818843Y-83161157D01*
X149763313Y-83124053D01*
X149501882Y-82949370D01*
X149369242Y-82922986D01*
X149369242Y-82852000D01*
X149318549Y-82582590D01*
X149159328Y-82335154D01*
X148916385Y-82169157D01*
X148628000Y-82110758D01*
X147028000Y-82110758D01*
X146758590Y-82161451D01*
X146511154Y-82320672D01*
X146345157Y-82563615D01*
X146330551Y-82635744D01*
X146320549Y-82582590D01*
X146161328Y-82335154D01*
X146006836Y-82229594D01*
X146007212Y-81799005D01*
X145881599Y-81495000D01*
X148844000Y-81495000D01*
X149217882Y-81420630D01*
X149534843Y-81208843D01*
X153820687Y-76923000D01*
X189079314Y-76923000D01*
X199973000Y-87816687D01*
X199973000Y-126758758D01*
X197450000Y-126758758D01*
X197180590Y-126809451D01*
X196933154Y-126968672D01*
X196767157Y-127211615D01*
X196708758Y-127500000D01*
X196708758Y-131500000D01*
X196759451Y-131769410D01*
X196918672Y-132016846D01*
X197161615Y-132182843D01*
X197450000Y-132241242D01*
X204450000Y-132241242D01*
X204719410Y-132190549D01*
X204966846Y-132031328D01*
X205132843Y-131788385D01*
X205191242Y-131500000D01*
X205191242Y-127500000D01*
X205140549Y-127230590D01*
X204981328Y-126983154D01*
X204738385Y-126817157D01*
X204450000Y-126758758D01*
X201927000Y-126758758D01*
X201927000Y-87412000D01*
X201852630Y-87038118D01*
X201765020Y-86907001D01*
X201640844Y-86721157D01*
X190174843Y-75255157D01*
X190154018Y-75241242D01*
X189857882Y-75043370D01*
X189484000Y-74969000D01*
X177509433Y-74969000D01*
X177632843Y-74788385D01*
X177691242Y-74500000D01*
X177691242Y-72100000D01*
X177640549Y-71830590D01*
X177481328Y-71583154D01*
X177238385Y-71417157D01*
X176950000Y-71358758D01*
X174400000Y-71358758D01*
X174130590Y-71409451D01*
X173883154Y-71568672D01*
X173717157Y-71811615D01*
X173658758Y-72100000D01*
X173658758Y-74500000D01*
X173709451Y-74769410D01*
X173837884Y-74969000D01*
X153416000Y-74969000D01*
X153042118Y-75043370D01*
X152725156Y-75255157D01*
X148439314Y-79541000D01*
X147267897Y-79541000D01*
X147366846Y-79477328D01*
X147532843Y-79234385D01*
X147591242Y-78946000D01*
X147591242Y-76946000D01*
X147540549Y-76676590D01*
X147381328Y-76429154D01*
X147138385Y-76263157D01*
X146850000Y-76204758D01*
X145250000Y-76204758D01*
X144980590Y-76255451D01*
X144733154Y-76414672D01*
X144567157Y-76657615D01*
X144508758Y-76946000D01*
X144508758Y-77270459D01*
X144085869Y-77445194D01*
X143740407Y-77790053D01*
X143553214Y-78240864D01*
X143552788Y-78728995D01*
X143739194Y-79180131D01*
X144084053Y-79525593D01*
X144121157Y-79541000D01*
X142494000Y-79541000D01*
X142120118Y-79615370D01*
X141803157Y-79827157D01*
X141285520Y-80344794D01*
X140942825Y-80001501D01*
X140484631Y-79811242D01*
X141620000Y-79811242D01*
X141889410Y-79760549D01*
X142136846Y-79601328D01*
X142302843Y-79358385D01*
X142361242Y-79070000D01*
X142361242Y-77070000D01*
X142310549Y-76800590D01*
X142151328Y-76553154D01*
X141908385Y-76387157D01*
X141620000Y-76328758D01*
X138420000Y-76328758D01*
X138150590Y-76379451D01*
X137903154Y-76538672D01*
X137737157Y-76781615D01*
X137678758Y-77070000D01*
X137678758Y-79070000D01*
X137729451Y-79339410D01*
X137730090Y-79340403D01*
X135644843Y-77255157D01*
X135573006Y-77207157D01*
X135327882Y-77043370D01*
X135195242Y-77016986D01*
X135195242Y-76946000D01*
X135144549Y-76676590D01*
X134985328Y-76429154D01*
X134742385Y-76263157D01*
X134454000Y-76204758D01*
X132754000Y-76204758D01*
X132484590Y-76255451D01*
X132237154Y-76414672D01*
X132071157Y-76657615D01*
X132012758Y-76946000D01*
X132012758Y-77039264D01*
X131992119Y-77043369D01*
X131675157Y-77255156D01*
X127833157Y-81097157D01*
X127621370Y-81414118D01*
X127547000Y-81788000D01*
X127547000Y-82718559D01*
X127245136Y-82593214D01*
X127154822Y-82593135D01*
X126817000Y-82255314D01*
X126817000Y-76494686D01*
X130960686Y-72351000D01*
X132336103Y-72351000D01*
X132237154Y-72414672D01*
X132071157Y-72657615D01*
X132012758Y-72946000D01*
X132012758Y-74946000D01*
X132063451Y-75215410D01*
X132222672Y-75462846D01*
X132465615Y-75628843D01*
X132754000Y-75687242D01*
X134454000Y-75687242D01*
X134723410Y-75636549D01*
X134970846Y-75477328D01*
X135136843Y-75234385D01*
X135195242Y-74946000D01*
X135195242Y-74923000D01*
X135363086Y-74923000D01*
X135409451Y-75169410D01*
X135568672Y-75416846D01*
X135811615Y-75582843D01*
X136100000Y-75641242D01*
X138100000Y-75641242D01*
X138369410Y-75590549D01*
X138616846Y-75431328D01*
X138782843Y-75188385D01*
X138841242Y-74900000D01*
X138841242Y-73885750D01*
X141065000Y-73885750D01*
X141065000Y-75026309D01*
X141161673Y-75259698D01*
X141340301Y-75438327D01*
X141573690Y-75535000D01*
X142414250Y-75535000D01*
X142573000Y-75376250D01*
X142573000Y-73727000D01*
X142827000Y-73727000D01*
X142827000Y-75376250D01*
X142985750Y-75535000D01*
X143826310Y-75535000D01*
X144059699Y-75438327D01*
X144238327Y-75259698D01*
X144335000Y-75026309D01*
X144335000Y-73885750D01*
X144176250Y-73727000D01*
X142827000Y-73727000D01*
X142573000Y-73727000D01*
X141223750Y-73727000D01*
X141065000Y-73885750D01*
X138841242Y-73885750D01*
X138841242Y-72351000D01*
X141065000Y-72351000D01*
X141065000Y-73314250D01*
X141223750Y-73473000D01*
X142573000Y-73473000D01*
X142573000Y-73453000D01*
X142827000Y-73453000D01*
X142827000Y-73473000D01*
X144176250Y-73473000D01*
X144335000Y-73314250D01*
X144335000Y-72351000D01*
X144832103Y-72351000D01*
X144733154Y-72414672D01*
X144567157Y-72657615D01*
X144508758Y-72946000D01*
X144508758Y-74946000D01*
X144559451Y-75215410D01*
X144718672Y-75462846D01*
X144961615Y-75628843D01*
X145250000Y-75687242D01*
X146850000Y-75687242D01*
X147119410Y-75636549D01*
X147366846Y-75477328D01*
X147532843Y-75234385D01*
X147591242Y-74946000D01*
X147591242Y-72946000D01*
X147540549Y-72676590D01*
X147381328Y-72429154D01*
X147138385Y-72263157D01*
X147027000Y-72240601D01*
X147027000Y-71882000D01*
X146987964Y-71685750D01*
X166415000Y-71685750D01*
X166415000Y-72726310D01*
X166511673Y-72959699D01*
X166690302Y-73138327D01*
X166923691Y-73235000D01*
X168039250Y-73235000D01*
X168198000Y-73076250D01*
X168198000Y-71527000D01*
X168452000Y-71527000D01*
X168452000Y-73076250D01*
X168610750Y-73235000D01*
X169726309Y-73235000D01*
X169959698Y-73138327D01*
X170138327Y-72959699D01*
X170203479Y-72802407D01*
X170472735Y-72802407D01*
X170704717Y-73363846D01*
X171133894Y-73793773D01*
X171694928Y-74026735D01*
X172302407Y-74027265D01*
X172863846Y-73795283D01*
X173293773Y-73366106D01*
X173526735Y-72805072D01*
X173527265Y-72197593D01*
X173295283Y-71636154D01*
X172866106Y-71206227D01*
X172305072Y-70973265D01*
X171697593Y-70972735D01*
X171136154Y-71204717D01*
X170706227Y-71633894D01*
X170473265Y-72194928D01*
X170472735Y-72802407D01*
X170203479Y-72802407D01*
X170235000Y-72726310D01*
X170235000Y-71685750D01*
X170076250Y-71527000D01*
X168452000Y-71527000D01*
X168198000Y-71527000D01*
X166573750Y-71527000D01*
X166415000Y-71685750D01*
X146987964Y-71685750D01*
X146952630Y-71508118D01*
X146795529Y-71273000D01*
X146740843Y-71191156D01*
X146232843Y-70683157D01*
X145915882Y-70471370D01*
X145542000Y-70397000D01*
X130556000Y-70397000D01*
X130182118Y-70471370D01*
X129865157Y-70683157D01*
X125149157Y-75399157D01*
X124937370Y-75716118D01*
X124863000Y-76090000D01*
X124863000Y-77763000D01*
X121827345Y-77763000D01*
X121800549Y-77620590D01*
X121641328Y-77373154D01*
X121398385Y-77207157D01*
X121110000Y-77148758D01*
X119110000Y-77148758D01*
X118840590Y-77199451D01*
X118593154Y-77358672D01*
X118427157Y-77601615D01*
X118368758Y-77890000D01*
X118368758Y-78865072D01*
X117851242Y-78347556D01*
X117851242Y-77890000D01*
X117800549Y-77620590D01*
X117641328Y-77373154D01*
X117398385Y-77207157D01*
X117110000Y-77148758D01*
X115110000Y-77148758D01*
X114840590Y-77199451D01*
X114593154Y-77358672D01*
X114427157Y-77601615D01*
X114368758Y-77890000D01*
X114368758Y-79590000D01*
X114419451Y-79859410D01*
X114578672Y-80106846D01*
X114821615Y-80272843D01*
X114893744Y-80287449D01*
X114840590Y-80297451D01*
X114593154Y-80456672D01*
X114427157Y-80699615D01*
X114368758Y-80988000D01*
X114368758Y-82588000D01*
X114419451Y-82857410D01*
X114578672Y-83104846D01*
X114657563Y-83158751D01*
X113195314Y-84621000D01*
X106576686Y-84621000D01*
X105402000Y-83446314D01*
X105402000Y-82891242D01*
X105800000Y-82891242D01*
X106069410Y-82840549D01*
X106316846Y-82681328D01*
X106482843Y-82438385D01*
X106541242Y-82150000D01*
X106541242Y-79968207D01*
X106704717Y-80363846D01*
X107133894Y-80793773D01*
X107694928Y-81026735D01*
X108302407Y-81027265D01*
X108863846Y-80795283D01*
X109293773Y-80366106D01*
X109526735Y-79805072D01*
X109527265Y-79197593D01*
X109295283Y-78636154D01*
X108866106Y-78206227D01*
X108305072Y-77973265D01*
X107697593Y-77972735D01*
X107136154Y-78204717D01*
X106706227Y-78633894D01*
X106512913Y-79099445D01*
X106490549Y-78980590D01*
X106331328Y-78733154D01*
X106088385Y-78567157D01*
X105800000Y-78508758D01*
X103050000Y-78508758D01*
X102780590Y-78559451D01*
X102533154Y-78718672D01*
X102367157Y-78961615D01*
X102308758Y-79250000D01*
X72527000Y-79250000D01*
X72527000Y-69346122D01*
X73373122Y-68500000D01*
X74808758Y-68500000D01*
X74808758Y-72500000D01*
X74859451Y-72769410D01*
X75018672Y-73016846D01*
X75261615Y-73182843D01*
X75550000Y-73241242D01*
X82550000Y-73241242D01*
X82819410Y-73190549D01*
X83066846Y-73031328D01*
X83232843Y-72788385D01*
X83291242Y-72500000D01*
X83291242Y-71477000D01*
X85708758Y-71477000D01*
X85708758Y-72500000D01*
X85759451Y-72769410D01*
X85918672Y-73016846D01*
X86161615Y-73182843D01*
X86450000Y-73241242D01*
X93450000Y-73241242D01*
X93719410Y-73190549D01*
X93966846Y-73031328D01*
X94132843Y-72788385D01*
X94191242Y-72500000D01*
X94191242Y-71685750D01*
X102415000Y-71685750D01*
X102415000Y-72726310D01*
X102511673Y-72959699D01*
X102690302Y-73138327D01*
X102923691Y-73235000D01*
X104039250Y-73235000D01*
X104198000Y-73076250D01*
X104198000Y-71527000D01*
X104452000Y-71527000D01*
X104452000Y-73076250D01*
X104610750Y-73235000D01*
X105726309Y-73235000D01*
X105959698Y-73138327D01*
X106138327Y-72959699D01*
X106203479Y-72802407D01*
X106472735Y-72802407D01*
X106704717Y-73363846D01*
X107133894Y-73793773D01*
X107694928Y-74026735D01*
X108302407Y-74027265D01*
X108863846Y-73795283D01*
X109293773Y-73366106D01*
X109526735Y-72805072D01*
X109527265Y-72197593D01*
X109486941Y-72100000D01*
X109658758Y-72100000D01*
X109658758Y-74500000D01*
X109709451Y-74769410D01*
X109868672Y-75016846D01*
X110111615Y-75182843D01*
X110400000Y-75241242D01*
X112950000Y-75241242D01*
X113219410Y-75190549D01*
X113466846Y-75031328D01*
X113632843Y-74788385D01*
X113691242Y-74500000D01*
X113691242Y-72100000D01*
X113640549Y-71830590D01*
X113481328Y-71583154D01*
X113238385Y-71417157D01*
X112950000Y-71358758D01*
X110400000Y-71358758D01*
X110130590Y-71409451D01*
X109883154Y-71568672D01*
X109717157Y-71811615D01*
X109658758Y-72100000D01*
X109486941Y-72100000D01*
X109295283Y-71636154D01*
X108866106Y-71206227D01*
X108305072Y-70973265D01*
X107697593Y-70972735D01*
X107136154Y-71204717D01*
X106706227Y-71633894D01*
X106473265Y-72194928D01*
X106472735Y-72802407D01*
X106203479Y-72802407D01*
X106235000Y-72726310D01*
X106235000Y-71685750D01*
X106076250Y-71527000D01*
X104452000Y-71527000D01*
X104198000Y-71527000D01*
X102573750Y-71527000D01*
X102415000Y-71685750D01*
X94191242Y-71685750D01*
X94191242Y-68500000D01*
X94140549Y-68230590D01*
X93981328Y-67983154D01*
X93738385Y-67817157D01*
X93450000Y-67758758D01*
X86450000Y-67758758D01*
X86180590Y-67809451D01*
X85933154Y-67968672D01*
X85767157Y-68211615D01*
X85708758Y-68500000D01*
X85708758Y-69523000D01*
X83291242Y-69523000D01*
X83291242Y-68500000D01*
X83240549Y-68230590D01*
X83081328Y-67983154D01*
X82838385Y-67817157D01*
X82550000Y-67758758D01*
X75550000Y-67758758D01*
X75280590Y-67809451D01*
X75033154Y-67968672D01*
X74867157Y-68211615D01*
X74808758Y-68500000D01*
X73373122Y-68500000D01*
X74697938Y-67175184D01*
X97679251Y-67175184D01*
X100044716Y-69540649D01*
G36*
X215073000Y-140573000D02*
X64927000Y-140573000D01*
X64927000Y-64250000D01*
X69573000Y-64250000D01*
X69573000Y-98500000D01*
X69586473Y-98567735D01*
X69623000Y-98622401D01*
X69623000Y-101377599D01*
X69586473Y-101432265D01*
X69573000Y-101500000D01*
X69573000Y-135750000D01*
X69586473Y-135817735D01*
X69624842Y-135875158D01*
X69682265Y-135913527D01*
X69750000Y-135927000D01*
X114500000Y-135927000D01*
X114567735Y-135913527D01*
X114622401Y-135877000D01*
X117346583Y-135877000D01*
X117357164Y-135892836D01*
X117422698Y-135936624D01*
X117500000Y-135952000D01*
X117577302Y-135936624D01*
X117591705Y-135927000D01*
X157000000Y-135927000D01*
X157067735Y-135913527D01*
X157122401Y-135877000D01*
X159877599Y-135877000D01*
X159932265Y-135913527D01*
X160000000Y-135927000D01*
X210250000Y-135927000D01*
X210317735Y-135913527D01*
X210375158Y-135875158D01*
X210413527Y-135817735D01*
X210427000Y-135750000D01*
X210427000Y-101500000D01*
X210413527Y-101432265D01*
X210377000Y-101377599D01*
X210377000Y-98622401D01*
X210413527Y-98567735D01*
X210427000Y-98500000D01*
X210427000Y-64250000D01*
X210413527Y-64182265D01*
X210375158Y-64124842D01*
X210317735Y-64086473D01*
X210250000Y-64073000D01*
X173500000Y-64073000D01*
X173432265Y-64086473D01*
X173377599Y-64123000D01*
X170622401Y-64123000D01*
X170567735Y-64086473D01*
X170500000Y-64073000D01*
X109500000Y-64073000D01*
X109432265Y-64086473D01*
X109377599Y-64123000D01*
X106622401Y-64123000D01*
X106567735Y-64086473D01*
X106500000Y-64073000D01*
X69750000Y-64073000D01*
X69682265Y-64086473D01*
X69624842Y-64124842D01*
X69586473Y-64182265D01*
X69573000Y-64250000D01*
X64927000Y-64250000D01*
X64927000Y-59427000D01*
X215073000Y-59427000D01*
X215073000Y-140573000D01*
X215073000Y-140573000D01*
G37*
X215073000Y-140573000D02*
X64927000Y-140573000D01*
X64927000Y-64250000D01*
X69573000Y-64250000D01*
X69573000Y-98500000D01*
X69586473Y-98567735D01*
X69623000Y-98622401D01*
X69623000Y-101377599D01*
X69586473Y-101432265D01*
X69573000Y-101500000D01*
X69573000Y-135750000D01*
X69586473Y-135817735D01*
X69624842Y-135875158D01*
X69682265Y-135913527D01*
X69750000Y-135927000D01*
X114500000Y-135927000D01*
X114567735Y-135913527D01*
X114622401Y-135877000D01*
X117346583Y-135877000D01*
X117357164Y-135892836D01*
X117422698Y-135936624D01*
X117500000Y-135952000D01*
X117577302Y-135936624D01*
X117591705Y-135927000D01*
X157000000Y-135927000D01*
X157067735Y-135913527D01*
X157122401Y-135877000D01*
X159877599Y-135877000D01*
X159932265Y-135913527D01*
X160000000Y-135927000D01*
X210250000Y-135927000D01*
X210317735Y-135913527D01*
X210375158Y-135875158D01*
X210413527Y-135817735D01*
X210427000Y-135750000D01*
X210427000Y-101500000D01*
X210413527Y-101432265D01*
X210377000Y-101377599D01*
X210377000Y-98622401D01*
X210413527Y-98567735D01*
X210427000Y-98500000D01*
X210427000Y-64250000D01*
X210413527Y-64182265D01*
X210375158Y-64124842D01*
X210317735Y-64086473D01*
X210250000Y-64073000D01*
X173500000Y-64073000D01*
X173432265Y-64086473D01*
X173377599Y-64123000D01*
X170622401Y-64123000D01*
X170567735Y-64086473D01*
X170500000Y-64073000D01*
X109500000Y-64073000D01*
X109432265Y-64086473D01*
X109377599Y-64123000D01*
X106622401Y-64123000D01*
X106567735Y-64086473D01*
X106500000Y-64073000D01*
X69750000Y-64073000D01*
X69682265Y-64086473D01*
X69624842Y-64124842D01*
X69586473Y-64182265D01*
X69573000Y-64250000D01*
X64927000Y-64250000D01*
X64927000Y-59427000D01*
X215073000Y-59427000D01*
X215073000Y-140573000D01*
M02*
